<svg width="100" height="52" viewBox="0 0 100 52" fill="none" xmlns="http://www.w3.org/2000/svg">
<path d="M0 8C0 3.58172 3.58172 0 8 0H92C96.4183 0 100 3.58172 100 8V44C100 48.4183 96.4183 52 92 52H8C3.58172 52 0 48.4183 0 44V8Z" fill="white"/>
<g clip-path="url(#clip0_20008056_948)">
<path d="M36.0967 22.6315H41.3372V23.5581H36.0967V22.6315Z" fill="#F89521"/>
<path d="M36.0967 24.4844H41.3372V23.5581H36.0967V24.4844Z" fill="white"/>
<path d="M36.0967 24.4843H41.3372V25.4109H36.0967V24.4843Z" fill="#08A650"/>
<mask id="mask0_20008056_948" style="mask-type:luminance" maskUnits="userSpaceOnUse" x="18" y="12" width="64" height="28">
<path d="M18.0835 40H81.9169V12H18.0835V40Z" fill="white"/>
</mask>
<g mask="url(#mask0_20008056_948)">
<path d="M27.9039 16.7034C30.3484 16.7034 32.5627 17.7128 34.1643 19.344C35.7671 20.9759 36.7585 23.2291 36.7585 25.7184C36.7585 28.2078 35.7671 30.4617 34.1643 32.0928C32.5627 33.7239 30.3484 34.7329 27.9039 34.7329C25.4589 34.7329 23.2456 33.7239 21.643 32.0928C20.0407 30.4617 19.0493 28.2078 19.0493 25.7184C19.0493 23.2291 20.0407 20.9759 21.643 19.344C23.2456 17.7128 25.4589 16.7034 27.9039 16.7034ZM33.5745 19.9449C32.1238 18.4678 30.1186 17.5536 27.9039 17.5536C25.6892 17.5536 23.684 18.4678 22.2328 19.9449C20.7823 21.4221 19.8847 23.4637 19.8847 25.7184C19.8847 27.9728 20.7823 30.0146 22.2328 31.4919C23.684 32.9687 25.6892 33.8831 27.9039 33.8831C30.1186 33.8831 32.1238 32.9687 33.5745 31.4919C35.0255 30.0146 35.9229 27.9728 35.9229 25.7184C35.9229 23.4637 35.0255 21.4221 33.5745 19.9449ZM49.4297 16.7034C51.874 16.7034 54.0878 17.7128 55.6899 19.344C57.2927 20.9759 58.2839 23.2291 58.2839 25.7184C58.2839 28.2078 57.2927 30.4617 55.6899 32.0928C54.0878 33.7239 51.874 34.7329 49.4297 34.7329C46.9847 34.7329 44.7708 33.7239 43.1687 32.0928C41.5665 30.4617 40.5751 28.2078 40.5751 25.7184C40.5751 23.2291 41.5665 20.9759 43.1687 19.344C44.7708 17.7128 46.9847 16.7034 49.4297 16.7034ZM55.1001 19.9449C53.6495 18.4678 51.6441 17.5536 49.4297 17.5536C47.215 17.5536 45.2098 18.4678 43.7589 19.9449C42.3079 21.4221 41.4101 23.4637 41.4101 25.7184C41.4101 27.9728 42.3079 30.0146 43.7589 31.4919C45.2098 32.9687 47.215 33.8831 49.4297 33.8831C51.6441 33.8831 53.6495 32.9687 55.1001 31.4919C56.5511 30.0146 57.4487 27.9728 57.4487 25.7184C57.4487 23.4637 56.5511 21.4221 55.1001 19.9449Z" fill="#010101"/>
<path d="M18.6746 25.2307C18.4659 25.3284 18.2178 25.2359 18.1217 25.0232C18.0257 24.8107 18.1169 24.5582 18.3256 24.4603L43.5816 12.6217C43.5974 12.6141 43.6133 12.6083 43.6295 12.6027C45.4754 11.8587 47.2174 11.8414 48.5576 12.3436C49.3553 12.6426 50.016 13.1275 50.479 13.7544C50.9455 14.3864 51.2088 15.1594 51.2079 16.0301C51.207 17.3083 50.6319 18.7942 49.2856 20.3378C49.1335 20.5131 48.871 20.5291 48.6988 20.3746C48.5265 20.2198 48.5108 19.9519 48.663 19.777C49.8629 18.4007 50.3753 17.1124 50.3767 16.0301C50.3773 15.3513 50.1741 14.7503 49.8133 14.2624C49.4491 13.7686 48.9188 13.3837 48.2706 13.1406C47.1085 12.7048 45.5782 12.7276 43.9352 13.3895L43.9305 13.3923L18.6746 25.2307ZM56.6352 25.301C56.426 25.3975 56.1798 25.3045 56.0843 25.0918C55.9889 24.8788 56.0811 24.6277 56.29 24.5303L74.2925 16.1186C74.3033 16.1135 74.3149 16.109 74.3259 16.1046C76.1769 15.3559 77.9234 15.3367 79.267 15.8408C80.0638 16.1398 80.7245 16.6242 81.1874 17.251C81.655 17.8833 81.9178 18.6561 81.9171 19.5267C81.9162 20.8053 81.3409 22.2908 79.9949 23.8348C79.8426 24.0099 79.5797 24.0263 79.4076 23.8713C79.2357 23.7168 79.2199 23.4489 79.3717 23.2738C80.5723 21.8975 81.0851 20.6097 81.0858 19.5267C81.0858 18.848 80.8833 18.2474 80.5223 17.7592C80.1579 17.2655 79.6276 16.8804 78.9796 16.6372C77.8149 16.2002 76.2795 16.225 74.6324 16.8914L56.6352 25.301Z" fill="#010101"/>
</g>
<mask id="mask1_20008056_948" style="mask-type:luminance" maskUnits="userSpaceOnUse" x="15" y="9" width="70" height="34">
<path d="M15.9375 42.5393H84.0626V9.46045H15.9375V42.5393Z" fill="white"/>
</mask>
<g mask="url(#mask1_20008056_948)">
<path d="M22.3708 37.3375H22.3467V37.3622H22.0251V38.2646C22.0251 38.3142 22.0193 38.3581 22.0076 38.3962C21.9968 38.4342 21.9731 38.4814 21.9375 38.5377C21.9279 38.5504 21.9132 38.5723 21.8937 38.6021C21.8838 38.6153 21.8656 38.6335 21.8401 38.6563C21.8136 38.68 21.7779 38.6948 21.7327 38.7014L21.4699 38.4333L21.5526 38.4285L21.5962 38.4036L21.6159 38.3891L21.6403 38.3692L21.6648 38.3395L21.6841 38.2747L21.694 38.235V37.3622H20.9246V38.6436L22.2144 39.4467L22.263 39.4963L22.2979 39.5459C22.3109 39.5625 22.3188 39.5856 22.3221 39.6154L22.3316 39.674C22.3316 39.7569 22.3058 39.827 22.2538 39.8863C22.2343 39.9155 22.2035 39.9408 22.1612 39.9606C22.1387 39.9772 22.0995 39.9904 22.0446 40L21.8155 39.7427L21.8937 39.6976L21.9279 39.6832L21.9962 39.6233C22.0021 39.6203 22.0088 39.6053 22.0151 39.5789L21.991 39.5592L21.9619 39.5343L21.9279 39.4996L20.6074 38.7059V37.3622H20.4272V37.0799H22.3708V37.3375ZM24.8789 37.3375H24.8543V37.3622H23.8025V38.0864L23.9194 38.0169C23.9681 37.9868 24.015 37.9657 24.0608 37.9524L24.1922 37.9275C24.2767 37.9275 24.3482 37.9458 24.4066 37.9822C24.5395 38.0421 24.6368 38.1653 24.6988 38.3539C24.7214 38.4333 24.7325 38.5161 24.7325 38.6021C24.7325 38.7477 24.7135 38.871 24.6745 38.974C24.6582 39.0104 24.6368 39.0579 24.611 39.1182C24.52 39.3192 24.4177 39.4449 24.3041 39.4946L24.0653 39.2364C24.1173 39.2364 24.1589 39.2208 24.1898 39.1894C24.2205 39.1579 24.2672 39.0964 24.3287 39.0037C24.3837 38.921 24.4309 38.8271 24.4697 38.7212C24.5055 38.6253 24.5233 38.5359 24.5233 38.4532L24.5087 38.359C24.4829 38.2895 24.4476 38.2477 24.4038 38.2323C24.3602 38.2182 24.3188 38.2106 24.28 38.2106C24.2442 38.2106 24.1986 38.2191 24.1431 38.2374C24.0882 38.2555 24.0283 38.291 23.9635 38.344L23.8903 38.4036L23.8025 38.473V39.7569L23.5004 39.5294V38.7212L23.4373 38.7609L23.3632 38.7956L23.1774 38.875L23.0404 38.8949C22.9689 38.8949 22.8895 38.875 22.8007 38.835C22.6702 38.7763 22.5629 38.6592 22.4777 38.4847C22.4519 38.4053 22.4387 38.325 22.4387 38.2423C22.4387 38.1245 22.4731 38.0219 22.5412 37.9371C22.567 37.904 22.5946 37.8739 22.6242 37.8478C22.7343 37.772 22.8332 37.7262 22.921 37.7097C22.9663 37.6997 23.0067 37.6964 23.0428 37.6997H23.1206L23.218 37.7142L23.3596 38.0265H23.2623L23.1889 38.0115H23.1353C23.0542 38.0115 22.9925 38.0202 22.9502 38.0364C22.8919 38.043 22.8221 38.0749 22.7408 38.1315C22.7213 38.1439 22.7018 38.1653 22.6823 38.1956C22.6627 38.2482 22.6531 38.2964 22.6531 38.3395C22.6531 38.4553 22.6904 38.5326 22.7658 38.5723L22.8536 38.6021L22.9714 38.612C22.9944 38.6153 23.0416 38.6051 23.1136 38.5822C23.1531 38.569 23.2327 38.5326 23.3536 38.473C23.3536 38.473 23.3683 38.4631 23.3978 38.4433L23.5004 38.3738V37.3622H22.3272V37.0799H24.8789V37.3375ZM29.1309 37.3375H29.1063V37.3622H28.0545V38.0864L28.1712 38.0169C28.22 37.9868 28.2668 37.9657 28.3127 37.9524L28.4437 37.9275C28.5281 37.9275 28.6003 37.9458 28.6583 37.9822C28.7915 38.0421 28.8889 38.1653 28.9503 38.3539C28.9734 38.4333 28.9845 38.5161 28.9845 38.6021C28.9845 38.7477 28.9653 38.871 28.9262 38.974C28.9099 39.0104 28.8889 39.0579 28.8627 39.1182C28.7719 39.3192 28.6697 39.4449 28.556 39.4946L28.3173 39.2364C28.3693 39.2364 28.4109 39.2208 28.4412 39.1894C28.4721 39.1579 28.5185 39.0964 28.5801 39.0037C28.6355 38.921 28.6824 38.8271 28.7217 38.7212C28.7575 38.6253 28.7753 38.5359 28.7753 38.4532L28.7602 38.359C28.7344 38.2895 28.6995 38.2477 28.6559 38.2323C28.6117 38.2182 28.5705 38.2106 28.5315 38.2106C28.4963 38.2106 28.4502 38.2191 28.395 38.2374C28.3402 38.2555 28.2798 38.291 28.2148 38.344L28.1418 38.4036L28.0545 38.473V39.7569L27.7524 39.5294V38.7212L27.6891 38.7609L27.6151 38.7956L27.4291 38.875L27.2921 38.8949C27.2207 38.8949 27.1414 38.875 27.0527 38.835C26.9217 38.7763 26.8149 38.6592 26.7296 38.4847C26.7037 38.4053 26.6904 38.325 26.6904 38.2423C26.6904 38.1245 26.7246 38.0219 26.7929 37.9371C26.8191 37.904 26.8464 37.8739 26.8757 37.8478C26.9862 37.772 27.0852 37.7262 27.1727 37.7097C27.2183 37.6997 27.2587 37.6964 27.2945 37.6997H27.3726L27.47 37.7142L27.6109 38.0265H27.5136L27.4406 38.0115H27.3874C27.3061 38.0115 27.244 38.0202 27.2021 38.0364C27.1436 38.043 27.0739 38.0749 26.9929 38.1315C26.9734 38.1439 26.9539 38.1653 26.9342 38.1956C26.9147 38.2482 26.9048 38.2964 26.9048 38.3395C26.9048 38.4553 26.9421 38.5326 27.0178 38.5723L27.1056 38.6021L27.223 38.612C27.2457 38.6153 27.2936 38.6051 27.3651 38.5822C27.4051 38.569 27.4845 38.5326 27.6056 38.473C27.6056 38.473 27.62 38.4631 27.6493 38.4433L27.7524 38.3738V37.3622H26.5785V37.0799H29.1309V37.3375ZM30.996 37.3375H30.9715V37.3622H30.3775V38.0021H29.7148C29.6823 38.0021 29.6438 38.0115 29.5985 38.0319C29.566 38.0421 29.5347 38.0669 29.5056 38.1059C29.4798 38.1291 29.4587 38.1653 29.4421 38.2149L29.423 38.3494C29.423 38.4913 29.4683 38.6087 29.5593 38.7014C29.65 38.7935 29.7636 38.8404 29.9001 38.8404L30.0169 38.8254L30.1001 38.7956L30.0648 38.7303L30.044 38.6171L30.0585 38.5227C30.0676 38.4962 30.085 38.4664 30.1114 38.4333C30.1242 38.4168 30.1533 38.3969 30.1986 38.3738L30.3101 38.3539C30.3522 38.3539 30.3847 38.3638 30.4075 38.3837C30.4424 38.4036 30.4682 38.4285 30.4845 38.4582L30.538 38.5575L30.5575 38.6617C30.5575 38.7742 30.5252 38.871 30.4602 38.9541L30.4212 39.0037L30.3775 39.0384L30.7572 39.589L30.4698 39.6733L30.241 39.0826L30.1338 39.1128L30.0169 39.1224C29.9324 39.1293 29.8334 39.1058 29.7199 39.0529C29.5672 38.9863 29.4409 38.871 29.3402 38.7047C29.249 38.5558 29.2036 38.3894 29.2036 38.2067C29.2036 38.0571 29.2329 37.9404 29.2905 37.8544C29.3102 37.8102 29.3472 37.7753 29.4024 37.7494C29.4409 37.7224 29.491 37.7097 29.5528 37.7097H30.0756V37.3622H29.0432V37.0799H30.996V37.3375ZM32.983 37.3375H32.9585V37.3622H32.6273V39.7569L32.3355 39.5243V38.5128H31.5805V38.7108C31.5805 38.7907 31.5497 38.8332 31.4885 38.8404C31.3953 38.8404 31.2888 38.7751 31.1694 38.6451C31.1316 38.6051 31.0892 38.545 31.0447 38.4643C31.0155 38.4185 31.0008 38.3746 31.0008 38.3349C31.0008 38.2679 31.0329 38.2299 31.0984 38.22H31.2786V37.3622H30.8401V37.0799H32.983V37.3375ZM32.3594 38.2452H32.3355V37.3622H31.5805V38.22H32.3594V38.2452ZM36.4364 38.3341H36.4118L36.4364 38.3548L36.3487 38.4011L36.2666 38.4326L36.168 38.4532H36.091C35.9167 38.4631 35.7711 38.3969 35.6551 38.2548C35.6457 38.2943 35.6327 38.3259 35.6165 38.3494C35.5612 38.4615 35.4954 38.5467 35.4172 38.6063L35.3062 38.6707L35.3159 38.6902L35.3997 38.8094L35.5075 38.9581L35.6909 39.1972L35.7838 39.3059L35.9196 39.4449C35.9458 39.478 35.9831 39.5062 36.032 39.5294L35.7982 39.6682L35.6374 39.4897L35.5156 39.3308L35.3941 39.1572L35.0969 38.6761L35.0092 38.5227L34.9067 38.3193L34.8627 38.1559L34.8679 38.1059L34.9019 38.0611L34.9505 38.0319L34.9996 38.0219L35.3498 38.0169V37.3622H34.7023V37.0799H36.168V37.3622H35.6668V38.1261L35.8077 38.1808L35.9638 38.2001C36.0969 38.2001 36.2122 38.1688 36.3093 38.1059C36.3391 38.0897 36.3808 38.055 36.4364 38.0021V38.3341ZM38.1112 37.3375H38.0871V37.3622H37.707V39.7569L37.4056 39.5294V38.8552L37.3809 38.8696L37.254 38.9342L37.0643 39.014L36.9134 39.033C36.7218 39.033 36.5579 38.9574 36.4214 38.8055C36.3956 38.7754 36.3709 38.7373 36.3487 38.6911L36.2753 38.5575C36.2462 38.4615 36.2312 38.3623 36.2312 38.2597C36.2312 38.0256 36.3487 37.8619 36.5824 37.7692C36.6535 37.7394 36.79 37.713 36.9916 37.6898C37.0432 37.6832 37.0985 37.6795 37.1568 37.6795L37.3423 37.9822H37.177C37.0935 37.976 37.0159 37.9838 36.945 38.0066C36.7805 38.0223 36.6479 38.0881 36.5478 38.2026C36.5059 38.2618 36.4845 38.3283 36.4845 38.4036C36.4845 38.5112 36.5141 38.6012 36.5719 38.6719C36.5877 38.6918 36.6217 38.7171 36.6737 38.746C36.7285 38.7622 36.7865 38.7709 36.8484 38.7709C36.9127 38.7709 36.9734 38.7592 37.0294 38.7353C37.0862 38.7129 37.1556 38.6716 37.2354 38.612C37.3007 38.5657 37.3423 38.5277 37.3614 38.498C37.3842 38.4781 37.3989 38.4582 37.4056 38.4387V37.3622H36.1003V37.0799H38.1112V37.3375ZM39.5385 37.3375H39.514V37.3622H38.0045V37.0799H39.5385V37.3375ZM39.7914 38.7754H39.7672L39.7867 38.7907C39.7768 38.8094 39.751 38.8313 39.7086 38.8536L39.5676 38.9318C39.5223 38.9541 39.4473 38.9872 39.3433 39.0288C39.2786 39.0489 39.2171 39.0579 39.1584 39.0579C38.9798 39.0579 38.8178 39.0083 38.6717 38.9106C38.4994 38.7956 38.4134 38.6563 38.4134 38.4953L38.4229 38.4069C38.4329 38.3307 38.4654 38.2588 38.5206 38.1893C38.5531 38.1409 38.5935 38.1029 38.6421 38.077H38.1942L38.0676 37.7642H39.4554L39.5821 38.077H39.0951C39.0857 38.077 39.0595 38.0881 39.0174 38.1125C38.9654 38.1423 38.9199 38.1766 38.8809 38.2134L38.7885 38.2994L38.7203 38.3804L38.6813 38.4715C38.6746 38.4854 38.6717 38.5119 38.6717 38.5525C38.6717 38.593 38.6796 38.6352 38.6958 38.68C38.7086 38.6998 38.7348 38.7216 38.7736 38.7453L38.8809 38.7754H39.0658C39.1666 38.782 39.2819 38.7477 39.4116 38.6707C39.4603 38.6436 39.5012 38.6171 39.5335 38.5906L39.6795 38.4697C39.7056 38.4499 39.7426 38.3995 39.7914 38.3193V38.7754ZM41.7156 37.3375H41.6911V37.3622H41.2041V37.7043C41.298 37.784 41.3806 37.895 41.4523 38.0364C41.4846 38.0993 41.5093 38.1662 41.5255 38.2374C41.5418 38.3085 41.5496 38.3788 41.5496 38.4483C41.5496 38.7059 41.4735 38.9271 41.3214 39.1128C41.1524 39.3176 40.936 39.4202 40.6732 39.4202C40.3713 39.4202 40.1238 39.3465 39.9308 39.1993C39.7375 39.0529 39.641 38.8536 39.641 38.6021C39.641 38.5558 39.647 38.5128 39.66 38.473C39.7056 38.3837 39.7672 38.3142 39.8451 38.2646L39.9474 38.2106L39.66 37.9474V37.3622H39.4608V37.0799H41.7156V37.3375ZM41.3259 38.3093C41.3259 38.1742 41.303 38.077 41.2576 38.0169C41.2123 37.957 41.1504 37.9275 41.0727 37.9275C41.0333 37.9275 41.0027 37.9342 40.9801 37.9474C40.9444 37.9545 40.9119 38.0021 40.883 38.0913L40.8679 38.1851C40.8679 38.2581 40.883 38.3292 40.9119 38.3987C40.954 38.4751 41.0043 38.5344 41.0631 38.5774C41.0727 38.5906 41.0987 38.6105 41.1408 38.6364L41.248 38.7059L41.2576 38.6617L41.2672 38.6418L41.2771 38.6171L41.3112 38.4781C41.3214 38.4387 41.3259 38.3821 41.3259 38.3093ZM41.1553 38.8498C41.123 38.8432 41.0888 38.8284 41.053 38.8055C40.8842 38.7096 40.7559 38.5822 40.6683 38.4234C40.6229 38.344 40.6004 38.2646 40.6004 38.1851C40.6004 38.0731 40.6308 37.976 40.6927 37.8929C40.7285 37.8399 40.7639 37.8035 40.7997 37.784L40.9266 37.7097V37.3622H39.9624V37.8978L40.1263 38.1261H40.1455L40.2132 38.1008L40.2859 38.081L40.3583 38.0669L40.5273 38.359C40.4597 38.359 40.4016 38.3692 40.3535 38.3891C40.3309 38.3921 40.2763 38.4119 40.1888 38.4483C40.0375 38.5112 39.9558 38.6 39.9428 38.7162C39.9428 38.7956 39.954 38.8585 39.9768 38.9045C40.0285 39.0104 40.1299 39.0914 40.2823 39.1476C40.3566 39.1675 40.4378 39.177 40.5247 39.177C40.6503 39.177 40.7884 39.119 40.9369 39.0037L41.058 38.9099L41.1553 38.8205V38.8498ZM43.7709 37.3375H43.7462V37.3622H43.3716V39.7522L43.0695 39.5492V38.0864H42.27C42.2439 38.0864 42.2114 38.0942 42.1724 38.1108L42.1003 38.1808C42.0776 38.2134 42.0613 38.2468 42.0514 38.2795L42.0367 38.4036C42.0367 38.5161 42.0596 38.6319 42.1049 38.751C42.1602 38.8924 42.2363 39.0203 42.334 39.1323L42.4555 39.2716C42.488 39.3077 42.558 39.3739 42.6654 39.4698L42.4507 39.574C42.3958 39.5574 42.3455 39.5144 42.3 39.4449L42.0854 39.1163C41.9785 38.9508 41.899 38.7968 41.8466 38.6563C41.795 38.5152 41.7688 38.3921 41.7688 38.2862C41.7688 38.1766 41.7868 38.0873 41.8225 38.0178C41.8319 37.9908 41.8487 37.9648 41.8713 37.9387L41.9291 37.8631L41.9973 37.8086L42.0605 37.7741L42.1233 37.7642H43.0695V37.3622H41.6374V37.0799H43.7709V37.3375ZM44.6083 37.3375H44.584V37.3622H44.2038V39.7569L43.9022 39.5294V37.3622H43.6049V37.0799H44.6083V37.3375ZM48.8309 37.3375H48.8064V37.3622H47.7545V38.0864L47.8713 38.0169C47.9201 37.9868 47.9669 37.9657 48.0128 37.9524L48.1442 37.9275C48.2287 37.9275 48.3002 37.9458 48.3585 37.9822C48.4916 38.0421 48.5888 38.1653 48.6507 38.3539C48.6733 38.4333 48.6846 38.5161 48.6846 38.6021C48.6846 38.7477 48.6654 38.871 48.6263 38.974C48.6102 39.0104 48.5888 39.0579 48.5631 39.1182C48.4721 39.3192 48.3696 39.4449 48.2562 39.4946L48.0174 39.2364C48.0692 39.2364 48.111 39.2208 48.1418 39.1894C48.1724 39.1579 48.2188 39.0964 48.2807 39.0037C48.3356 38.921 48.3825 38.8271 48.4217 38.7212C48.4574 38.6253 48.4754 38.5359 48.4754 38.4532L48.4607 38.359C48.4345 38.2895 48.3996 38.2477 48.3558 38.2323C48.3118 38.2182 48.2708 38.2106 48.2316 38.2106C48.1962 38.2106 48.1505 38.2191 48.0951 38.2374C48.0402 38.2555 47.9803 38.291 47.9153 38.344L47.8422 38.4036L47.7545 38.473V39.7569L47.4525 39.5294V38.7212L47.3892 38.7609L47.3152 38.7956L47.1297 38.875L46.992 38.8949C46.921 38.8949 46.8416 38.875 46.7528 38.835C46.6221 38.7763 46.5149 38.6592 46.4297 38.4847C46.4038 38.4053 46.3905 38.325 46.3905 38.2423C46.3905 38.1245 46.4249 38.0219 46.4928 37.9371C46.519 37.904 46.5463 37.8739 46.5756 37.8478C46.6863 37.772 46.7853 37.7262 46.8731 37.7097C46.9183 37.6997 46.9586 37.6964 46.9949 37.6997H47.0727L47.1699 37.7142L47.3116 38.0265H47.2142L47.1405 38.0115H47.0873C47.0062 38.0115 46.9441 38.0202 46.9024 38.0364C46.8435 38.043 46.774 38.0749 46.693 38.1315C46.6733 38.1439 46.6538 38.1653 46.6343 38.1956C46.6146 38.2482 46.6052 38.2964 46.6052 38.3395C46.6052 38.4553 46.6423 38.5326 46.7178 38.5723L46.8055 38.6021L46.9234 38.612C46.9463 38.6153 46.9937 38.6051 47.0652 38.5822C47.1052 38.569 47.1846 38.5326 47.3056 38.473C47.3056 38.473 47.3203 38.4631 47.3494 38.4433L47.4525 38.3738V37.3622H46.2791V37.0799H48.8309V37.3375ZM49.6537 37.3375H49.6296V37.3622H49.3032V39.7569L49.0011 39.5294V37.3622H48.7479V37.0799H49.0794C49.0726 37.0435 49.058 36.9954 49.0353 36.9355C49.0127 36.8762 48.9641 36.789 48.8892 36.6733C48.7332 36.4318 48.5725 36.3109 48.4071 36.3109C48.3681 36.3109 48.3276 36.3192 48.2851 36.3358C48.2237 36.3759 48.1784 36.4351 48.1488 36.5145C48.136 36.5542 48.1264 36.6105 48.1197 36.6831L48.1342 36.8122L48.1733 36.9313C48.1832 36.9544 48.2058 36.986 48.2415 37.0248C48.2673 37.0546 48.3127 37.091 48.378 37.1344H48.1733C48.1474 37.1248 48.1212 37.103 48.0951 37.0699L47.9977 36.9355C47.9491 36.8693 47.9117 36.7998 47.8859 36.7282C47.86 36.6566 47.8474 36.5913 47.8474 36.5317C47.8474 36.4649 47.8585 36.4002 47.8814 36.3379C47.8975 36.2936 47.9279 36.2407 47.9736 36.1778C48.0157 36.1318 48.0677 36.0947 48.1296 36.0686C48.1912 36.0418 48.2545 36.0286 48.3193 36.0286C48.5563 36.0286 48.7806 36.1965 48.9915 36.5317C49.0435 36.6145 49.1101 36.7312 49.1913 36.8825C49.2298 36.9553 49.2527 37.0206 49.2596 37.0799H49.6537V37.3375ZM54.2323 37.3375H54.2079V37.3573H53.8813V39.7569L53.5795 39.5243V38.5028L53.5645 38.5119L53.5018 38.5401C53.4926 38.5425 53.4663 38.5512 53.4243 38.5674H53.3374C53.2468 38.5741 53.1551 38.5483 53.0612 38.4905C53.0357 38.4772 52.9929 38.4516 52.9358 38.4126L52.8478 38.3506L52.7366 38.2588L52.7707 38.225L52.8389 38.3395L52.9072 38.4433L53.0097 38.6469L53.0434 38.7805C53.0434 38.9325 52.9982 39.0645 52.9072 39.177C52.8357 39.2629 52.7351 39.3242 52.6054 39.3606C52.5628 39.3739 52.5108 39.3805 52.4494 39.3805C52.2516 39.3805 52.0712 39.2849 51.9088 39.0931C51.821 38.9872 51.7093 38.8022 51.5725 38.5377C51.5143 38.4285 51.4717 38.3109 51.4461 38.1851C51.4331 38.1261 51.4265 38.0749 51.4265 38.0319L51.5968 37.942C51.5968 38.1141 51.6573 38.3175 51.7771 38.5525C51.8621 38.7212 51.9552 38.844 52.0575 38.9219C52.1594 38.9992 52.2703 39.0384 52.3905 39.0384C52.5079 39.0384 52.6001 38.9999 52.6684 38.9247C52.7106 38.875 52.7416 38.8106 52.7614 38.7312C52.7642 38.7108 52.7659 38.6815 52.7659 38.6418C52.7659 38.5591 52.7544 38.4872 52.7317 38.426C52.7091 38.3647 52.6737 38.3126 52.6246 38.2696L52.5079 38.3193L52.3719 38.3395L52.2446 38.3142L52.0599 38.0364H52.1671C52.3882 38.0364 52.5449 37.9798 52.6396 37.8659C52.6781 37.8189 52.6976 37.7683 52.6976 37.7142C52.6976 37.6543 52.6911 37.6038 52.6781 37.564C52.6651 37.5235 52.6396 37.4864 52.6001 37.4533C52.5611 37.4028 52.4816 37.3705 52.3616 37.3573L52.2597 37.3681L52.1526 37.4045C52.0486 37.4392 51.9786 37.4864 51.9428 37.5459L51.7723 37.258L51.8601 37.2039L51.9233 37.1692C51.9819 37.1361 52.04 37.1124 52.0989 37.0997L52.2159 37.0745H52.2889C52.3734 37.0745 52.4393 37.0926 52.4884 37.129C52.6473 37.2021 52.7772 37.3375 52.8779 37.536C52.9202 37.6187 52.9414 37.7043 52.9414 37.7936V37.9073C52.9382 37.938 52.9219 37.9868 52.8926 38.0566L52.8194 38.1409L52.7756 38.1808L52.8478 38.235L52.9453 38.2747L53.042 38.3044L53.1534 38.3093H53.2115L53.2642 38.2994L53.3135 38.2895L53.3715 38.2696L53.4823 38.2299L53.5795 38.1695V37.3573H53.0766L52.9219 37.0745H54.2323V37.3375ZM55.1284 37.3375H55.1036V37.3622H54.7238V39.7569L54.4215 39.5294V37.3622H54.1251V37.0799H55.1284V37.3375ZM54.6896 37.0546C54.6961 37.0682 54.6961 37.076 54.6896 37.0799C54.6863 37.0865 54.6689 37.0901 54.6361 37.0901L54.6751 37.129L54.5166 37.1307L54.4484 37.0269L53.9767 36.4251C53.9545 36.3987 53.9317 36.3804 53.909 36.3706L53.8065 36.3508H53.3402L53.1705 35.9834H53.7253C53.7708 35.9834 53.805 35.9876 53.8277 35.9937L53.9252 36.0037L53.9545 36.0087C53.9767 36.0124 53.9918 36.0174 53.998 36.0235L54.1641 36.2572L54.3526 36.5401L54.42 36.6343L54.4788 36.7294L54.5459 36.8287L54.6092 36.933L54.6896 37.0546ZM56.9055 37.3375H56.8816V37.3622H56.2092L56.2435 37.5409L56.2624 37.7286C56.2624 38.0629 56.1341 38.3722 55.8782 38.6599C55.9107 38.7423 55.9559 38.8238 56.0123 38.9027L56.1894 39.1624L56.4039 39.4052C56.4493 39.4582 56.5339 39.5261 56.6573 39.6083L56.4137 39.7522L56.2479 39.5492L56.1117 39.3606L55.9559 39.1323L55.8392 38.9541L55.6149 38.607L55.5078 38.4135L55.4396 38.2696L55.4156 38.1357C55.4156 38.0603 55.4541 38.0219 55.5321 38.0219L55.9217 38.0169V37.3622H55.0353V37.0799H56.9055V37.3375Z" fill="#010101"/>
<path d="M25.6241 26.2292H25.593L25.6241 26.256L25.5114 26.3152L25.4058 26.3558L25.2797 26.3823H25.1807C24.9564 26.395 24.7694 26.3102 24.6199 26.1275C24.6076 26.178 24.5908 26.2189 24.5701 26.2482C24.499 26.3929 24.4146 26.5027 24.3144 26.5791L24.1713 26.6618L24.1842 26.6875L24.2913 26.84L24.4304 27.0314L24.6663 27.3383L24.785 27.4791L24.9607 27.6576C24.9939 27.6999 25.0418 27.7363 25.1046 27.7661L24.804 27.9443L24.5972 27.7147L24.4408 27.5104L24.2844 27.288L23.9021 26.6693L23.7893 26.4717L23.6578 26.2102L23.6018 25.9998L23.608 25.9359L23.6518 25.879L23.7146 25.8403L23.7769 25.8276L24.2278 25.8213V24.9799H23.395V24.6164H25.2797V24.9799H24.6346V25.9615L24.8163 26.0317L25.0168 26.0571C25.1879 26.0571 25.3364 26.0169 25.4614 25.9359C25.499 25.9148 25.5529 25.8702 25.6241 25.8021V26.2292ZM27.7784 24.948H27.7468V24.9799H27.2585V28.0596L26.8704 27.7661V26.8984L26.8391 26.9182L26.6762 27.001L26.4319 27.1027L26.2381 27.1283C25.9916 27.1283 25.7805 27.0307 25.6055 26.8351C25.5718 26.797 25.5406 26.7482 25.5114 26.6883L25.4173 26.5162C25.38 26.3929 25.3613 26.2656 25.3613 26.1338C25.3613 25.8318 25.5114 25.6217 25.8121 25.5027C25.9036 25.4641 26.0793 25.4305 26.338 25.4007C26.4049 25.3921 26.4755 25.388 26.5508 25.388L26.7889 25.7767H26.577C26.4694 25.7684 26.3691 25.7788 26.2785 25.8086C26.0667 25.829 25.8966 25.9126 25.7681 26.0604C25.7141 26.1357 25.6869 26.2217 25.6869 26.3186C25.6869 26.4567 25.7244 26.5725 25.7983 26.6639C25.8193 26.689 25.8634 26.7214 25.9298 26.7585C25.9998 26.7801 26.0751 26.7909 26.1544 26.7909C26.2369 26.7909 26.3151 26.7751 26.3869 26.7458C26.4603 26.716 26.5488 26.6625 26.6521 26.5864C26.7356 26.527 26.7889 26.4781 26.8143 26.4393C26.8433 26.414 26.8616 26.3889 26.8704 26.3631V24.9799H25.1918V24.6164H27.7784V24.948ZM29.6132 24.948H29.5815V24.9799H27.6404V24.6164H29.6132V24.948ZM29.9387 26.797H29.9071L29.9321 26.816C29.9197 26.84 29.8864 26.8682 29.832 26.8966L29.6507 26.9977C29.592 27.0266 29.4958 27.0687 29.3624 27.1229C29.2787 27.1473 29.1997 27.1605 29.1244 27.1605C28.8948 27.1605 28.6865 27.0964 28.4985 26.9703C28.2771 26.8223 28.1666 26.6436 28.1666 26.4368L28.1789 26.3231C28.1914 26.225 28.233 26.1324 28.3041 26.0435C28.3457 25.9805 28.3981 25.9319 28.461 25.8979H27.8848L27.7218 25.4963H29.5066L29.6693 25.8979H29.043C29.0303 25.8979 28.997 25.9126 28.9426 25.9436C28.876 25.9829 28.8175 26.0266 28.7676 26.0745L28.6485 26.185L28.5611 26.2891L28.5108 26.4055C28.5024 26.4236 28.4985 26.4575 28.4985 26.5096C28.4985 26.5617 28.5087 26.6164 28.5294 26.6739C28.5462 26.6989 28.5799 26.7275 28.6299 26.7569L28.7676 26.797H29.0054C29.1347 26.8054 29.2828 26.7603 29.4502 26.6618C29.5129 26.6267 29.5649 26.5924 29.6065 26.5587L29.7944 26.4037C29.8277 26.3781 29.8761 26.3135 29.9387 26.2102V26.797ZM32.4123 24.948H32.3806V24.9799H31.7545V25.4197C31.8756 25.5217 31.982 25.664 32.0739 25.8467C32.1155 25.9275 32.1468 26.0139 32.1675 26.1049C32.1889 26.1965 32.1991 26.2867 32.1991 26.376C32.1991 26.7073 32.1011 26.9923 31.9047 27.23C31.6874 27.4935 31.4101 27.6257 31.0719 27.6257C30.6838 27.6257 30.3651 27.5311 30.117 27.3416C29.8686 27.1527 29.7442 26.8966 29.7442 26.5737C29.7442 26.5142 29.7526 26.4591 29.7692 26.4079C29.8277 26.2933 29.9071 26.2036 30.0075 26.1399L30.1389 26.0702L29.7692 25.732V24.9799H29.5129V24.6164H32.4123V24.948ZM31.911 26.1979C31.911 26.0233 31.8816 25.8979 31.8233 25.8213C31.7649 25.7445 31.6856 25.7065 31.5851 25.7065C31.5352 25.7065 31.4953 25.7149 31.4661 25.732C31.4204 25.7403 31.3785 25.8021 31.341 25.9169L31.3224 26.0381C31.3224 26.1317 31.341 26.2229 31.3785 26.3128C31.4331 26.41 31.4979 26.4865 31.5728 26.5418C31.5851 26.5587 31.6188 26.584 31.6729 26.618L31.8106 26.7073L31.8233 26.6502L31.8359 26.6246L31.8481 26.5924L31.8922 26.414C31.9047 26.3631 31.911 26.2909 31.911 26.1979ZM31.6916 26.8921C31.6502 26.8834 31.6058 26.8644 31.5602 26.8351C31.3431 26.7118 31.1783 26.5476 31.0656 26.3442C31.0069 26.2424 30.9778 26.1399 30.9778 26.0381C30.9778 25.8936 31.0179 25.7684 31.0969 25.6619C31.1426 25.5938 31.1888 25.5472 31.2351 25.5217L31.3975 25.4261V24.9799H30.1575V25.6684L30.3686 25.9615H30.3936L30.4802 25.9296L30.5739 25.9042L30.6672 25.885L30.8843 26.2614C30.7974 26.2614 30.7221 26.274 30.6608 26.2996C30.6314 26.3041 30.5616 26.3294 30.4489 26.376C30.2547 26.4567 30.1493 26.5716 30.1326 26.7205C30.1326 26.8223 30.1473 26.9029 30.1764 26.9625C30.2432 27.0985 30.3734 27.2027 30.5686 27.2751C30.6648 27.3004 30.7691 27.3132 30.881 27.3132C31.0428 27.3132 31.2201 27.2392 31.411 27.0903L31.5665 26.9687L31.6916 26.8541V26.8921Z" fill="#010101"/>
<path d="M46.798 24.9479H46.7667V24.9796H46.3846L46.1777 24.6162H46.798V24.9479ZM47.1236 26.44H47.0923V26.4715H46.2468V26.8287C46.2468 26.8582 46.2426 26.8817 46.2344 26.8991L46.2096 26.9494L46.1464 26.9885L46.0905 27.0008C46.0361 27.0008 45.9778 26.9771 45.915 26.9305L45.7896 26.8338C45.5851 26.6798 45.4495 26.5128 45.3824 26.3332C45.3658 26.2986 45.3554 26.2559 45.3513 26.205L45.3638 26.1587L45.4011 26.1145L45.4515 26.089L45.5018 26.0828H45.8773V25.7626L45.5829 25.7449C45.4495 25.7363 45.3138 25.6766 45.1761 25.5662C45.0468 25.4688 44.9819 25.3216 44.9819 25.1266C44.9819 25.0372 44.9922 24.9625 45.0132 24.9031C45.0926 24.7289 45.2324 24.6331 45.4329 24.6162H45.5082C45.6543 24.6162 45.8209 24.6737 46.0091 24.7876C46.092 24.8373 46.1528 24.8991 46.1906 24.9702C46.2282 25.0426 46.2468 25.1266 46.2468 25.2231V26.0828H47.1236V26.44ZM45.8773 25.5407V25.0562L45.8583 24.9989L45.8145 24.9479C45.7856 24.9266 45.7607 24.9139 45.7396 24.9096L45.6582 24.897C45.5289 24.897 45.4308 24.9245 45.3638 24.9796C45.3138 25.0222 45.2888 25.0923 45.2888 25.19C45.2888 25.237 45.3054 25.2805 45.3388 25.3209C45.372 25.361 45.4182 25.4005 45.4765 25.4385L45.6459 25.5089L45.8145 25.5343L45.8583 25.5279L45.8773 25.5407ZM47.9249 24.9479H47.8936V24.9796H47.4054V28.0591L47.0172 27.766V24.9796H46.635V24.6162H47.9249V24.9479ZM49.0018 24.9479H48.9708V24.9796H48.4821V28.0591L48.0941 27.766V24.9796H47.7123V24.6162H49.0018V24.9479ZM51.2564 24.9479H51.2247V24.9796H50.3612L50.4048 25.209L50.4298 25.4504C50.4298 25.8793 50.265 26.2778 49.9352 26.6476C49.9781 26.7538 50.0353 26.8582 50.1073 26.9602L50.3357 27.2945L50.6113 27.6062C50.6698 27.674 50.7782 27.7614 50.9366 27.8677L50.6239 28.0528L50.4109 27.7916L50.2358 27.5488L50.0353 27.2556L49.8849 27.0264L49.597 26.5798L49.4593 26.3313L49.3715 26.1463L49.3404 25.9739C49.3404 25.8765 49.3903 25.8273 49.4904 25.8273L49.9913 25.8208V24.9796H48.8516V24.6162H51.2564V24.9479ZM53.7614 24.9479H53.7298V24.9796H53.2477V28.0528L52.8597 27.7916V25.9105H51.8315C51.7982 25.9105 51.7559 25.9213 51.7056 25.9426L51.6134 26.0314C51.5838 26.0742 51.5635 26.1166 51.5505 26.1587L51.5318 26.3184C51.5318 26.4632 51.5611 26.6115 51.6196 26.7646C51.6902 26.9475 51.7886 27.1116 51.9136 27.2556L52.0704 27.4342C52.1123 27.4814 52.2021 27.5657 52.3398 27.689L52.0638 27.8234C51.9932 27.8015 51.929 27.7468 51.8697 27.6574L51.5944 27.234C51.4571 27.0222 51.3542 26.8242 51.288 26.6434C51.2206 26.4623 51.1873 26.3036 51.1873 26.1679C51.1873 26.0265 51.2105 25.9117 51.2564 25.8224C51.2685 25.7881 51.2897 25.7545 51.319 25.7201L51.3929 25.6231L51.4807 25.5533L51.5623 25.5089L51.6427 25.4963H52.8597V24.9796H51.0184V24.6162H53.7614V24.9479Z" fill="#010101"/>
</g>
</g>
<defs>
<clipPath id="clip0_20008056_948">
<rect width="64" height="28" fill="white" transform="translate(18 12)"/>
</clipPath>
</defs>
</svg>
