<svg width="100" height="52" viewBox="0 0 100 52" fill="none" xmlns="http://www.w3.org/2000/svg">
<path d="M0 8C0 3.58172 3.58172 0 8 0H92C96.4183 0 100 3.58172 100 8V44C100 48.4183 96.4183 52 92 52H8C3.58172 52 0 48.4183 0 44V8Z" fill="white"/>
<path fill-rule="evenodd" clip-rule="evenodd" d="M16.3797 26.2071L16.0908 25.9156C16.3545 25.6477 16.6688 25.4349 17.0155 25.2896C17.3622 25.1444 17.7343 25.0696 18.1102 25.0696C18.4861 25.0696 18.8582 25.1444 19.2049 25.2896C19.5516 25.4349 19.8659 25.6477 20.1295 25.9156L19.8354 26.1965C19.6099 25.969 19.3416 25.7884 19.046 25.6651C18.7503 25.5418 18.4332 25.4783 18.1128 25.4783C17.7925 25.4783 17.4754 25.5418 17.1797 25.6651C16.884 25.7884 16.6157 25.969 16.3903 26.1965M17.4079 27.1718L17.1429 26.9068C17.2716 26.774 17.4257 26.6685 17.5959 26.5965C17.7662 26.5244 17.9492 26.4873 18.134 26.4873C18.3189 26.4873 18.5019 26.5244 18.6722 26.5965C18.8424 26.6685 18.9965 26.774 19.1252 26.9068L18.8602 27.1718C18.6686 26.9829 18.4109 26.8764 18.142 26.875C18.0085 26.8739 17.8762 26.8997 17.7529 26.9507C17.6295 27.0016 17.5176 27.0768 17.4238 27.1718M18.142 27.882L17.6279 27.3785C17.7673 27.2463 17.95 27.1691 18.142 27.1612C18.3329 27.1671 18.5145 27.2447 18.6508 27.3785L18.142 27.882ZM18.142 26.1965C18.3659 26.1947 18.5877 26.2389 18.7938 26.3264C18.9999 26.4139 19.1857 26.5429 19.3398 26.7053L19.6605 26.3847C19.4628 26.1803 19.226 26.0178 18.9642 25.9068C18.7025 25.7958 18.421 25.7386 18.1367 25.7386C17.8523 25.7386 17.5709 25.7958 17.3091 25.9068C17.0474 26.0178 16.8106 26.1803 16.6129 26.3847L16.9309 26.708C17.087 26.545 17.2746 26.4156 17.4824 26.3277C17.6902 26.2398 17.9137 26.1951 18.1393 26.1965" fill="#0E6EB6"/>
<path fill-rule="evenodd" clip-rule="evenodd" d="M16.2019 28.2327H19.9783C17.2699 35.0831 16.7982 39.0979 19.5463 38.9919C13.5174 39.347 14.2991 33.4904 16.2046 28.2327" fill="#0E6EB6"/>
<path fill-rule="evenodd" clip-rule="evenodd" d="M19.6733 17.7238C23.1184 12.1109 28.7048 11.5385 32.6852 13.5817C37.1003 15.8528 38.4624 21.1079 37.3626 25.7349C36.3954 29.9432 33.6234 33.7885 30.0405 36.261C27.8473 37.7487 25.3555 38.7391 22.7395 39.1628C24.7452 38.5086 26.54 37.3313 27.9389 35.7522C28.8072 34.8094 29.559 33.7658 30.1783 32.6436C32.2109 29.9035 33.1517 27.219 33.2179 24.8816C33.3504 21.7466 31.9856 18.6354 29.105 17.1964C26.598 15.9217 23.2218 15.988 19.6733 17.7264" fill="#F26329"/>
<path fill-rule="evenodd" clip-rule="evenodd" d="M17.0712 24.055C19.8803 18.4898 25.6654 18.1003 29.0734 20.5092C30.4165 21.4623 31.3603 22.8779 31.7235 24.4843C32.1872 26.5301 31.848 28.6502 31.0795 30.6722C30.3726 32.5535 29.306 34.279 27.9392 35.7523C25.9993 37.8963 23.222 39.5313 20.2539 39.4995C19.0677 39.5058 17.902 39.1908 16.8804 38.5879C18.2823 39.2637 20.4633 39.0252 21.7963 38.4925C24.0011 37.5888 25.7714 35.7152 26.8765 33.6429C28.2413 31.1041 29.3172 27.0177 27.1415 24.6777C25.1672 22.5047 21.2292 21.7626 17.0712 24.0523" fill="#09A14A"/>
<path d="M83.0582 27.2423L83.726 25.3263C83.6465 25.3263 83.5617 25.3263 83.4902 25.3263C83.2825 25.3179 83.0753 25.3524 82.8815 25.4277C82.6877 25.5029 82.5115 25.6172 82.3639 25.7636C82.0681 26.0553 81.8668 26.4293 81.7862 26.8368C81.7279 27.0216 81.7344 27.2208 81.8047 27.4013C81.8385 27.468 81.8912 27.5232 81.9563 27.56C82.0214 27.5967 82.0959 27.6135 82.1704 27.608C82.497 27.5874 82.8087 27.4641 83.0609 27.2556M85.1809 24.4756L83.7817 28.403H82.6448L82.7746 28.0294C82.4328 28.3023 82.0137 28.4608 81.5768 28.4825C81.4037 28.49 81.2321 28.4485 81.0816 28.3627C80.9311 28.2769 80.8078 28.1503 80.7261 27.9976C80.5324 27.6133 80.4935 27.1694 80.6175 26.7573C80.7606 26.0592 81.1524 25.4367 81.7199 25.0056C82.3488 24.5303 83.124 24.2894 83.9115 24.3246C84.3341 24.3201 84.7557 24.3655 85.1677 24.4597M80.5353 24.4094L79.1175 28.403H77.9806L79.4037 24.4094H80.5353ZM79.7615 23.2911C79.7941 23.1237 79.8823 22.9723 80.0116 22.8612C80.141 22.7501 80.304 22.6859 80.4744 22.6789C80.547 22.6769 80.6191 22.6919 80.6849 22.7228C80.7507 22.7536 80.8084 22.7994 80.8533 22.8564C80.8995 22.9177 80.9307 22.9889 80.9445 23.0643C80.9583 23.1398 80.9543 23.2174 80.9328 23.2911C80.8947 23.4648 80.8018 23.6218 80.6678 23.7389C80.538 23.8464 80.3753 23.9062 80.2067 23.9085C80.1357 23.9104 80.0651 23.8961 80.0004 23.8667C79.9356 23.8374 79.8784 23.7937 79.8331 23.7389C79.7896 23.6738 79.7612 23.5999 79.7497 23.5224C79.7382 23.445 79.7441 23.366 79.7668 23.2911M76.2024 27.4623L76.9312 25.3873C76.8375 25.3721 76.7426 25.365 76.6477 25.3661C76.2745 25.3582 75.9102 25.48 75.6168 25.7106C75.3377 25.9241 75.1425 26.229 75.0656 26.5718C75.0318 26.6876 75.0254 26.8097 75.0471 26.9284C75.0687 27.0471 75.1177 27.1591 75.1901 27.2556C75.2778 27.3485 75.3852 27.4206 75.5045 27.4664C75.6237 27.5123 75.7518 27.5308 75.8791 27.5206C75.9881 27.5144 76.0963 27.4985 76.2024 27.4729M79.1175 22.3927L77.0213 28.358C76.5797 28.4399 76.1321 28.4851 75.683 28.4931C75.0019 28.4931 74.5011 28.3182 74.1778 27.9631C73.8545 27.608 73.7644 27.1495 73.8942 26.5665C74.0282 25.9381 74.3768 25.376 74.88 24.9765C75.3996 24.5426 76.0584 24.3111 76.7351 24.3246C76.9178 24.3276 77.1001 24.3417 77.281 24.367L77.978 22.3821L79.1175 22.3927ZM71.3581 24.4094L71.1858 24.8572C71.5952 24.5416 72.0902 24.3569 72.6063 24.3272C72.7387 24.3148 72.872 24.3385 72.9919 24.3959C73.1119 24.4533 73.214 24.5423 73.2873 24.6532C73.3575 24.7925 73.3995 24.9442 73.4108 25.0997C73.4222 25.2553 73.4028 25.4115 73.3536 25.5595C73.3287 25.6808 73.2959 25.8003 73.2556 25.9173L72.3837 28.4057H71.2521L72.0922 26.0206C72.1232 25.9538 72.1464 25.8835 72.1611 25.8113C72.2406 25.4164 72.1611 25.223 71.9305 25.223C71.7 25.223 71.2998 25.4217 70.8466 25.8378L69.9376 28.411H68.8008L70.2212 24.4094H71.3581ZM69.7415 22.3927L67.6215 28.4136H66.3971L68.5172 22.3927H69.7415ZM65.0244 22.3927L62.9043 28.4136H61.778L63.8981 22.3927H65.0244ZM59.9892 27.2529L60.6518 25.3369C60.5723 25.3369 60.4874 25.3369 60.4159 25.3369C60.209 25.3286 60.0026 25.3632 59.8097 25.4384C59.6168 25.5137 59.4415 25.628 59.2949 25.7742C59.0015 26.059 58.7987 26.424 58.7119 26.8236C58.6505 27.0083 58.6589 27.2092 58.7357 27.3881C58.7683 27.4545 58.8201 27.5098 58.8843 27.5466C58.9485 27.5834 59.0223 27.6002 59.0961 27.5948C59.423 27.5721 59.735 27.449 59.9892 27.2423M62.1093 24.4624L60.718 28.403H59.5864L59.7189 28.0294C59.3766 28.2998 58.9593 28.458 58.5237 28.4825C58.3476 28.4931 58.1721 28.4534 58.0178 28.368C57.8634 28.2826 57.7365 28.155 57.6519 28.0002C57.4623 27.6148 57.4235 27.1725 57.5432 26.76C57.6854 26.0615 58.0774 25.4387 58.6456 25.0083C59.2765 24.5328 60.0533 24.2919 60.8426 24.3272C61.2642 24.3232 61.6849 24.3685 62.096 24.4624M57.1722 23.5561L56.8383 24.4094H57.6731L57.3312 25.2839H56.4911L55.9929 26.5877C55.9493 26.6862 55.9173 26.7893 55.8975 26.8951C55.8153 27.2529 55.8975 27.4252 56.1281 27.4252C56.3752 27.3895 56.6134 27.3077 56.8303 27.184L56.5998 28.244C56.281 28.4077 55.9297 28.4983 55.5715 28.509C55.4187 28.5198 55.2656 28.4917 55.1266 28.4273C54.9875 28.3629 54.8671 28.2643 54.7765 28.1407C54.6949 27.9953 54.6432 27.835 54.6246 27.6694C54.6059 27.5037 54.6206 27.3359 54.6679 27.1761C54.7023 27.0621 54.7368 26.9455 54.7765 26.8289L55.3834 25.2998H54.6149L54.9488 24.4253H55.7226L56.0433 23.5799L57.1722 23.5561ZM54.4029 24.4094L52.9877 28.403H51.8561L53.266 24.4094H54.4029ZM53.6211 23.2911C53.6603 23.1214 53.7532 22.969 53.8861 22.8564C54.0141 22.7465 54.1759 22.6838 54.3446 22.6789C54.4176 22.6765 54.4902 22.6913 54.5565 22.7222C54.6228 22.753 54.6809 22.799 54.7262 22.8564C54.769 22.9193 54.7982 22.9905 54.8118 23.0653C54.8255 23.1402 54.8234 23.2171 54.8057 23.2911C54.7633 23.4632 54.6711 23.6189 54.5407 23.7389C54.4105 23.844 54.2494 23.9036 54.0822 23.9085C54.0109 23.9121 53.9398 23.8985 53.8748 23.869C53.8098 23.8395 53.7528 23.7949 53.7085 23.7389C53.6629 23.6748 53.632 23.6014 53.6183 23.5239C53.6045 23.4465 53.6082 23.3669 53.629 23.2911M49.9322 29.2882C49.9693 29.1026 49.8182 28.9648 49.4843 28.8933L49.0099 28.7793C48.8539 28.7887 48.7011 28.8274 48.5594 28.8933C48.4743 28.9164 48.3967 28.9617 48.3348 29.0245C48.2729 29.0874 48.2288 29.1655 48.207 29.2511C48.1487 29.532 48.3978 29.6671 48.9596 29.6671C49.1952 29.6769 49.4307 29.6474 49.6566 29.5797C49.7224 29.5585 49.7815 29.5205 49.828 29.4693C49.8745 29.4182 49.9068 29.3557 49.9216 29.2882M49.8739 26.6381C50.2846 26.6381 50.5496 26.3466 50.6689 25.7742C50.69 25.7054 50.6969 25.633 50.6892 25.5615C50.6814 25.49 50.6592 25.4208 50.6238 25.3581C50.582 25.3051 50.5276 25.2633 50.4657 25.2365C50.4037 25.2097 50.336 25.1986 50.2687 25.2044C49.8553 25.2044 49.5824 25.4933 49.4445 26.0842C49.3677 26.4473 49.5028 26.6381 49.8633 26.6381M52.6167 24.4094L52.3146 25.2839H51.7077C51.7493 25.4957 51.7493 25.7135 51.7077 25.9252C51.6154 26.3378 51.3821 26.7052 51.0478 26.964C50.6896 27.2458 50.2447 27.3947 49.7891 27.3854C49.6116 27.3805 49.4341 27.393 49.259 27.4225C49.2115 27.4271 49.1667 27.4472 49.1318 27.4798C49.0968 27.5124 49.0735 27.5556 49.0656 27.6027C49.0523 27.6504 49.0656 27.6928 49.1398 27.7458C49.4 27.823 49.6658 27.8797 49.9348 27.9154C50.4039 27.9976 50.7298 28.1301 50.8835 28.3447C50.9681 28.4567 51.0256 28.5868 51.0513 28.7248C51.0771 28.8627 51.0705 29.0048 51.0319 29.1397C50.8438 30.0037 50.0912 30.4436 48.7767 30.4436C48.3277 30.4771 47.8782 30.3854 47.4782 30.1786C47.3519 30.1084 47.2528 29.998 47.1966 29.865C47.1404 29.7319 47.1304 29.5839 47.1681 29.4445C47.2556 29.0629 47.6319 28.7528 48.305 28.5514C48.1676 28.4886 48.0562 28.38 47.99 28.2442C47.9238 28.1084 47.9068 27.9537 47.9419 27.8068C48.0241 27.4358 48.3342 27.1893 48.8721 27.07C48.6905 26.9454 48.553 26.7665 48.4793 26.559C48.4055 26.3515 48.3992 26.1259 48.4614 25.9146C48.566 25.488 48.8186 25.1124 49.1742 24.8546C49.5486 24.5546 50.0171 24.3969 50.4966 24.4094H52.6167ZM48.1116 24.4094L46.6964 28.4136H45.5648L46.9614 24.4094H48.1116ZM47.3165 23.2911C47.3561 23.1216 47.449 22.9692 47.5815 22.8564C47.7084 22.7482 47.868 22.6856 48.0347 22.6789C48.1076 22.6777 48.1798 22.6931 48.2459 22.7238C48.312 22.7546 48.3703 22.7999 48.4163 22.8564C48.4609 22.9185 48.4906 22.99 48.503 23.0654C48.5154 23.1408 48.5103 23.218 48.4879 23.2911C48.4461 23.4634 48.3538 23.6193 48.2229 23.7389C48.0922 23.8467 47.9285 23.9066 47.7591 23.9085C47.6883 23.911 47.618 23.897 47.5536 23.8675C47.4892 23.8381 47.4325 23.7941 47.3881 23.7389C47.3454 23.6735 47.3163 23.6001 47.3026 23.5231C47.289 23.4461 47.291 23.3672 47.3086 23.2911M42.3185 23.3944L40.9192 27.4066H42.0588C42.3424 27.4116 42.6241 27.36 42.8875 27.2549C43.151 27.1498 43.3909 26.9932 43.5932 26.7944C44.0244 26.3945 44.3184 25.8687 44.4332 25.2919C44.5015 25.0598 44.5172 24.8155 44.4791 24.5767C44.4411 24.3378 44.3502 24.1105 44.2133 23.9112C44.0545 23.726 43.8539 23.5813 43.6281 23.4891C43.4023 23.3969 43.1577 23.3599 42.9147 23.3812L42.3185 23.3944ZM41.4625 22.3927H43.3653C44.3246 22.3927 44.9977 22.6577 45.3873 23.2089C45.7768 23.7601 45.8722 24.4624 45.6867 25.329C45.5113 26.1808 45.0696 26.9548 44.4253 27.5391C43.8598 28.0968 43.0994 28.4123 42.3052 28.4189H39.353L41.4625 22.3927Z" fill="black"/>
<path fill-rule="evenodd" clip-rule="evenodd" d="M39.8303 32.5185H40.4848C40.6996 32.5255 40.9103 32.4581 41.0811 32.3277C41.1516 32.2661 41.2072 32.1892 41.2435 32.1028C41.2797 32.0165 41.2958 31.923 41.2905 31.8295C41.2957 31.7348 41.2796 31.6402 41.2433 31.5526C41.2071 31.465 41.1517 31.3867 41.0811 31.3233C40.9115 31.1914 40.6993 31.1263 40.4848 31.1405H39.8303V32.5185ZM39.8303 32.8816V34.4133H39.4434V30.7695H40.4C40.7384 30.7517 41.0733 30.8448 41.3541 31.0345C41.4711 31.13 41.564 31.2518 41.6253 31.3899C41.6865 31.528 41.7143 31.6786 41.7065 31.8295C41.7125 31.9771 41.6836 32.124 41.6224 32.2584C41.5612 32.3928 41.4693 32.5109 41.3541 32.6033C41.077 32.8021 40.7407 32.9012 40.4 32.8842L39.8303 32.8816Z" fill="black"/>
<path fill-rule="evenodd" clip-rule="evenodd" d="M43.2649 34.061C43.3835 34.0638 43.5015 34.0417 43.611 33.996C43.7206 33.9504 43.8193 33.8822 43.9009 33.796C43.9872 33.7068 44.055 33.6014 44.1005 33.4858C44.146 33.3703 44.1682 33.247 44.1659 33.1229C44.1695 32.999 44.1478 32.8757 44.1023 32.7604C44.0567 32.6452 43.9882 32.5404 43.9009 32.4524C43.8217 32.3618 43.7239 32.2893 43.6141 32.2399C43.5044 32.1906 43.3852 32.1654 43.2649 32.1662C43.1431 32.1635 43.0222 32.1878 42.9109 32.2373C42.7996 32.2867 42.7005 32.3602 42.6209 32.4524C42.534 32.5406 42.4657 32.6455 42.4202 32.7607C42.3746 32.8759 42.3528 32.9991 42.3559 33.1229C42.3519 33.3734 42.4471 33.6154 42.6209 33.796C42.703 33.8838 42.8029 33.9529 42.914 33.9986C43.0252 34.0443 43.1448 34.0656 43.2649 34.061ZM43.2649 34.4214C43.0943 34.4285 42.9241 34.3993 42.7656 34.3358C42.6071 34.2723 42.4639 34.1759 42.3453 34.0531C42.1114 33.794 41.9819 33.4573 41.9819 33.1083C41.9819 32.7593 42.1114 32.4226 42.3453 32.1636C42.5905 31.9232 42.9202 31.7886 43.2636 31.7886C43.6069 31.7886 43.9366 31.9232 44.1818 32.1636C44.413 32.424 44.5407 32.7601 44.5407 33.1083C44.5407 33.4565 44.413 33.7926 44.1818 34.0531C44.064 34.1754 43.9216 34.2714 43.764 34.3349C43.6065 34.3984 43.4373 34.4279 43.2675 34.4214" fill="black"/>
<path fill-rule="evenodd" clip-rule="evenodd" d="M46.0657 33.7615L46.7812 31.7422H47.017L47.7458 33.7589L48.509 31.7793H48.8642L47.8412 34.4161H47.608L46.8925 32.4392L46.169 34.4161H45.9385L44.9155 31.7793H45.3077L46.0657 33.7615Z" fill="black"/>
<path fill-rule="evenodd" clip-rule="evenodd" d="M51.0265 32.7891C51.0032 32.6504 50.9448 32.52 50.8569 32.4102C50.7892 32.3278 50.703 32.2626 50.6054 32.2198C50.5078 32.177 50.4015 32.1578 50.2951 32.1637C50.1929 32.1673 50.0927 32.1928 50.0012 32.2385C49.9098 32.2843 49.8292 32.3491 49.7651 32.4287C49.6838 32.5384 49.6219 32.6612 49.5822 32.7918L51.0265 32.7891ZM49.5292 33.1018C49.5284 33.2253 49.5527 33.3477 49.6005 33.4616C49.6483 33.5754 49.7187 33.6784 49.8075 33.7644C49.8935 33.8553 49.9975 33.9273 50.113 33.9757C50.2285 34.024 50.3528 34.0477 50.4779 34.0453C50.6316 34.0457 50.7842 34.0188 50.9284 33.9658C51.0815 33.9045 51.2245 33.8206 51.3525 33.7167L51.4373 33.6451V34.0532H51.4108C51.2791 34.167 51.1284 34.2567 50.9655 34.3182C50.7229 34.4044 50.4616 34.4238 50.2089 34.3744C49.9562 34.325 49.7215 34.2086 49.5292 34.0373C49.4067 33.9141 49.3108 33.767 49.2474 33.6052C49.184 33.4433 49.1546 33.2702 49.1608 33.0965C49.1468 32.752 49.26 32.4143 49.4788 32.1478C49.5785 32.0282 49.7039 31.9326 49.8457 31.8683C49.9875 31.8041 50.1421 31.7728 50.2977 31.7768C50.4556 31.768 50.6135 31.7945 50.7597 31.8546C50.906 31.9147 51.037 32.0067 51.1431 32.124C51.3417 32.3805 51.4447 32.6981 51.4346 33.0223V33.0753L49.5292 33.1018Z" fill="black"/>
<path fill-rule="evenodd" clip-rule="evenodd" d="M52.6169 32.1648C52.667 32.0716 52.7353 31.9893 52.8176 31.9228C52.9 31.8563 52.9948 31.8069 53.0965 31.7776C53.1982 31.7482 53.3047 31.7394 53.4099 31.7518C53.515 31.7641 53.6166 31.7973 53.7087 31.8495C53.7141 31.8498 53.7193 31.8517 53.7236 31.855C53.7278 31.8583 53.731 31.8629 53.7326 31.868V32.2814C53.7087 32.2682 53.7326 32.2814 53.7008 32.2814C53.1019 31.9475 52.7362 32.4272 52.6169 32.7532V34.4121H52.2485V31.762H52.6169V32.1648Z" fill="black"/>
<path fill-rule="evenodd" clip-rule="evenodd" d="M56.4245 31.152H55.2559V30.8181H57.9854V31.152H56.8168V34.3772H56.4245V31.152Z" fill="black"/>
<path fill-rule="evenodd" clip-rule="evenodd" d="M62.788 31.2068V32.3702H64.2667V32.7147H62.788V34.0158H64.5424V34.363H62.3984V30.8596H64.4735V31.2068H62.788Z" fill="black"/>
<path fill-rule="evenodd" clip-rule="evenodd" d="M65.602 32.1149C65.6902 32.005 65.802 31.9163 65.929 31.8554C66.056 31.7944 66.1951 31.7626 66.336 31.7624C66.4646 31.7576 66.5928 31.7802 66.712 31.8286C66.8313 31.877 66.9389 31.9502 67.0277 32.0433C67.0859 32.1061 67.1366 32.1755 67.1788 32.25L67.2318 32.1626C67.3224 32.0399 67.4401 31.9398 67.5757 31.87C67.7112 31.8001 67.8611 31.7624 68.0135 31.7598C68.1422 31.7546 68.2705 31.777 68.3897 31.8254C68.509 31.8739 68.6166 31.9473 68.7052 32.0407C68.7953 32.1365 68.8652 32.2494 68.9107 32.3728C68.9562 32.4962 68.9765 32.6275 68.9702 32.7588V34.3277H68.586V32.7747C68.5945 32.6009 68.5346 32.4305 68.419 32.3004C68.3639 32.2386 68.2953 32.1902 68.2186 32.159C68.1419 32.1278 68.0591 32.1145 67.9764 32.1202C67.8675 32.1254 67.7611 32.1547 67.6648 32.206C67.5686 32.2573 67.4849 32.3294 67.4199 32.417C67.3708 32.4662 67.328 32.5214 67.2927 32.5813V34.3277H66.9085V32.7747C66.9133 32.6886 66.901 32.6023 66.8724 32.5209C66.8437 32.4395 66.7992 32.3645 66.7415 32.3004C66.6857 32.2394 66.6171 32.1915 66.5405 32.1604C66.464 32.1292 66.3815 32.1155 66.2989 32.1202C66.1893 32.1257 66.0822 32.1551 65.9852 32.2064C65.8881 32.2576 65.8035 32.3295 65.7371 32.417C65.6904 32.4689 65.647 32.5238 65.6073 32.5813V34.3277H65.231V31.8101H65.602V32.1149Z" fill="black"/>
<path d="M69.792 31.8136H70.1763V32.1316C70.2567 31.9964 70.384 31.8955 70.534 31.848C70.7613 31.7569 71.01 31.7334 71.2503 31.7805C71.4905 31.8275 71.7121 31.943 71.8882 32.113C72.1103 32.3812 72.2329 32.7179 72.2353 33.066C72.2377 33.4142 72.1198 33.7525 71.9015 34.0237C71.4403 34.5273 70.7646 34.4133 70.2134 34.1218L70.1763 34.0979V35.3249H69.792V31.8136ZM71.3396 32.272C71.0216 32.0653 70.5579 32.113 70.1842 32.6139V33.6395C70.5738 34.0582 71.0773 34.0979 71.4112 33.8541C71.5282 33.7547 71.621 33.6297 71.6823 33.4889C71.7436 33.348 71.7719 33.195 71.765 33.0416C71.7581 32.8881 71.7162 32.7383 71.6424 32.6035C71.5687 32.4688 71.4651 32.3527 71.3396 32.2641" fill="black"/>
<path d="M45.8325 29.0068H38.5713V29.4255H45.8325V29.0068Z" fill="black"/>
<path d="M84.7146 29.0068H51.6787V29.4255H84.7146V29.0068Z" fill="black"/>
<path fill-rule="evenodd" clip-rule="evenodd" d="M59.0301 33.9931C59.1489 33.9971 59.2671 33.9755 59.3769 33.9298C59.4866 33.8841 59.5852 33.8153 59.6661 33.7281C59.8389 33.548 59.9341 33.3072 59.9311 33.0576C59.933 32.8067 59.8381 32.5646 59.6661 32.3819C59.5867 32.2928 59.4884 32.2228 59.3783 32.1769C59.2682 32.131 59.1492 32.1105 59.0301 32.1169C58.9104 32.1123 58.7911 32.1336 58.6804 32.1793C58.5698 32.2251 58.4703 32.2942 58.3887 32.3819C58.2146 32.5633 58.1193 32.8062 58.1237 33.0576C58.1211 33.1814 58.1431 33.3045 58.1886 33.4196C58.2341 33.5347 58.3022 33.6396 58.3887 33.7281C58.4713 33.8145 58.571 33.8827 58.6814 33.9283C58.7919 33.9739 58.9106 33.996 59.0301 33.9931ZM59.0301 34.3562C58.8596 34.3617 58.6899 34.3319 58.5316 34.2685C58.3733 34.2051 58.2299 34.1095 58.1105 33.9878C57.9902 33.8632 57.896 33.7158 57.8337 33.5542C57.7713 33.3926 57.742 33.2202 57.7474 33.047C57.7395 32.872 57.7676 32.6973 57.83 32.5336C57.8925 32.3699 57.988 32.2209 58.1105 32.0957C58.2291 31.9725 58.3722 31.8756 58.5306 31.8112C58.689 31.7469 58.8592 31.7165 59.0301 31.722C59.2003 31.7157 59.3698 31.7458 59.5275 31.8102C59.6852 31.8747 59.8273 31.972 59.9443 32.0957C60.066 32.2196 60.1613 32.3668 60.2246 32.5284C60.2879 32.6901 60.3179 32.8629 60.3127 33.0364C60.3168 33.2099 60.2864 33.3824 60.2231 33.5439C60.1599 33.7054 60.0651 33.8527 59.9443 33.9772C59.8255 34.0982 59.6829 34.1934 59.5256 34.2568C59.3683 34.3202 59.1996 34.3504 59.0301 34.3456" fill="black"/>
<path fill-rule="evenodd" clip-rule="evenodd" d="M73.9897 33.9929C74.1084 33.9956 74.2263 33.9733 74.3358 33.9277C74.4453 33.8821 74.5441 33.814 74.6258 33.7279C74.7991 33.5482 74.8944 33.3072 74.8908 33.0575C74.8932 32.8064 74.7982 32.5642 74.6258 32.3817C74.544 32.2947 74.4452 32.2253 74.3356 32.1779C74.226 32.1305 74.1079 32.106 73.9884 32.106C73.869 32.106 73.7508 32.1305 73.6412 32.1779C73.5316 32.2253 73.4329 32.2947 73.3511 32.3817C73.2641 32.471 73.1959 32.5768 73.1504 32.6928C73.1049 32.8089 73.083 32.9328 73.0861 33.0575C73.0825 33.1813 73.1041 33.3047 73.1497 33.4199C73.1953 33.5352 73.2638 33.64 73.3511 33.7279C73.4327 33.814 73.5315 33.8821 73.6411 33.9277C73.7506 33.9733 73.8685 33.9956 73.9871 33.9929M73.9871 34.356C73.8165 34.3627 73.6465 34.3334 73.488 34.2699C73.3296 34.2064 73.1863 34.1102 73.0675 33.9876C72.9466 33.8635 72.8521 33.7161 72.7897 33.5544C72.7273 33.3927 72.6983 33.2201 72.7045 33.0469C72.6964 32.8714 72.725 32.6962 72.7884 32.5324C72.8518 32.3686 72.9487 32.2198 73.0728 32.0955C73.1908 31.9715 73.3338 31.8741 73.4924 31.8096C73.6509 31.7452 73.8214 31.7153 73.9924 31.7218C74.1633 31.7165 74.3334 31.7469 74.4918 31.8113C74.6501 31.8756 74.7933 31.9725 74.912 32.0955C75.0307 32.2209 75.1235 32.3687 75.1849 32.5301C75.2463 32.6916 75.2751 32.8636 75.2697 33.0363C75.2789 33.3847 75.1503 33.7227 74.912 33.977C74.7924 34.0986 74.649 34.1941 74.4907 34.2575C74.3325 34.3209 74.1628 34.3508 73.9924 34.3454" fill="black"/>
<path fill-rule="evenodd" clip-rule="evenodd" d="M76.7935 33.7929L77.5117 31.7629H77.7528L78.471 33.7876L79.2342 31.8053H79.5999L78.577 34.4369H78.3438L77.623 32.4652L76.9048 34.4369H76.6689L75.646 31.8053H76.0329L76.7935 33.7929Z" fill="black"/>
<path fill-rule="evenodd" clip-rule="evenodd" d="M81.7676 32.7909C81.7456 32.6518 81.6871 32.521 81.598 32.4119C81.5308 32.3296 81.4451 32.2644 81.348 32.2216C81.2508 32.1788 81.1448 32.1595 81.0388 32.1655C80.9362 32.1671 80.8353 32.1917 80.7436 32.2376C80.6518 32.2834 80.5716 32.3494 80.5088 32.4305C80.4243 32.5381 80.3621 32.6616 80.3259 32.7935L81.7676 32.7909ZM80.2729 33.1036C80.2718 33.2271 80.296 33.3496 80.3438 33.4635C80.3917 33.5774 80.4622 33.6804 80.5512 33.7661C80.6366 33.8564 80.7398 33.928 80.8543 33.9763C80.9688 34.0247 81.0921 34.0488 81.2164 34.047C81.37 34.0468 81.5224 34.0199 81.6669 33.9675C81.8198 33.9093 81.9614 33.825 82.0856 33.7184L82.1783 33.6469V34.055H82.1598C82.025 34.1686 81.8717 34.2582 81.7066 34.32C81.4632 34.4066 81.201 34.4263 80.9473 34.3769C80.6937 34.3275 80.458 34.2108 80.265 34.0391C80.1438 33.915 80.049 33.7677 79.9861 33.606C79.9233 33.4443 79.8937 33.2716 79.8993 33.0983C79.8876 32.7545 79.9995 32.418 80.2146 32.1496C80.32 32.0346 80.4477 31.9424 80.5901 31.8787C80.7324 31.815 80.8862 31.7811 81.0422 31.7791C81.1981 31.7772 81.3528 31.8071 81.4967 31.8672C81.6406 31.9272 81.7706 32.0161 81.8789 32.1284C82.0795 32.3841 82.1845 32.7018 82.1757 33.0267V33.0797L80.2729 33.1036Z" fill="black"/>
<path fill-rule="evenodd" clip-rule="evenodd" d="M83.3578 32.1378C83.4087 32.0463 83.477 31.9657 83.5591 31.9007C83.6411 31.8357 83.7352 31.7875 83.8359 31.7589C83.9366 31.7304 84.042 31.722 84.1459 31.7342C84.2499 31.7465 84.3504 31.7792 84.4417 31.8304C84.4417 31.8304 84.4603 31.8304 84.4709 31.8436V32.2729C84.4391 32.2385 84.4709 32.2729 84.4391 32.2544C83.8375 31.9178 83.4744 32.4028 83.3552 32.7208V34.3797H82.9868V31.7403H83.3578V32.1378Z" fill="black"/>
</svg>
