<svg width="36" height="36" viewBox="0 0 36 36" fill="none" xmlns="http://www.w3.org/2000/svg">
<path d="M0 18C0 8.05888 8.05888 0 18 0C27.9411 0 36 8.05888 36 18C36 27.9411 27.9411 36 18 36C8.05888 36 0 27.9411 0 18Z" fill="#313033"/>
<g clip-path="url(#clip0_20008056_934)">
<path d="M27 18.0547C27 22.5464 23.7045 26.2702 19.4025 26.9459V20.6737H21.4943L21.8925 18.0787H19.4025V16.3949C19.4025 15.6847 19.7505 14.9932 20.865 14.9932H21.9967V12.7837C21.9967 12.7837 20.9692 12.6082 19.9875 12.6082C17.937 12.6082 16.5975 13.8509 16.5975 16.1002V18.0779H14.3183V20.6729H16.5975V26.9452C12.2962 26.2687 9 22.5457 9 18.0547C9 13.0844 13.0297 9.05469 18 9.05469C22.9703 9.05469 27 13.0837 27 18.0547Z" fill="white"/>
</g>
<defs>
<clipPath id="clip0_20008056_934">
<rect width="18" height="18" fill="white" transform="translate(9 9)"/>
</clipPath>
</defs>
</svg>
