<svg width="36" height="36" viewBox="0 0 36 36" fill="none" xmlns="http://www.w3.org/2000/svg">
<path d="M0 18C0 8.05888 8.05888 0 18 0C27.9411 0 36 8.05888 36 18C36 27.9411 27.9411 36 18 36C8.05888 36 0 27.9411 0 18Z" fill="#313033"/>
<g clip-path="url(#clip0_20008056_920)">
<path d="M18 10.6215C20.403 10.6215 20.688 10.6305 21.6368 10.674C22.6178 10.719 23.628 10.9425 24.3428 11.6572C25.0643 12.3788 25.281 13.3793 25.326 14.3632C25.3695 15.312 25.3785 15.597 25.3785 18C25.3785 20.403 25.3695 20.688 25.326 21.6368C25.2817 22.6125 25.053 23.6325 24.3428 24.3428C23.6213 25.0643 22.6215 25.281 21.6368 25.326C20.688 25.3695 20.403 25.3785 18 25.3785C15.597 25.3785 15.312 25.3695 14.3632 25.326C13.395 25.2817 12.3615 25.0478 11.6572 24.3428C10.9395 23.625 10.719 22.6148 10.674 21.6368C10.6305 20.688 10.6215 20.403 10.6215 18C10.6215 15.597 10.6305 15.312 10.674 14.3632C10.7183 13.3913 10.9492 12.3653 11.6572 11.6572C12.3772 10.9373 13.3815 10.719 14.3632 10.674C15.312 10.6305 15.597 10.6215 18 10.6215ZM18 9C15.5557 9 15.249 9.0105 14.289 9.054C12.8977 9.11775 11.5162 9.50475 10.5105 10.5105C9.501 11.52 9.11775 12.8985 9.054 14.289C9.0105 15.249 9 15.5557 9 18C9 20.4443 9.0105 20.751 9.054 21.711C9.11775 23.1007 9.50625 24.486 10.5105 25.4895C11.5192 26.4983 12.9 26.8822 14.289 26.946C15.249 26.9895 15.5557 27 18 27C20.4443 27 20.751 26.9895 21.711 26.946C23.1015 26.8822 24.4845 26.4945 25.4895 25.4895C26.4998 24.4792 26.8822 23.1015 26.946 21.711C26.9895 20.751 27 20.4443 27 18C27 15.5557 26.9895 15.249 26.946 14.289C26.8822 12.8977 26.4945 11.5155 25.4895 10.5105C24.4823 9.50325 23.0977 9.117 21.711 9.054C20.751 9.0105 20.4443 9 18 9Z" fill="white"/>
<path d="M17.9999 13.3784C15.4477 13.3784 13.3784 15.4477 13.3784 17.9999C13.3784 20.5522 15.4477 22.6214 17.9999 22.6214C20.5522 22.6214 22.6214 20.5522 22.6214 17.9999C22.6214 15.4477 20.5522 13.3784 17.9999 13.3784ZM17.9999 20.9999C16.3432 20.9999 14.9999 19.6567 14.9999 17.9999C14.9999 16.3432 16.3432 14.9999 17.9999 14.9999C19.6567 14.9999 20.9999 16.3432 20.9999 17.9999C20.9999 19.6567 19.6567 20.9999 17.9999 20.9999Z" fill="white"/>
<path d="M22.8046 14.2755C23.4011 14.2755 23.8846 13.7919 23.8846 13.1955C23.8846 12.599 23.4011 12.1155 22.8046 12.1155C22.2081 12.1155 21.7246 12.599 21.7246 13.1955C21.7246 13.7919 22.2081 14.2755 22.8046 14.2755Z" fill="white"/>
</g>
<defs>
<clipPath id="clip0_20008056_920">
<rect width="18" height="18" fill="white" transform="translate(9 9)"/>
</clipPath>
</defs>
</svg>
