<svg width="36" height="36" viewBox="0 0 36 36" fill="none" xmlns="http://www.w3.org/2000/svg">
<path d="M0 18C0 8.05888 8.05888 0 18 0C27.9411 0 36 8.05888 36 18C36 27.9411 27.9411 36 18 36C8.05888 36 0 27.9411 0 18Z" fill="#313033"/>
<g clip-path="url(#clip0_20008056_926)">
<path fill-rule="evenodd" clip-rule="evenodd" d="M24.3475 11.616C22.663 9.93 20.4235 9.00075 18.0377 9C13.1215 9 9.12022 13.0005 9.11797 17.919C9.11722 19.491 9.52822 21.0255 10.309 22.3785L9.04297 27L13.771 25.7595C15.0737 26.4705 16.5407 26.8448 18.0332 26.8455H18.037C22.9525 26.8455 26.9545 22.8442 26.9567 17.9257C26.9582 15.543 26.0312 13.3012 24.3475 11.616ZM18.0377 25.3387H18.0347C16.7042 25.3387 15.4 24.981 14.2615 24.3053L13.9907 24.1448L11.185 24.8805L11.9342 22.1445L11.758 21.864C11.0155 20.6835 10.624 19.3193 10.6247 17.919C10.6262 13.8315 13.9525 10.506 18.0415 10.506C20.0215 10.506 21.883 11.2785 23.2825 12.6795C24.682 14.0813 25.4522 15.9435 25.4515 17.9242C25.4492 22.0133 22.1237 25.3387 18.0377 25.3387ZM22.1042 19.7865C21.8815 19.6748 20.7857 19.1355 20.581 19.0612C20.377 18.987 20.2285 18.9495 20.0792 19.1722C19.93 19.395 19.504 19.8975 19.3735 20.0468C19.2437 20.1953 19.1132 20.214 18.8905 20.1023C18.6677 19.9905 17.9492 19.7557 17.098 18.996C16.4357 18.405 15.988 17.6753 15.8582 17.4517C15.7285 17.2283 15.8447 17.1082 15.9557 16.9973C16.0562 16.8975 16.1785 16.737 16.2902 16.6065C16.4027 16.4775 16.4395 16.3845 16.5145 16.2353C16.5887 16.0868 16.552 15.9563 16.4957 15.8445C16.4395 15.7335 15.994 14.6363 15.8087 14.19C15.628 13.755 15.4442 13.8142 15.307 13.8075C15.1772 13.8007 15.0287 13.8 14.8795 13.8C14.731 13.8 14.4895 13.8555 14.2855 14.079C14.0815 14.3025 13.5055 14.8418 13.5055 15.9383C13.5055 17.0355 14.3042 18.0953 14.4152 18.2437C14.5262 18.3923 15.9865 20.6438 18.2222 21.609C18.754 21.8385 19.1695 21.9757 19.4927 22.0785C20.0267 22.248 20.5127 22.224 20.8967 22.167C21.325 22.1032 22.2152 21.6277 22.4012 21.1073C22.5872 20.5868 22.5872 20.1397 22.531 20.0475C22.4755 19.9537 22.327 19.8982 22.1042 19.7865Z" fill="white"/>
</g>
<defs>
<clipPath id="clip0_20008056_926">
<rect width="18" height="18" fill="white" transform="translate(9 9)"/>
</clipPath>
</defs>
</svg>
