<svg width="36" height="36" viewBox="0 0 36 36" fill="none" xmlns="http://www.w3.org/2000/svg">
<path d="M0 18C0 8.05888 8.05888 0 18 0C27.9411 0 36 8.05888 36 18C36 27.9411 27.9411 36 18 36C8.05888 36 0 27.9411 0 18Z" fill="#313033"/>
<g clip-path="url(#clip0_20008056_931)">
<path d="M23.175 9.86475H25.9365L19.905 16.7565L27 26.136H21.4462L17.0933 20.4487L12.1178 26.136H9.35175L15.8018 18.7627L9 9.86475H14.6947L18.6255 15.063L23.175 9.86475ZM22.2052 24.4852H23.7345L13.8615 11.4292H12.219L22.2052 24.4852Z" fill="white"/>
</g>
<defs>
<clipPath id="clip0_20008056_931">
<rect width="18" height="18" fill="white" transform="translate(9 9)"/>
</clipPath>
</defs>
</svg>
