<svg width="28" height="28" viewBox="0 0 28 28" fill="none" xmlns="http://www.w3.org/2000/svg">
<path d="M21.0001 15.1665C19.9739 15.163 18.9754 15.4989 18.16 16.1219C17.3446 16.7449 16.7581 17.6201 16.4918 18.6111C16.2256 19.6021 16.2945 20.6533 16.6879 21.6011C17.0812 22.5489 17.777 23.34 18.6667 23.8512V27.1564C18.6667 27.3228 18.7159 27.4855 18.8084 27.6239C18.9008 27.7623 19.0322 27.8702 19.186 27.9339C19.3397 27.9976 19.5089 28.0142 19.6721 27.9818C19.8353 27.9493 19.9853 27.8691 20.1029 27.7514L21.0001 26.8554L21.8972 27.7514C22.0149 27.8691 22.1648 27.9493 22.328 27.9818C22.4912 28.0142 22.6604 27.9976 22.8142 27.9339C22.9679 27.8702 23.0994 27.7623 23.1918 27.6239C23.2842 27.4855 23.3335 27.3228 23.3334 27.1564V23.8512C24.2232 23.34 24.9189 22.5489 25.3123 21.6011C25.7057 20.6533 25.7746 19.6021 25.5083 18.6111C25.2421 17.6201 24.6556 16.7449 23.8402 16.1219C23.0248 15.4989 22.0262 15.163 21.0001 15.1665Z" fill="#FFC080"/>
<path d="M14 19.8333C13.9986 18.6041 14.3212 17.3963 14.9354 16.3315C15.5497 15.2667 16.4337 14.3827 17.4985 13.7686C18.5633 13.1544 19.7712 12.8318 21.0004 12.8334C22.2296 12.8349 23.4367 13.1604 24.5 13.7772V5.83333C24.4981 4.28681 23.883 2.80415 22.7894 1.71059C21.6959 0.617029 20.2132 0.0018525 18.6667 0L9.33333 0C7.78681 0.0018525 6.30415 0.617029 5.21059 1.71059C4.11703 2.80415 3.50185 4.28681 3.5 5.83333V19.8333C3.50185 21.3799 4.11703 22.8625 5.21059 23.9561C6.30415 25.0496 7.78681 25.6648 9.33333 25.6667H16.3333V25.0367C15.5996 24.3828 15.0124 23.5813 14.6102 22.6845C14.2081 21.7878 14.0002 20.8161 14 19.8333ZM9.33333 4.66667H18.6667C18.9761 4.66667 19.2728 4.78958 19.4916 5.00838C19.7104 5.22717 19.8333 5.52391 19.8333 5.83333C19.8333 6.14275 19.7104 6.4395 19.4916 6.65829C19.2728 6.87708 18.9761 7 18.6667 7H9.33333C9.02391 7 8.72717 6.87708 8.50838 6.65829C8.28958 6.4395 8.16667 6.14275 8.16667 5.83333C8.16667 5.52391 8.28958 5.22717 8.50838 5.00838C8.72717 4.78958 9.02391 4.66667 9.33333 4.66667ZM9.33333 9.33333H18.6667C18.9761 9.33333 19.2728 9.45625 19.4916 9.67504C19.7104 9.89384 19.8333 10.1906 19.8333 10.5C19.8333 10.8094 19.7104 11.1062 19.4916 11.325C19.2728 11.5438 18.9761 11.6667 18.6667 11.6667H9.33333C9.02391 11.6667 8.72717 11.5438 8.50838 11.325C8.28958 11.1062 8.16667 10.8094 8.16667 10.5C8.16667 10.1906 8.28958 9.89384 8.50838 9.67504C8.72717 9.45625 9.02391 9.33333 9.33333 9.33333ZM12.8333 16.3333H9.33333C9.02391 16.3333 8.72717 16.2104 8.50838 15.9916C8.28958 15.7728 8.16667 15.4761 8.16667 15.1667C8.16667 14.8572 8.28958 14.5605 8.50838 14.3417C8.72717 14.1229 9.02391 14 9.33333 14H12.8333C13.1428 14 13.4395 14.1229 13.6583 14.3417C13.8771 14.5605 14 14.8572 14 15.1667C14 15.4761 13.8771 15.7728 13.6583 15.9916C13.4395 16.2104 13.1428 16.3333 12.8333 16.3333Z" fill="#F5983A"/>
</svg>
