<svg width="20" height="20" viewBox="0 0 20 20" fill="none" xmlns="http://www.w3.org/2000/svg">
<g clip-path="url(#clip0_20008173_8372)">
<path d="M10 18.3333H4.16667C2.78833 18.3333 1.66667 17.2117 1.66667 15.8333V4.16667C1.66667 2.78833 2.78833 1.66667 4.16667 1.66667H7.92917C8.065 1.66667 8.2 1.67333 8.33333 1.68583V5.83333C8.33333 7.21167 9.455 8.33333 10.8333 8.33333H15.6775C16.205 8.3475 16.6292 7.80083 16.485 7.29333C16.2258 6.27917 15.6975 5.3525 14.9575 4.6125L12.0533 1.70833C10.9517 0.606667 9.48667 0 7.92833 0H4.16667C1.86917 0 0 1.86917 0 4.16667V15.8333C0 18.1308 1.86917 20 4.16667 20H10C10.46 20 10.8333 19.6267 10.8333 19.1667C10.8333 18.7067 10.46 18.3333 10 18.3333ZM10 2.21583C10.3158 2.3975 10.61 2.6225 10.875 2.8875L13.7792 5.79167C14.0408 6.05333 14.265 6.34833 14.4483 6.66667H10.8333C10.3742 6.66667 10 6.2925 10 5.83333V2.21583ZM19.7558 18.5775L16.4583 15.28L17.78 13.9583C18.105 14.3883 18.7258 14.5442 19.1308 14.1308C19.4567 13.805 19.4567 13.2783 19.1308 12.9525L15.3808 9.2025C15.055 8.87667 14.5283 8.87667 14.2025 9.2025C13.8767 9.52833 13.8767 10.055 14.2025 10.3808L14.2492 10.4275L10.4275 14.2492L10.3808 14.2025C10.055 13.8767 9.52833 13.8767 9.2025 14.2025C8.87667 14.5283 8.87667 15.055 9.2025 15.3808L12.9525 19.1308C13.115 19.2933 13.3283 19.375 13.5417 19.375C14.4025 19.38 14.6542 18.2358 13.9583 17.78L15.28 16.4583L18.5775 19.7558C19.3308 20.5317 20.5317 19.33 19.7558 18.5775ZM11.6058 15.4275L15.4275 11.6058L16.6025 12.7808L12.7808 16.6025L11.6058 15.4275ZM3.33333 6.66667C3.33333 6.20667 3.70667 5.83333 4.16667 5.83333H5.83333C6.29333 5.83333 6.66667 6.20667 6.66667 6.66667C6.66667 7.12667 6.29333 7.5 5.83333 7.5H4.16667C3.70667 7.5 3.33333 7.12667 3.33333 6.66667ZM10.8333 10.8333H4.16667C3.70667 10.8333 3.33333 10.46 3.33333 10C3.33333 9.54 3.70667 9.16667 4.16667 9.16667H10.8333C11.2933 9.16667 11.6667 9.54 11.6667 10C11.6667 10.46 11.2933 10.8333 10.8333 10.8333ZM6.66667 12.5C7.12667 12.5 7.5 12.8733 7.5 13.3333C7.5 13.7933 7.12667 14.1667 6.66667 14.1667H4.16667C3.70667 14.1667 3.33333 13.7933 3.33333 13.3333C3.33333 12.8733 3.70667 12.5 4.16667 12.5H6.66667Z" fill="white"/>
</g>
<defs>
<clipPath id="clip0_20008173_8372">
<rect width="20" height="20" fill="white"/>
</clipPath>
</defs>
</svg>
