<svg width="20" height="20" viewBox="0 0 20 20" fill="none" xmlns="http://www.w3.org/2000/svg">
<g clip-path="url(#clip0_20008415_46422)">
<path d="M18.2917 4.62603L15.3876 1.72186C14.2859 0.619362 12.8209 0.0126953 11.2626 0.0126953H7.50008C5.60591 0.0126953 3.94758 1.29186 3.46925 3.1227C3.35258 3.5677 3.61925 4.02353 4.06425 4.1402C4.51258 4.25436 4.96591 3.98936 5.08091 3.54436C5.36841 2.44686 6.36341 1.67936 7.50008 1.67936H11.2626C11.4001 1.67936 11.5317 1.70603 11.6667 1.71853V5.84603C11.6667 7.22436 12.7884 8.34603 14.1667 8.34603H18.2926C18.3059 8.48103 18.3334 8.61436 18.3334 8.75019V15.846C18.3334 17.2244 17.2117 18.346 15.8334 18.346H7.50008C6.92508 18.346 6.38508 18.156 5.93758 17.7985C5.57925 17.5127 5.05508 17.5685 4.76591 17.9269C4.47841 18.2869 4.53591 18.811 4.89508 19.0985C5.63008 19.6877 6.55508 20.0127 7.49925 20.0127H15.8326C18.1301 20.0127 19.9992 18.1435 19.9992 15.846V8.75019C19.9992 7.19269 19.3926 5.7277 18.2909 4.62603H18.2917ZM14.1667 6.67936C13.7076 6.67936 13.3334 6.30603 13.3334 5.84603V2.24853C13.6467 2.42936 13.9459 2.63686 14.2084 2.89936L17.1126 5.80353C17.3717 6.0627 17.5784 6.36353 17.7592 6.67853H14.1659L14.1667 6.67936ZM8.33341 13.3335H15.0001C15.4601 13.3335 15.8334 13.706 15.8334 14.1669C15.8334 14.6277 15.4601 15.0002 15.0001 15.0002H8.33341C7.87341 15.0002 7.50008 14.6277 7.50008 14.1669C7.50008 13.706 7.87341 13.3335 8.33341 13.3335ZM5.83341 15.706V11.7477C6.58925 11.136 7.08341 10.2127 7.08341 9.16686C7.08341 7.32853 5.58841 5.83353 3.75008 5.83353C1.91175 5.83353 0.416748 7.32853 0.416748 9.16686C0.416748 10.2127 0.910915 11.136 1.66675 11.7477V15.706C1.66675 16.2252 2.32591 16.4477 2.64091 16.0352L3.75008 14.5827L4.85925 16.0352C5.17425 16.4477 5.83341 16.2252 5.83341 15.706ZM3.75008 7.5002C4.66925 7.5002 5.41675 8.24769 5.41675 9.16686C5.41675 10.086 4.66925 10.8335 3.75008 10.8335C2.83091 10.8335 2.08341 10.086 2.08341 9.16686C2.08341 8.24769 2.83091 7.5002 3.75008 7.5002ZM9.16675 11.6669C8.70675 11.6669 8.33341 11.2944 8.33341 10.8335C8.33341 10.3727 8.70675 10.0002 9.16675 10.0002H15.0001C15.4601 10.0002 15.8334 10.3727 15.8334 10.8335C15.8334 11.2944 15.4601 11.6669 15.0001 11.6669H9.16675Z" fill="white"/>
</g>
<defs>
<clipPath id="clip0_20008415_46422">
<rect width="20" height="20" fill="white"/>
</clipPath>
</defs>
</svg>
