<svg width="28" height="28" viewBox="0 0 28 28" fill="none" xmlns="http://www.w3.org/2000/svg">
<g clip-path="url(#clip0_20008065_196)">
<path d="M19.7739 2.39167C18.2328 0.849333 16.1818 0 14.0001 0C11.8184 0 9.76742 0.849333 8.22509 2.39167C5.04125 5.5755 5.04126 10.7567 8.23442 13.9498L11.1453 16.7965C11.9328 17.5665 12.9664 17.9515 14.0001 17.9515C15.0338 17.9515 16.0674 17.5665 16.8549 16.7965L19.7739 13.9405C21.3163 12.3982 22.1668 10.3472 22.1668 8.1655C22.1668 5.98383 21.3163 3.93517 19.7739 2.39167ZM14.0001 11.655C12.0669 11.655 10.5001 10.0882 10.5001 8.155C10.5001 6.22183 12.0669 4.655 14.0001 4.655C15.9333 4.655 17.5001 6.22183 17.5001 8.155C17.5001 10.0882 15.9333 11.655 14.0001 11.655Z" fill="#08A650"/>
<path d="M27.4342 20.5626C27.7865 20.3514 28.0024 19.9687 28 19.5557C27.9977 19.1451 27.7784 18.7636 27.4225 18.5547L21.7595 15.2402C21.651 15.3592 21.539 15.4771 21.4247 15.5914L18.487 18.4649C17.2865 19.6386 15.6929 20.2861 14 20.2861C12.3072 20.2861 10.7124 19.6386 9.51302 18.4649L6.60219 15.6194C6.47852 15.4957 6.35835 15.3686 6.24169 15.2402L0.577519 18.5559C0.221686 18.7636 0.00235216 19.1439 1.88294e-05 19.5557C-0.0023145 19.9676 0.212352 20.3502 0.565852 20.5626L12.0727 27.4657C12.6665 27.8227 13.335 28.0012 14.0012 28.0012C14.6674 28.0012 15.3347 27.8227 15.9297 27.4657L27.4342 20.5626Z" fill="#00643C"/>
</g>
<defs>
<clipPath id="clip0_20008065_196">
<rect width="28" height="28" fill="white"/>
</clipPath>
</defs>
</svg>
