<svg width="28" height="28" viewBox="0 0 28 28" fill="none" xmlns="http://www.w3.org/2000/svg">
<path d="M3.44614 7C3.44614 3.1395 6.53733 0 10.3384 0C14.1395 0 17.2307 3.1395 17.2307 7C17.2307 10.8605 14.1395 14 10.3384 14C6.53733 14 3.44614 10.8605 3.44614 7ZM13.8144 28H1.14872C0.508882 28 -0.00114678 27.4633 1.93658e-06 26.8135C0.0103404 21.0327 4.64425 16.3333 10.3384 16.3333C11.1287 16.3333 11.8961 16.4325 12.6359 16.604V24.5C12.6359 25.8183 13.085 27.0223 13.8144 28Z" fill="#B7131A"/>
<path fill-rule="evenodd" clip-rule="evenodd" d="M18.8103 12.8333H24.5539C26.4538 12.8333 28 14.4037 28 16.3333V24.5C28 26.4297 26.4538 28 24.5539 28H18.8103C16.9103 28 15.3641 26.4297 15.3641 24.5V16.3333C15.3641 14.4037 16.9103 12.8333 18.8103 12.8333ZM19.959 23.3333H23.4051C24.0404 23.3333 24.5539 22.8107 24.5539 22.1667C24.5539 21.5227 24.0404 21 23.4051 21H19.959C19.3238 21 18.8103 21.5227 18.8103 22.1667C18.8103 22.8107 19.3238 23.3333 19.959 23.3333ZM23.4051 18.6632H19.959C19.3238 18.6632 18.8103 18.1405 18.8103 17.4965C18.8103 16.8525 19.3238 16.3298 19.959 16.3298H23.4051C24.0404 16.3298 24.5539 16.8525 24.5539 17.4965C24.5539 18.1405 24.0404 18.6632 23.4051 18.6632Z" fill="#FF8B78"/>
</svg>
