<svg width="20" height="20" viewBox="0 0 20 20" fill="none" xmlns="http://www.w3.org/2000/svg">
<mask id="mask0_20008065_254" style="mask-type:alpha" maskUnits="userSpaceOnUse" x="2" y="0" width="16" height="20">
<path d="M2 2C2 1.46957 2.21071 0.960859 2.58579 0.585786C2.96086 0.210714 3.46957 0 4 0L12 0L18 6V18C18 18.5304 17.7893 19.0391 17.4142 19.4142C17.0391 19.7893 16.5304 20 16 20H4C3.46957 20 2.96086 19.7893 2.58579 19.4142C2.21071 19.0391 2 18.5304 2 18V2Z" fill="url(#paint0_linear_20008065_254)"/>
</mask>
<g mask="url(#mask0_20008065_254)">
<path d="M2 2C2 1.46957 2.21071 0.960859 2.58579 0.585786C2.96086 0.210714 3.46957 0 4 0L12 0L18 6V18C18 18.5304 17.7893 19.0391 17.4142 19.4142C17.0391 19.7893 16.5304 20 16 20H4C3.46957 20 2.96086 19.7893 2.58579 19.4142C2.21071 19.0391 2 18.5304 2 18V2Z" fill="#F5F5F5"/>
</g>
<path d="M12 0L18 6H14C13.4696 6 12.9609 5.78929 12.5858 5.41421C12.2107 5.03914 12 4.53043 12 4V0Z" fill="#E9EAEB"/>
<path d="M8.32244 13.8731H7.62244C7.61131 13.7887 7.58488 13.707 7.54444 13.6321C7.50644 13.5618 7.45476 13.4997 7.39244 13.4496C7.32897 13.3982 7.25637 13.3592 7.17844 13.3346C7.09458 13.307 7.00672 13.2935 6.91844 13.2946C6.74844 13.2946 6.60077 13.3368 6.47544 13.4211C6.34944 13.5045 6.25194 13.6258 6.18294 13.7851C6.11361 13.9438 6.07894 14.1366 6.07894 14.3636C6.07894 14.597 6.11361 14.793 6.18294 14.9516C6.25294 15.1106 6.35094 15.2306 6.47694 15.3116C6.60261 15.3923 6.74794 15.4326 6.91294 15.4326C7.00561 15.4326 7.09144 15.4205 7.17044 15.3961C7.25044 15.3715 7.32127 15.3358 7.38294 15.2891C7.44494 15.2411 7.49611 15.183 7.53644 15.1146C7.57777 15.0466 7.60644 14.969 7.62244 14.8816L8.32244 14.8846C8.30444 15.0346 8.25927 15.1796 8.18694 15.3196C8.11392 15.4602 8.0158 15.5863 7.89744 15.6916C7.77744 15.8003 7.63361 15.8866 7.46594 15.9506C7.28514 16.0157 7.09409 16.0477 6.90194 16.0451C6.62798 16.0493 6.35781 15.9808 6.11894 15.8466C5.88647 15.7116 5.69779 15.5125 5.57544 15.2731C5.44344 15.0231 5.37744 14.72 5.37744 14.3636C5.37744 14.007 5.44461 13.7033 5.57894 13.4526C5.71294 13.2026 5.89511 13.012 6.12544 12.8806C6.35544 12.7486 6.61427 12.6826 6.90194 12.6826C7.09161 12.6826 7.26744 12.7093 7.42944 12.7626C7.59244 12.816 7.73677 12.8936 7.86244 12.9956C7.98895 13.0977 8.0934 13.2244 8.16944 13.3681C8.24944 13.5148 8.30044 13.6831 8.32244 13.8731ZM10.5944 13.6686C10.5909 13.6095 10.5742 13.552 10.5457 13.5001C10.5171 13.4482 10.4774 13.4033 10.4294 13.3686C10.3328 13.297 10.2011 13.2611 10.0344 13.2611C9.92177 13.2611 9.82661 13.2771 9.74894 13.3091C9.6783 13.3346 9.61627 13.3795 9.56994 13.4386C9.52954 13.4931 9.50811 13.5593 9.50894 13.6271C9.5057 13.6808 9.51859 13.7343 9.54594 13.7806C9.57572 13.8257 9.61433 13.8643 9.65944 13.8941C9.70744 13.9248 9.76277 13.952 9.82544 13.9756C9.88844 13.9976 9.95561 14.0168 10.0269 14.0331L10.3209 14.1031C10.4636 14.1351 10.5946 14.1778 10.7139 14.2311C10.8333 14.2845 10.9366 14.35 11.0239 14.4276C11.1113 14.5053 11.1789 14.597 11.2269 14.7026C11.2759 14.808 11.3009 14.9288 11.3019 15.0651C11.3058 15.2504 11.2524 15.4323 11.1489 15.5861C11.0489 15.7325 10.9039 15.846 10.7139 15.9266C10.5253 16.0066 10.2979 16.0466 10.0319 16.0466C9.76727 16.0466 9.53711 16.0061 9.34144 15.9251C9.1568 15.8531 8.99773 15.7278 8.88444 15.5651C8.77577 15.4055 8.71877 15.208 8.71344 14.9726H9.38294C9.39028 15.0826 9.42177 15.1743 9.47744 15.2476C9.53377 15.32 9.60878 15.3748 9.70244 15.4121C9.79744 15.4481 9.90444 15.4661 10.0234 15.4661C10.1408 15.4661 10.2426 15.4491 10.3289 15.4151C10.4081 15.3868 10.4782 15.3378 10.5319 15.2731C10.5794 15.2137 10.6048 15.1397 10.6039 15.0636C10.6061 14.9959 10.5827 14.9299 10.5384 14.8786C10.4862 14.8219 10.4215 14.7781 10.3494 14.7506C10.2515 14.7107 10.1505 14.6786 10.0474 14.6546L9.69144 14.5651C9.41544 14.4981 9.19761 14.3931 9.03794 14.2501C8.87794 14.1075 8.79844 13.9153 8.79944 13.6736C8.79393 13.4876 8.84961 13.3049 8.95794 13.1536C9.06561 13.006 9.21311 12.8905 9.40044 12.8071C9.58777 12.7238 9.80094 12.6823 10.0399 12.6826C10.2826 12.6826 10.4946 12.7243 10.6759 12.8076C10.8579 12.8906 10.9996 13.0061 11.1009 13.1541C11.2019 13.3025 11.2541 13.474 11.2574 13.6686H10.5944ZM12.3589 12.7271L13.1499 15.2141H13.1799L13.9729 12.7271H14.7399L13.6114 16.0001H12.7199L11.5899 12.7271H12.3589Z" fill="#414651"/>
<defs>
<linearGradient id="paint0_linear_20008065_254" x1="10" y1="0" x2="10" y2="20" gradientUnits="userSpaceOnUse">
<stop stop-opacity="0.4"/>
<stop offset="1"/>
</linearGradient>
</defs>
</svg>
