<svg width="20" height="20" viewBox="0 0 20 20" fill="none" xmlns="http://www.w3.org/2000/svg">
<g clip-path="url(#clip0_20008056_1688)">
<path d="M19.9167 9.53064C19.5893 7.01015 18.3144 4.70892 16.3512 3.09467C14.388 1.48043 11.8837 0.674314 9.34747 0.840179C6.81122 1.00604 4.4333 2.13144 2.69703 3.98762C0.960757 5.8438 -0.00356686 8.29148 6.17117e-05 10.8331C-0.00474196 12.1936 0.270943 13.5404 0.809907 14.7895C1.34887 16.0386 2.13954 17.1632 3.13256 18.0931C3.89201 18.7963 4.89269 19.1805 5.92756 19.1665H14.0667C15.16 19.169 16.2104 18.7413 16.9909 17.9756C18.1032 16.8935 18.947 15.5663 19.455 14.1C19.963 12.6337 20.1211 11.0689 19.9167 9.53064ZM15.8259 16.7806C15.357 17.2426 14.7249 17.501 14.0667 17.4998H5.92756C5.31862 17.5123 4.72797 17.2914 4.27673 16.8823C3.44946 16.1074 2.79075 15.1703 2.34169 14.1296C1.89264 13.0888 1.66287 11.9666 1.66673 10.8331C1.66755 9.66001 1.91571 8.50023 2.39501 7.42948C2.87431 6.35872 3.57399 5.40106 4.44839 4.61897C5.96768 3.24889 7.94259 2.49345 9.98839 2.49981C10.3153 2.49994 10.6419 2.5183 10.9667 2.55481C12.5297 2.73634 14.0093 3.35694 15.2342 4.34474C16.459 5.33254 17.3789 6.64712 17.8874 8.13621C18.3959 9.6253 18.4721 11.228 18.1073 12.7586C17.7424 14.2892 16.9514 15.6852 15.8259 16.7848V16.7806ZM6.5059 14.404C6.66392 14.5587 6.75401 14.7698 6.75636 14.991C6.7587 15.2121 6.6731 15.4251 6.51839 15.5831C6.36369 15.7412 6.15254 15.8313 5.9314 15.8336C5.71026 15.8359 5.49725 15.7503 5.33923 15.5956C4.39336 14.6691 3.74481 13.4819 3.47624 12.1854C3.20766 10.8889 3.33124 9.54176 3.83122 8.31574C4.33119 7.08972 5.18491 6.04034 6.28356 5.30137C7.38221 4.5624 8.67601 4.16732 10.0001 4.16647C10.3188 4.16638 10.6371 4.18894 10.9526 4.23397C11.0609 4.24959 11.1651 4.28641 11.2592 4.34232C11.3534 4.39823 11.4355 4.47214 11.5011 4.55982C11.5666 4.6475 11.6143 4.74723 11.6413 4.85333C11.6683 4.95942 11.6741 5.06979 11.6584 5.17814C11.644 5.28708 11.6081 5.39205 11.5525 5.48688C11.497 5.5817 11.4231 5.66447 11.3351 5.73031C11.2472 5.79616 11.1469 5.84374 11.0403 5.87027C10.9337 5.89681 10.8228 5.90175 10.7142 5.88481C9.6713 5.73584 8.60797 5.92011 7.67597 6.41131C6.74398 6.90251 5.99095 7.67555 5.52436 8.6201C5.05777 9.56465 4.90145 10.6325 5.07771 11.6711C5.25397 12.7098 5.75381 13.6662 6.5059 14.404ZM16.5992 9.88064C16.6443 10.1961 16.6668 10.5144 16.6667 10.8331C16.6694 11.7212 16.4931 12.6007 16.1484 13.4191C15.8036 14.2375 15.2974 14.978 14.6601 15.5965C14.5018 15.7512 14.2886 15.8367 14.0673 15.8342C13.846 15.8317 13.6348 15.7414 13.4801 15.5831C13.3254 15.4249 13.2398 15.2117 13.2423 14.9904C13.2448 14.7691 13.3351 14.5578 13.4934 14.4031C14.0564 13.8543 14.4816 13.1801 14.7342 12.4355C14.9868 11.6909 15.0596 10.8971 14.9467 10.119C14.9151 9.90006 14.9718 9.67756 15.1042 9.50041C15.2367 9.32327 15.4341 9.20599 15.653 9.17439C15.8719 9.14278 16.0944 9.19944 16.2715 9.33188C16.4487 9.46433 16.566 9.66173 16.5976 9.88064H16.5992ZM11.6051 10.4065C11.7053 10.7671 11.6834 11.1508 11.5426 11.4976C11.4018 11.8444 11.1501 12.1349 10.8268 12.3236C10.5035 12.5122 10.1269 12.5885 9.75566 12.5406C9.38443 12.4926 9.03955 12.323 8.77487 12.0583C8.5102 11.7936 8.34062 11.4488 8.29264 11.0775C8.24466 10.7063 8.32097 10.3297 8.50965 10.0064C8.69833 9.6831 8.98877 9.43141 9.33559 9.29062C9.68241 9.14982 10.0661 9.12785 10.4267 9.22814L13.5776 6.07731C13.6544 5.99771 13.7464 5.93423 13.8481 5.89055C13.9497 5.84688 14.0591 5.82389 14.1697 5.82293C14.2804 5.82197 14.3901 5.84305 14.4925 5.88495C14.5949 5.92686 14.688 5.98873 14.7662 6.06698C14.8445 6.14522 14.9063 6.23826 14.9482 6.34068C14.9901 6.44309 15.0112 6.55282 15.0103 6.66347C15.0093 6.77412 14.9863 6.88347 14.9426 6.98514C14.899 7.08681 14.8355 7.17877 14.7559 7.25564L11.6051 10.4065Z" fill="#F2F5FC"/>
</g>
<defs>
<clipPath id="clip0_20008056_1688">
<rect width="20" height="20" fill="white"/>
</clipPath>
</defs>
</svg>
