<svg width="28" height="28" viewBox="0 0 28 28" fill="none" xmlns="http://www.w3.org/2000/svg">
<g clip-path="url(#clip0_20008065_200)">
<path d="M12.8333 28.0002H5.83333C2.61683 28.0002 0 25.3833 0 22.1668V15.1668C0 11.9503 2.61683 9.3335 5.83333 9.3335C6.4785 9.3335 7 9.85616 7 10.5002V12.8335C7 17.3368 10.6645 21.0002 15.1667 21.0002H17.5C18.1452 21.0002 18.6667 21.5228 18.6667 22.1668C18.6667 25.3833 16.0498 28.0002 12.8333 28.0002Z" fill="#F26329"/>
<path d="M15.1668 18.6667H22.1668C25.3833 18.6667 28.0002 16.0498 28.0002 12.8333V5.83333C28.0002 2.61683 25.3833 0 22.1668 0H15.1668C11.9503 0 9.3335 2.61683 9.3335 5.83333V12.8333C9.3335 16.0498 11.9503 18.6667 15.1668 18.6667Z" fill="#F38E4C"/>
</g>
<defs>
<clipPath id="clip0_20008065_200">
<rect width="28" height="28" fill="white"/>
</clipPath>
</defs>
</svg>
