<svg width="28" height="28" viewBox="0 0 28 28" fill="none" xmlns="http://www.w3.org/2000/svg">
<g clip-path="url(#clip0_20008065_130)">
<path d="M11.6667 21C11.6667 18.2117 12.8893 15.7103 14.8272 14H5.83333C5.18817 14 4.66667 13.4785 4.66667 12.8333C4.66667 12.1882 5.18817 11.6667 5.83333 11.6667H15.1667C15.8118 11.6667 16.3333 12.1882 16.3333 12.8333C16.3333 12.8613 16.3322 12.8893 16.3298 12.9173C17.703 12.1217 19.2978 11.6667 21 11.6667V5.83333C21 2.61683 18.3832 0 15.1667 0H5.83333C2.61683 0 0 2.61683 0 5.83333V22.1667C0 25.3832 2.61683 28 5.83333 28H14.8272C12.8893 26.2897 11.6667 23.7883 11.6667 21ZM5.83333 5.83333H15.1667C15.8118 5.83333 16.3333 6.35483 16.3333 7C16.3333 7.64517 15.8118 8.16667 15.1667 8.16667H5.83333C5.18817 8.16667 4.66667 7.64517 4.66667 7C4.66667 6.35483 5.18817 5.83333 5.83333 5.83333ZM8.16667 19.8333H5.83333C5.18817 19.8333 4.66667 19.3118 4.66667 18.6667C4.66667 18.0215 5.18817 17.5 5.83333 17.5H8.16667C8.81183 17.5 9.33333 18.0215 9.33333 18.6667C9.33333 19.3118 8.81183 19.8333 8.16667 19.8333Z" fill="#D93AF5"/>
<path fill-rule="evenodd" clip-rule="evenodd" d="M14 21C14 17.1337 17.1337 14 21 14C24.8663 14 28 17.1337 28 21C28 24.8663 24.8663 28 21 28C17.1337 28 14 24.8663 14 21ZM24.724 21.2357L22.1422 23.7137C21.6148 24.234 20.9148 24.4965 20.2137 24.4965C19.5125 24.4965 18.8102 24.234 18.2735 23.7102L16.9528 22.4163C16.492 21.9648 16.4862 21.2263 16.9365 20.7667C17.3868 20.3047 18.1253 20.2988 18.5862 20.7503L19.9057 22.043C20.0737 22.2087 20.3478 22.2052 20.5147 22.0407L23.1082 19.551C23.5713 19.1053 24.311 19.1182 24.7578 19.5848C25.2035 20.0492 25.1883 20.7888 24.724 21.2357Z" fill="#E57BF8"/>
</g>
<defs>
<clipPath id="clip0_20008065_130">
<rect width="28" height="28" fill="white"/>
</clipPath>
</defs>
</svg>
