<svg width="28" height="28" viewBox="0 0 28 28" fill="none" xmlns="http://www.w3.org/2000/svg">
<g clip-path="url(#clip0_20008065_136)">
<path d="M15.1328 26.9988C15.2308 26.6255 15.0243 26.237 14.7782 25.964C14.7373 25.9278 12.0073 23.4405 10.2352 19.8331H11.6667C12.3107 19.8331 12.8333 19.3105 12.8333 18.6665C12.8333 18.0225 12.3107 17.4998 11.6667 17.4998H9.29834C8.95884 16.3891 8.75 15.2131 8.75 13.9998C8.75 12.7865 8.96 11.6116 9.30067 10.4998H19.5347H19.5382H19.5417H25.123C25.1568 10.606 25.1965 10.7098 25.2268 10.8171C25.4007 11.4425 26.0633 11.7983 26.6665 11.6221C27.2872 11.4471 27.6477 10.802 27.4715 10.1825C25.7845 4.20914 20.2778 0.0336397 14.0688 0.00213966C6.33384 -0.037527 -0.00466409 6.25431 2.5752e-06 13.9998C2.5752e-06 21.7185 6.28017 27.9998 13.9988 27.9998C14.5577 28.0021 15.0803 27.5553 15.1328 26.9988ZM6.88684 17.4998H2.87117C2.52234 16.3938 2.33334 15.219 2.33334 13.9998C2.33334 12.7806 2.52234 11.6058 2.87117 10.4998H6.88684C6.59984 11.6151 6.41667 12.7841 6.41667 13.9998C6.41667 15.2155 6.59984 16.3845 6.88684 17.4998ZM14.0023 2.81497C14.952 3.81947 16.5748 5.73164 17.7695 8.16647H10.241C11.4368 5.73631 13.055 3.82064 14.0023 2.81497ZM24.1045 8.16647H20.3292C19.4075 5.97197 18.1347 4.10764 17.038 2.74497C20.006 3.55114 22.5622 5.50531 24.1057 8.16647H24.1045ZM10.9538 2.75081C9.85717 4.11231 8.5925 5.97897 7.67434 8.16647H3.91184C5.43784 5.53797 7.9555 3.56397 10.9538 2.75081ZM3.91184 19.8331H7.67434C8.5925 22.0206 9.856 23.8873 10.9538 25.2488C7.9555 24.4356 5.43784 22.4616 3.91184 19.8331Z" fill="#2E29FF"/>
<path d="M22.6835 12.3058L25.6014 13.2729L25.6002 13.2718C27.0352 13.7478 27.9989 15.0824 27.9989 16.5944V20.3126C27.9312 23.6738 25.9222 26.1786 22.0267 27.7828C21.7129 27.9123 21.357 27.8983 21.0537 27.7431C17.2107 25.7843 15.2309 23.2923 15.1655 20.3383V16.5956C15.1655 15.0836 16.1304 13.7478 17.5642 13.2729L20.4809 12.3058C21.1925 12.0713 21.9754 12.0713 22.6835 12.3058Z" fill="#7C79FB"/>
</g>
<defs>
<clipPath id="clip0_20008065_136">
<rect width="28" height="28" fill="white"/>
</clipPath>
</defs>
</svg>
