<svg width="20" height="20" viewBox="0 0 20 20" fill="none" xmlns="http://www.w3.org/2000/svg">
<mask id="mask0_20008065_264" style="mask-type:alpha" maskUnits="userSpaceOnUse" x="2" y="0" width="16" height="20">
<path d="M2 2C2 1.46957 2.21071 0.960859 2.58579 0.585786C2.96086 0.210714 3.46957 0 4 0L12 0L18 6V18C18 18.5304 17.7893 19.0391 17.4142 19.4142C17.0391 19.7893 16.5304 20 16 20H4C3.46957 20 2.96086 19.7893 2.58579 19.4142C2.21071 19.0391 2 18.5304 2 18V2Z" fill="url(#paint0_linear_20008065_264)"/>
</mask>
<g mask="url(#mask0_20008065_264)">
<path d="M2 2C2 1.46957 2.21071 0.960859 2.58579 0.585786C2.96086 0.210714 3.46957 0 4 0L12 0L18 6V18C18 18.5304 17.7893 19.0391 17.4142 19.4142C17.0391 19.7893 16.5304 20 16 20H4C3.46957 20 2.96086 19.7893 2.58579 19.4142C2.21071 19.0391 2 18.5304 2 18V2Z" fill="#F5F5F5"/>
</g>
<path d="M12 0L18 6H14C13.4696 6 12.9609 5.78929 12.5858 5.41421C12.2107 5.03914 12 4.53043 12 4V0Z" fill="#E9EAEB"/>
<path d="M6.3999 12.4H13.5999M6.3999 12.4V10.8C6.3999 10.5878 6.48419 10.3843 6.63422 10.2343C6.78425 10.0843 6.98773 10 7.1999 10H8.7999M6.3999 12.4V14C6.3999 14.2122 6.48419 14.4157 6.63422 14.5657C6.78425 14.7157 6.98773 14.8 7.1999 14.8H8.7999M13.5999 12.4V14C13.5999 14.2122 13.5156 14.4157 13.3656 14.5657C13.2156 14.7157 13.0121 14.8 12.7999 14.8H8.7999M13.5999 12.4V10.8C13.5999 10.5878 13.5156 10.3843 13.3656 10.2343C13.2156 10.0843 13.0121 10 12.7999 10H8.7999M8.7999 10V14.8" stroke="#414651" stroke-width="0.7" stroke-linecap="round" stroke-linejoin="round"/>
<defs>
<linearGradient id="paint0_linear_20008065_264" x1="10" y1="0" x2="10" y2="20" gradientUnits="userSpaceOnUse">
<stop stop-opacity="0.4"/>
<stop offset="1"/>
</linearGradient>
</defs>
</svg>
