<svg width="20" height="20" viewBox="0 0 20 20" fill="none" xmlns="http://www.w3.org/2000/svg">
<path d="M16.6667 2.5H6.66667C4.825 2.5 3.33333 3.99167 3.33333 5.83333V10.8333C3.33333 12.675 4.825 14.1667 6.66667 14.1667H16.6667C18.5083 14.1667 20 12.675 20 10.8333V5.83333C20 3.99167 18.5083 2.5 16.6667 2.5ZM18.3333 10.8333C18.3333 11.75 17.5833 12.5 16.6667 12.5H6.66667C5.75 12.5 5 11.75 5 10.8333V5.83333C5 4.91667 5.75 4.16667 6.66667 4.16667H16.6667C17.5833 4.16667 18.3333 4.91667 18.3333 5.83333V10.8333ZM15.8333 16.6667C15.8333 17.125 15.4583 17.5 15 17.5H4.16667C1.86667 17.5 0 15.6333 0 13.3333V7.5C0 7.04167 0.375 6.66667 0.833333 6.66667C1.29167 6.66667 1.66667 7.04167 1.66667 7.5V13.3333C1.66667 14.7083 2.79167 15.8333 4.16667 15.8333H15C15.4583 15.8333 15.8333 16.2083 15.8333 16.6667ZM11.6667 5.83333C10.2917 5.83333 9.16667 6.95833 9.16667 8.33333C9.16667 9.70833 10.2917 10.8333 11.6667 10.8333C13.0417 10.8333 14.1667 9.70833 14.1667 8.33333C14.1667 6.95833 13.0417 5.83333 11.6667 5.83333ZM11.6667 9.16667C11.2083 9.16667 10.8333 8.79167 10.8333 8.33333C10.8333 7.875 11.2083 7.5 11.6667 7.5C12.125 7.5 12.5 7.875 12.5 8.33333C12.5 8.79167 12.125 9.16667 11.6667 9.16667Z" fill="white"/>
</svg>
