<svg width="25" height="28" viewBox="0 0 25 28" fill="none" xmlns="http://www.w3.org/2000/svg">
<path d="M24.9517 8.51972C25.01 8.43213 25.01 8.37486 24.9809 8.31647C24.9517 8.25808 24.9226 8.20081 24.8364 8.14242C24.749 8.08403 24.6919 8.05483 24.6045 8.02676C24.5754 8.02676 24.5462 7.99757 24.5171 7.99757H24.4298C24.4006 7.99757 24.4006 7.99757 24.3715 7.96837C24.2841 7.88078 24.1688 7.88078 24.0814 7.96837C24.0814 7.93918 24.1105 7.90998 24.1396 7.90998C24.227 7.88078 24.255 7.82239 24.227 7.73593C24.227 7.67754 24.1979 7.62027 24.1688 7.56187C24.1105 7.44621 24.0243 7.41702 23.8786 7.50348C23.8786 7.47429 23.9078 7.47429 23.9369 7.44509C24.0523 7.4159 24.0243 7.32943 23.9951 7.30024C23.966 7.18458 23.8798 7.12618 23.8215 7.09699C23.7341 7.06779 23.6479 7.06779 23.5605 7.12618C23.4731 7.18457 23.3578 7.24184 23.2704 7.30024L23.1539 7.41702C23.1248 7.47541 23.1248 7.47541 23.0385 7.44621C22.9232 7.38782 22.8067 7.35863 22.6913 7.35863C22.6622 7.35863 22.6039 7.35863 22.5759 7.32943C22.3732 7.24184 22.2578 7.32943 22.1996 7.41702C22.1413 7.47541 22.1122 7.53268 22.055 7.62027C21.9968 7.73593 21.8814 7.79432 21.7649 7.82351C21.6496 7.85271 21.5331 7.8819 21.4468 7.93917C21.3886 7.96837 21.3314 8.02676 21.3023 8.08403C21.2441 8.19969 21.1869 8.28728 21.0704 8.34567C20.9551 8.40406 20.8968 8.49053 20.9551 8.60731V8.63651C20.9259 8.72409 20.8677 8.75216 20.7814 8.75216C20.5787 8.75216 20.4342 8.81055 20.3177 8.89702C20.2303 8.92622 20.2023 8.92622 20.1441 8.92622C20.0567 8.92622 20.0287 8.98461 19.9996 9.04188C19.9704 9.12946 19.9704 9.24512 20.0287 9.30352C20.0578 9.36191 20.1441 9.41918 20.2606 9.41918H20.3759H20.4051V9.47757C20.3759 9.56516 20.3759 9.65162 20.4342 9.73921C20.3759 9.7684 20.3468 9.7684 20.2897 9.7976C20.2314 9.82679 20.1743 9.82679 20.1161 9.82679C20.0287 9.82679 19.9424 9.7976 19.8551 9.82679C19.6232 9.91438 19.3913 9.88518 19.1594 9.82679C19.0149 9.7684 18.8984 9.82679 18.8122 9.91438C18.7539 10.002 18.6386 10.03 18.5221 10.002C18.3485 9.97278 18.1748 9.91438 17.9721 9.82792C17.8567 9.79872 17.7985 9.71226 17.7985 9.59548C17.7985 9.50789 17.8276 9.42142 17.8276 9.33383C17.8567 9.15978 17.8567 9.01492 17.8276 8.86894C17.7985 8.75329 17.7122 8.69489 17.6248 8.6657C17.5375 8.6365 17.4512 8.69489 17.3638 8.75329C17.2485 8.86894 17.1611 8.95653 17.0457 9.01493C16.9583 9.07332 16.9012 9.15978 16.9583 9.33384C16.9874 9.39223 17.0166 9.42143 17.0166 9.4495L17.0457 9.50789C17.0748 9.53709 17.0748 9.59548 17.0457 9.62355C16.9303 9.76841 16.9583 9.85599 17.0457 10.0008C17.0748 10.03 17.0748 10.0884 17.0748 10.1165C17.0748 10.2041 17.0457 10.2614 16.9875 10.2906C16.9292 10.3198 16.8721 10.3198 16.7847 10.3198H16.7556H16.7265H16.6973C16.61 10.3198 16.4946 10.2906 16.4072 10.3781C16.2918 10.2333 16.2045 10.2041 16.0308 10.2906C15.9435 10.3198 15.8863 10.3489 15.8281 10.3198C15.799 10.3198 15.7407 10.2906 15.7127 10.2906C15.6836 10.2906 15.6254 10.2614 15.5973 10.2614C15.482 10.2322 15.3655 10.203 15.2501 10.2906H15.221L15.1919 10.2614C15.1919 10.2614 15.1919 10.2322 15.1627 10.2322V10.203C15.1336 10.0873 15.0754 10.0289 14.9891 9.99972C14.9017 9.97053 14.8446 9.99972 14.7281 10.0581C14.6699 10.0873 14.6127 10.0873 14.5545 10.0289C14.4962 9.97053 14.41 9.88406 14.2935 9.88406V9.85487C14.3226 9.73921 14.2935 9.65162 14.2353 9.59323C14.177 9.53483 14.0908 9.47757 14.0034 9.47757H13.916H13.8578C13.8286 9.47757 13.7704 9.47757 13.7424 9.44837C13.655 9.41918 13.5396 9.41918 13.4523 9.47757C13.4231 9.50676 13.3649 9.50676 13.3078 9.47757C13.2786 9.47757 13.2786 9.47757 13.2495 9.44837C13.2204 9.41918 13.1622 9.41918 13.1341 9.38998C13.0759 9.36079 13.0188 9.36079 12.9896 9.38998C12.9605 9.41918 12.9314 9.44837 12.9314 9.47757C12.9023 9.47757 12.9023 9.44838 12.8732 9.44838L12.844 9.41918C12.7858 9.38999 12.7567 9.38999 12.6995 9.36079C12.6413 9.36079 12.6122 9.3316 12.5842 9.2732C12.6413 9.27433 12.5842 9.21593 12.4677 9.21593H12.3523C12.294 9.21593 12.2369 9.21593 12.2078 9.15754C12.1787 9.12835 12.1204 9.09915 12.0924 9.06995C12.005 9.01157 11.9188 9.01157 11.8897 9.06995C11.8605 9.09915 11.8314 9.09915 11.7743 9.06995C11.7452 9.04076 11.6869 9.01157 11.6589 8.98237C11.6007 8.95317 11.5715 8.89478 11.5144 8.86671C11.4853 8.83751 11.427 8.80832 11.3699 8.80832C11.3408 8.80832 11.3117 8.77912 11.3117 8.74992C11.2825 8.66234 11.2534 8.60507 11.1672 8.57587L11.0518 8.51748C10.9644 8.48829 10.9073 8.45909 10.8199 8.42989C10.7908 8.4007 10.7325 8.4007 10.7045 8.3715C10.6172 8.28392 10.56 8.19745 10.4435 8.16826C10.4435 8.10987 10.5018 8.08067 10.5309 8.0234C10.6183 7.93581 10.6463 7.84935 10.6183 7.73257C10.5892 7.67418 10.6183 7.64498 10.6474 7.64498C10.6765 7.61579 10.7057 7.58659 10.7057 7.52932C10.7057 7.41366 10.7639 7.32608 10.8793 7.23849C10.9084 7.2093 10.9084 7.2093 10.9375 7.1801C10.9667 7.15091 10.9958 7.12171 11.0529 7.09252L11.082 7.06332C11.1112 7.06332 11.1112 7.03413 11.1403 7.03413C11.1985 7.00493 11.2276 6.94654 11.1985 6.88927C11.1985 6.83088 11.1694 6.80168 11.1111 6.77361C11.082 6.74441 11.0529 6.71522 10.9958 6.68602C10.9667 6.65683 10.9667 6.65683 10.9375 6.62763H10.9084C10.8793 6.59844 10.8502 6.56924 10.821 6.56924C10.7628 6.54005 10.6765 6.51085 10.6183 6.51085L10.56 6.48166V6.45246C10.56 6.3076 10.5018 6.24921 10.3573 6.24921H10.3282C10.2699 6.13355 10.1837 6.07516 10.038 6.10436C9.9798 6.10436 9.95068 6.10436 9.89355 6.04597V6.01677C9.86442 5.98758 9.8353 5.92918 9.77817 5.90111C9.74905 5.87192 9.71993 5.84272 9.71993 5.81352C9.66168 5.66867 9.57543 5.61028 9.42981 5.63947C9.40069 5.63947 9.37157 5.66867 9.34244 5.66867C9.37156 5.63947 9.40069 5.55301 9.31332 5.46542C9.28419 5.43623 9.28419 5.40703 9.31332 5.37783C9.37156 5.23298 9.34244 5.14539 9.22594 5.05892C9.1677 5.00053 9.13857 4.94326 9.13857 4.85567C9.13857 4.82648 9.1677 4.74001 9.10945 4.71081L9.1677 4.65242L9.19682 4.68162C9.22594 4.71081 9.22594 4.74001 9.25506 4.76921C9.34244 4.88486 9.45781 4.88487 9.5732 4.8276L9.60232 4.7984C9.63144 4.76921 9.66057 4.76921 9.68969 4.74001C9.71881 4.74001 9.71881 4.71082 9.74794 4.71082L9.77706 4.68162C9.86443 4.68162 9.92156 4.62323 9.92156 4.56596C9.95069 4.50757 9.92156 4.4503 9.89244 4.39191C9.83419 4.33352 9.83419 4.30432 9.83419 4.21786V4.18866V4.15947C9.83419 4.07188 9.83419 4.01461 9.77594 3.95622C9.74682 3.92703 9.68857 3.89783 9.60232 3.89783C9.5732 3.89783 9.5732 3.89783 9.5732 3.86863C9.5732 3.83944 9.54407 3.81024 9.51495 3.75298L9.48583 3.72378C9.48583 3.66539 9.4567 3.57892 9.42758 3.54973C9.42758 3.54973 9.42758 3.52053 9.39846 3.52053C9.4567 3.46214 9.48583 3.40487 9.48583 3.31729C9.54408 3.28809 9.5732 3.28809 9.63033 3.28809C9.83308 3.28809 9.92044 3.2297 9.97757 3.02645C10.0067 2.91079 10.0649 2.8524 10.1512 2.79401C10.1803 2.76481 10.2094 2.76481 10.2094 2.73562C10.2386 2.70642 10.2677 2.70642 10.2968 2.67723C10.4704 2.58964 10.5578 2.44478 10.5578 2.24154V2.21235V2.15396C10.5578 2.12476 10.5869 2.06637 10.5869 2.0383C10.6452 1.95071 10.6743 1.86425 10.6161 1.77666C10.7012 1.725 10.6429 1.66661 10.5276 1.66661C10.4693 1.66661 10.3831 1.63742 10.3248 1.60822C10.2094 1.54983 10.1221 1.43417 10.0347 1.31739C9.94733 1.22981 9.86108 1.20173 9.74459 1.22981C9.68634 1.22981 9.65721 1.259 9.60008 1.2882C9.57096 1.2882 9.54184 1.31739 9.51271 1.31739H9.48359C9.45446 1.31739 9.39622 1.34659 9.36821 1.34659C9.19459 1.37578 9.05008 1.43417 8.9336 1.52064C8.81823 1.60823 8.70173 1.6363 8.58636 1.60823H8.49899H8.44075L8.35337 1.57903C8.20887 1.54984 8.06326 1.52064 7.91876 1.46337C7.86051 1.43418 7.80338 1.40498 7.77426 1.34771C7.71601 1.23205 7.65888 1.20286 7.54239 1.23205H7.48414C7.4259 1.23205 7.36877 1.23205 7.33964 1.20286C7.31052 1.17366 7.31052 1.11527 7.31052 1.058C7.31052 0.999611 7.33964 0.913144 7.36876 0.825559C7.39789 0.737971 7.39789 0.651507 7.36876 0.593116C7.31052 0.448259 7.22426 0.360674 7.07865 0.302287C7.04953 0.302287 7.04953 0.273092 7.0204 0.273092C6.8759 0.214702 6.7594 0.185504 6.67316 0.0698447C6.64404 0.0114546 6.55779 -0.0177433 6.49954 0.0114546C6.47042 0.0114546 6.47042 0.0114546 6.44129 0.0406497C6.41217 0.0406497 6.41217 0.0698447 6.38305 0.0698447H6.3248C6.23743 0.0114546 6.09293 -0.0177433 6.00667 0.0406497C5.92154 0.156309 5.80616 0.185507 5.71879 0.214702H5.37155H5.19793H5.16881C5.05343 0.214702 4.90781 0.214702 4.79243 0.30229H4.73419H4.70506H4.61769H4.55944C4.44407 0.30229 4.3567 0.36068 4.29845 0.476342C4.29845 0.505537 4.26932 0.534732 4.2402 0.56393C4.0957 0.651518 4.03745 0.767177 4.03745 0.912023C4.03745 1.05688 4.12483 1.17366 4.26932 1.26012C4.29845 1.26012 4.32757 1.28931 4.32757 1.28931C4.3567 1.28931 4.41495 1.31851 4.44295 1.3477C4.58745 1.43529 4.73306 1.52176 4.81932 1.66662C4.84844 1.69581 4.87757 1.72501 4.90669 1.75421C4.90669 1.75421 4.93582 1.75421 4.93582 1.7834C4.93582 1.7834 4.96494 1.8126 4.99406 1.8126C4.99406 1.8126 5.02319 1.8126 5.02319 1.84179C5.08143 1.92938 5.16769 1.98665 5.3133 2.01584C5.34242 2.01584 5.37155 2.04504 5.40067 2.04504C5.4298 2.04504 5.45892 2.07423 5.48805 2.07423C5.51717 2.07423 5.5463 2.10343 5.51717 2.16182C5.51717 2.22021 5.48805 2.24941 5.48805 2.30668C5.48805 2.33587 5.45892 2.39427 5.45892 2.42234C5.40068 2.62559 5.40068 2.79964 5.48805 2.9737C5.51717 3.03209 5.51717 3.11856 5.51717 3.17695V3.23534V3.67102V3.70021C5.51717 3.7586 5.51717 3.81587 5.45892 3.84507C5.4298 3.87427 5.40068 3.93266 5.4298 3.96073C5.45892 4.01912 5.51717 4.13478 5.66167 4.16398H5.69079V4.19317C5.66167 4.28076 5.71992 4.36723 5.77817 4.39642C5.80729 4.42562 5.86554 4.42561 5.89354 4.45481C5.89354 4.45481 5.92266 4.45481 5.92266 4.48401V4.5132V4.62886C5.92266 4.65805 5.92267 4.68725 5.95179 4.71645C5.98091 4.74564 6.01003 4.74564 6.03916 4.74564H6.15454H6.24191C6.32928 4.74564 6.38641 4.77484 6.44466 4.83323C6.41553 4.83323 6.38641 4.86243 6.35728 4.86243C6.26991 4.89162 6.18366 4.95001 6.06717 5.00728C5.92267 5.06567 5.80617 5.15214 5.71993 5.21053C5.66168 5.23973 5.66168 5.26892 5.66168 5.29812C5.66168 5.32732 5.66168 5.35651 5.71993 5.38571C5.83531 5.4441 5.83531 5.50137 5.77818 5.58895C5.71993 5.67654 5.6628 5.76301 5.60455 5.85059C5.57543 5.87979 5.54631 5.90898 5.51718 5.93818C5.31443 6.17062 5.11167 6.43228 5.05343 6.75116C4.79244 6.78036 4.67706 6.89602 4.56055 7.12846C4.53143 7.21605 4.5023 7.30252 4.47318 7.3901C4.41493 7.53496 4.32868 7.65174 4.18306 7.70902C4.09569 7.73821 4.03856 7.79661 3.95119 7.82468C3.80669 7.91227 3.6902 8.02792 3.63306 8.14359C3.60394 8.20199 3.54569 8.28845 3.51769 8.37603C3.40231 8.55009 3.25669 8.63768 3.08307 8.63768C2.90945 8.63768 2.76494 8.66687 2.61933 8.72526H2.56108C2.44571 8.75446 2.41658 8.72526 2.35833 8.63768V8.60848C2.32921 8.57928 2.32921 8.55009 2.30009 8.52089C2.24184 8.4333 2.15559 8.40523 2.03909 8.4333C2.00997 8.4333 1.95172 8.4625 1.95172 8.52089C1.95172 8.55009 1.92259 8.57929 1.92259 8.57929C1.77809 8.63768 1.74897 8.75334 1.71985 8.87011C1.69072 8.98577 1.6616 9.04417 1.54622 9.07336C1.3726 9.13175 1.28523 9.27661 1.25611 9.45066C1.22698 9.59552 1.22698 9.7123 1.31435 9.79875C1.3726 9.88634 1.48798 9.94361 1.63249 9.97281H1.66161C1.69073 9.97281 1.71986 9.97281 1.74898 10.002C1.74898 10.002 1.7781 10.002 1.7781 10.0312C1.7781 10.0604 1.74898 10.0896 1.74898 10.1188C1.71986 10.2064 1.69073 10.2928 1.69073 10.4096C1.66161 10.6421 1.74898 10.8161 2.00887 10.8745H2.03799C2.06711 10.8745 2.09624 10.8745 2.12536 10.9037C2.18361 10.9037 2.21273 10.9621 2.21273 11.0194V11.0486C2.21273 11.1361 2.24186 11.2518 2.27098 11.3394C2.32923 11.5134 2.35835 11.6875 2.38636 11.8907C2.38636 12.0356 2.38636 12.0356 2.24185 12.0648C2.24185 12.0648 2.21273 12.0648 2.21273 12.0356C2.15448 11.948 2.09736 11.9199 2.00998 11.9199C1.83636 11.9199 1.69185 11.9491 1.57537 12.0356C1.51712 12.094 1.46 12.094 1.37262 12.0356C1.14075 11.9199 0.908876 11.8907 0.706137 11.8615C0.590762 11.8615 0.532513 11.8615 0.50339 11.9199C0.445143 11.9783 0.445143 12.0356 0.445143 12.1524V12.2108H0.41602H0.386896H0.32865C0.184149 12.2108 0.0385353 12.2984 0.0105189 12.4432C-0.0186043 12.5589 0.0105189 12.7049 0.125894 12.7913C0.155017 12.7913 0.155017 12.8205 0.155017 12.8497C0.18414 13.0529 0.328641 13.1405 0.445132 13.1978C0.503378 13.227 0.560507 13.2562 0.618756 13.3134C0.647879 13.3426 0.677002 13.3426 0.706129 13.3718C0.735252 13.401 0.793501 13.4302 0.821503 13.4302C0.87975 13.4594 0.936878 13.5178 1.02425 13.5459C1.13963 13.6043 1.227 13.6043 1.34238 13.5459C1.40063 13.5167 1.42975 13.5167 1.48688 13.4875C1.57426 13.4583 1.66051 13.4583 1.71875 13.4875C1.68963 13.5167 1.66051 13.5167 1.63138 13.5167C1.54401 13.5167 1.45776 13.5751 1.39951 13.6324C1.34126 13.6907 1.28414 13.7199 1.19676 13.748H1.13852C1.05114 13.748 0.964892 13.7772 0.877519 13.8064C0.819269 13.8356 0.81927 13.8356 0.762144 13.748C0.703898 13.6604 0.646769 13.6324 0.530273 13.6604C0.442901 13.6896 0.414899 13.748 0.414899 13.8637C0.414899 13.9793 0.473145 14.0961 0.5594 14.1826C0.591884 14.2107 0.591884 14.2107 0.621007 14.2399C0.65013 14.2691 0.679253 14.2982 0.70838 14.3274C0.85288 14.5015 0.969377 14.6755 1.08475 14.8215L1.31662 15.1124C1.34575 15.1708 1.404 15.2 1.432 15.2572C1.72211 15.5761 2.04024 15.6637 2.44575 15.5189C2.47487 15.4897 2.53312 15.4897 2.56112 15.4605C2.6485 15.4313 2.70562 15.4021 2.79299 15.3729C2.9375 15.3437 3.05399 15.2853 3.16937 15.228C3.19849 15.1988 3.22761 15.1988 3.28474 15.1696C3.34299 15.1404 3.40012 15.0821 3.40012 14.9956V14.9372V14.7923C3.42924 14.6767 3.40012 14.5891 3.34187 14.5015V14.4723L3.37099 14.4431C3.48637 14.3847 3.51549 14.2691 3.48637 14.1523L3.57374 14.1815V14.2107V14.3263V14.3847C3.51549 14.588 3.51549 14.6464 3.66111 14.7328C3.54574 14.8485 3.51661 14.9361 3.60287 15.1101C3.63199 15.1685 3.66111 15.2258 3.69024 15.2842C3.74849 15.3718 3.74849 15.4582 3.74849 15.575C3.74849 15.6042 3.74849 15.6626 3.71936 15.6907C3.69024 15.8355 3.66112 15.9523 3.60399 16.0972C3.54574 16.2128 3.51661 16.3296 3.54574 16.4745C3.60399 16.7069 3.60399 16.9686 3.60399 17.1718C3.60399 17.201 3.60399 17.2875 3.69136 17.3167V17.3459C3.60399 17.4907 3.60399 17.6075 3.69136 17.7815C3.72048 17.8107 3.72048 17.8691 3.72048 17.8972C3.72048 18.0713 3.74961 18.2161 3.77873 18.3621V18.3913C3.80785 18.5069 3.83698 18.6237 3.83698 18.7394V18.9426V19.1751C3.8661 19.4075 3.92435 19.6692 3.95235 19.9005V19.9297C3.98147 20.1037 4.03972 20.2486 4.12598 20.3362L4.1551 20.3654C4.21335 20.4237 4.24247 20.4529 4.21335 20.5102V20.5686C4.21335 20.5978 4.21335 20.5978 4.24247 20.627C4.24247 20.6854 4.27159 20.7146 4.27159 20.7719C4.30072 21.0627 4.41609 21.3232 4.61883 21.4972C4.7062 21.5848 4.7342 21.6713 4.76333 21.7881C4.79245 21.9037 4.79245 22.0497 4.8507 22.1654C4.93808 22.3394 4.96608 22.5135 4.96608 22.6875C4.96608 22.9492 4.9952 23.1816 5.11058 23.4129C5.22595 23.6454 5.34245 23.8778 5.45782 24.1383C5.48694 24.1967 5.54519 24.254 5.60232 24.3124C5.66056 24.3416 5.68969 24.4 5.68969 24.4864C5.71881 24.6021 5.74794 24.6605 5.77706 24.7481C5.86444 24.8929 5.92156 25.0389 5.97981 25.1837C6.00893 25.2713 6.03806 25.3286 6.06718 25.4162C6.09631 25.4746 6.09631 25.5038 6.12543 25.561C6.15455 25.6194 6.15455 25.7059 6.18368 25.7643C6.18368 25.7935 6.2128 25.8519 6.2128 25.9091C6.2128 25.9675 6.2128 25.9967 6.24192 26.054C6.27105 26.1416 6.27105 26.1989 6.30017 26.2864C6.32929 26.3448 6.32929 26.4021 6.32929 26.4605C6.35842 26.5481 6.35842 26.6053 6.38754 26.6929C6.41666 26.8378 6.44579 27.0118 6.50291 27.1578C6.59029 27.4487 6.73479 27.6519 6.96666 27.7384C7.11116 27.7968 7.22766 27.854 7.37217 27.9416C7.43041 27.9708 7.51667 28 7.60404 28C7.63316 28 7.66229 28 7.71941 27.9708C7.86391 27.9124 8.00953 27.8551 8.15403 27.7092C8.21227 27.6508 8.21227 27.5643 8.18315 27.5059V27.4767C8.18315 27.4183 8.15403 27.3611 8.15403 27.3027C8.15403 27.2151 8.18315 27.1578 8.21227 27.0702V27.041C8.2414 26.9534 8.29965 26.9254 8.3859 26.9254C8.55952 26.9546 8.73313 26.8962 8.87878 26.867C8.99415 26.8378 9.0524 26.7794 9.02328 26.6345C8.99416 26.5189 9.02328 26.4313 9.11065 26.3729C9.22603 26.228 9.34252 26.0821 9.40077 25.908C9.40077 25.8788 9.42989 25.8496 9.48814 25.8496C9.57551 25.8496 9.66176 25.8496 9.74914 25.8788C9.77826 25.8788 9.83651 25.8788 9.83651 25.8496C9.83651 25.8496 9.86563 25.8204 9.86563 25.7912V25.762C9.86563 25.6744 9.89476 25.6172 9.86563 25.5296C9.83651 25.3555 9.83651 25.2107 9.83651 25.0647C9.86563 24.9198 9.86563 24.7458 9.80739 24.5998C9.74914 24.4842 9.77826 24.3674 9.86563 24.2225C9.98101 24.0485 10.0684 23.8744 10.1557 23.7284L10.1849 23.67C10.2431 23.5544 10.2722 23.4376 10.2431 23.3219C10.2431 23.2927 10.2431 23.2343 10.2722 23.1771C10.3305 23.0614 10.3596 22.9446 10.3305 22.829C10.3014 22.7706 10.3014 22.7133 10.2722 22.6257C10.2431 22.5381 10.2431 22.4809 10.2722 22.4225C10.3305 22.3068 10.3305 22.19 10.2431 22.1036C10.1849 22.0452 10.1849 21.9879 10.214 21.9003C10.2722 21.7263 10.2722 21.5522 10.1849 21.349C10.1558 21.2614 10.1266 21.2041 10.1557 21.1457C10.214 21.0301 10.214 20.9425 10.214 20.7976C10.214 20.7392 10.214 20.71 10.2722 20.682H10.3014C10.3305 20.682 10.3305 20.682 10.3596 20.6528C10.3887 20.6528 10.4179 20.6236 10.4179 20.6236C10.4761 20.5944 10.5052 20.5652 10.5624 20.5652H10.5915C10.6206 20.5944 10.6206 20.5944 10.6497 20.6236C10.6789 20.6528 10.708 20.682 10.7371 20.682C10.7954 20.7112 10.8525 20.7112 10.9107 20.7112C10.9399 20.7112 10.969 20.682 10.9981 20.6528C11.0272 20.5944 11.0272 20.5371 11.0563 20.5079C11.0855 20.4495 11.0855 20.3923 11.1146 20.3339C11.1146 20.3047 11.1437 20.2755 11.1437 20.2755C11.202 20.2463 11.2311 20.2171 11.2311 20.1598V20.1014H11.2893C11.3185 20.1014 11.3185 20.1014 11.3476 20.1306C11.3767 20.1306 11.4058 20.1598 11.435 20.1598C11.435 20.1598 11.5223 20.1598 11.5503 20.1306C11.5795 20.0722 11.6377 20.0722 11.6948 20.0722H11.7822H11.8696C12.0141 20.0722 12.1306 20.0138 12.1877 19.8982C12.246 19.7533 12.2751 19.6073 12.2168 19.4625C12.1877 19.4333 12.2168 19.4041 12.246 19.3749L12.2751 19.3457C12.3042 19.3165 12.3333 19.3165 12.3625 19.2873C12.4207 19.2289 12.507 19.1717 12.6234 19.1425C12.8553 19.0841 12.9998 18.9684 13.0872 18.7652C13.1746 18.5911 13.2899 18.4743 13.4927 18.4171H13.5218H13.5509C13.6663 18.3587 13.7828 18.3014 13.8691 18.1846C13.8982 18.1554 13.9273 18.1262 13.9565 18.097C13.9856 18.0678 14.0147 18.0387 14.0438 17.9814C14.0438 17.9522 14.0729 17.9522 14.0729 17.923C14.1312 17.8646 14.1883 17.7781 14.2174 17.6905C14.2757 17.5165 14.3911 17.3716 14.5076 17.2549C14.6521 17.11 14.8257 16.964 15.0284 16.8484C15.0576 16.8192 15.1158 16.8192 15.1729 16.79C15.2883 16.7608 15.4048 16.7316 15.5493 16.7024L15.6647 16.6732C15.7801 16.644 15.8383 16.5856 15.8966 16.4991C15.9257 16.4407 15.9548 16.4115 15.9839 16.3835C16.0422 16.3251 16.0993 16.2678 16.1284 16.1802C16.1284 16.1218 16.1575 16.0646 16.2438 16.0354C16.2729 16.0062 16.302 16.0062 16.3312 15.977C16.3894 15.9186 16.4465 15.8613 16.4465 15.8029C16.4465 15.7445 16.4465 15.6581 16.3883 15.5997C16.3592 15.5705 16.3592 15.5413 16.3301 15.5121L16.3009 15.4829C16.2718 15.4537 16.2718 15.4245 16.2718 15.3672C16.2718 15.338 16.3009 15.3088 16.3301 15.2796C16.3592 15.2796 16.3592 15.2505 16.3883 15.2505C16.4757 15.1921 16.5328 15.1348 16.5619 15.0472C16.5619 15.018 16.591 14.9888 16.6493 14.9888C16.7938 14.9596 16.9103 14.9596 17.0548 14.9304H17.1702C17.1993 14.9888 17.2576 15.0461 17.3438 15.0461C17.4312 15.0461 17.5174 14.9877 17.5174 14.9012H17.6048C17.6339 14.9304 17.663 14.9596 17.663 14.9596H17.6922C17.7213 14.9304 17.7504 14.9596 17.8075 14.9596H17.8367C17.8367 14.9596 17.8949 14.9596 17.924 14.9304C17.9532 14.9012 17.9532 14.9012 17.9823 14.9304H18.0114C18.0988 14.9596 18.1559 14.9304 18.185 14.872C18.2142 14.8136 18.2142 14.7564 18.185 14.6688C18.1268 14.5531 18.1268 14.5531 18.2142 14.4655C18.2433 14.4363 18.2724 14.3779 18.2724 14.3207C18.2724 14.2915 18.2433 14.2623 18.2142 14.2331C18.1268 14.1747 18.1268 14.1174 18.1268 13.9714C18.1268 13.8839 18.0977 13.7682 18.0394 13.6234C18.0103 13.565 17.9812 13.5077 18.0103 13.4493C18.0394 13.3909 18.0394 13.3336 18.0103 13.3044C17.9812 13.2752 17.952 13.2461 17.8658 13.2169H17.8367C17.8949 13.1012 17.8658 13.0428 17.7493 12.9552L17.7202 12.926C17.691 12.8676 17.7202 12.8384 17.7493 12.7812C17.8647 12.6936 17.8367 12.6363 17.7784 12.5487C17.7784 12.4611 17.7784 12.4039 17.7202 12.3163C17.6619 12.2287 17.5757 12.2006 17.4592 12.1714C17.43 12.1714 17.4009 12.1422 17.3718 12.113C17.3136 12.0838 17.2844 12.0254 17.2564 11.9974L17.2273 11.9682L17.1982 11.939C17.1982 11.9098 17.2273 11.8806 17.2273 11.8806C17.3147 11.8514 17.3718 11.8222 17.43 11.7649C17.4883 11.7065 17.5174 11.6773 17.5174 11.5909V11.5617H17.5757C17.663 11.5617 17.7493 11.5617 17.8075 11.5325C17.8658 11.5325 17.9229 11.4741 17.9229 11.4168C17.952 11.3584 17.9229 11.3012 17.8938 11.272C17.8647 11.2428 17.8355 11.2428 17.8064 11.2136C17.8064 11.0979 17.7482 11.0687 17.6328 11.0687H17.5174C17.4592 10.9531 17.3729 10.9239 17.2855 10.8947C17.2564 10.8947 17.2273 10.8655 17.1982 10.8655C17.2564 10.8363 17.2855 10.7498 17.2564 10.6622L17.2855 10.633C17.3729 10.5746 17.4009 10.5174 17.43 10.4298V10.4006H17.4592C17.4592 10.4006 17.4883 10.4006 17.4883 10.4298C17.5174 10.459 17.5465 10.459 17.5757 10.459H17.6048C17.6339 10.4882 17.6922 10.5174 17.7493 10.5174C17.8647 10.5174 17.8647 10.4882 17.8938 10.4017C17.8938 10.4309 17.9229 10.4309 17.9229 10.4601C17.952 10.5185 17.9812 10.605 18.0383 10.6342C18.1257 10.6634 18.2119 10.6925 18.2993 10.7217H18.4147C18.4438 10.6926 18.4438 10.6342 18.4438 10.6061V10.5769H18.4729V10.6061C18.4729 10.6353 18.502 10.6937 18.502 10.7217C18.5312 10.7801 18.5312 10.8093 18.502 10.8374C18.4147 10.9531 18.4147 11.1282 18.4729 11.2439C18.5312 11.3888 18.6465 11.4764 18.791 11.5055C18.9938 11.5347 19.1674 11.5639 19.341 11.5639C19.5147 11.5639 19.6883 11.5347 19.8339 11.5347C19.8922 11.5347 19.9213 11.5347 19.9784 11.5055H20.0075C20.1229 11.5055 20.2394 11.4764 20.3548 11.5055C20.4702 11.5347 20.5867 11.5347 20.6729 11.5055H20.7312C20.6158 11.5931 20.5867 11.7088 20.5575 11.7964C20.5575 11.8256 20.5575 11.8256 20.5284 11.8548V11.9132C20.4993 12.058 20.3839 12.1748 20.2103 12.204C20.0075 12.2624 19.7757 12.378 19.7465 12.6981V12.7273V12.8149C19.7465 12.9305 19.7174 13.0473 19.7757 13.1338C19.863 13.2786 19.9784 13.3954 20.0938 13.4819C20.2092 13.5695 20.3839 13.5403 20.4993 13.4235C20.5575 13.3651 20.5575 13.2786 20.4993 13.2202C20.4993 13.2202 20.4993 13.191 20.4702 13.191C20.5284 13.1035 20.5855 12.9878 20.5855 12.8721H20.7009V12.9013C20.7009 12.9305 20.73 12.9889 20.73 13.017C20.7592 13.2494 20.7883 13.4235 20.9037 13.5975C20.9328 13.6267 20.9328 13.6851 20.9328 13.7132V13.7716V13.8592C20.9328 13.9176 20.9619 14.004 20.9619 14.0916C20.9619 14.1208 21.0202 14.1792 21.0493 14.2073C21.1075 14.2365 21.1938 14.2657 21.252 14.2949C21.3394 14.324 21.3965 14.324 21.4548 14.2365C21.5702 14.0624 21.6867 13.8592 21.5993 13.5683C21.5702 13.4527 21.5702 13.3651 21.6284 13.2494C21.6575 13.2202 21.6575 13.191 21.6867 13.1618C21.7449 13.0742 21.774 12.9586 21.7449 12.8429C21.7449 12.7553 21.7158 12.6689 21.7158 12.5813V12.5229H21.7449C21.774 12.4937 21.8031 12.4937 21.8031 12.4645C21.8031 12.4353 21.8031 12.4353 21.8323 12.4353H21.8905C21.9196 12.4353 21.9488 12.4645 22.0059 12.4645C22.0641 12.4937 22.0933 12.4937 22.1504 12.5229C22.2658 12.5521 22.3531 12.5229 22.4114 12.4072C22.4405 12.3488 22.4696 12.2916 22.4696 12.2332C22.4988 12.1175 22.5279 12.0299 22.557 11.9143C22.6153 11.6234 22.7015 11.3337 22.7306 11.0429V11.0137C22.9043 10.9261 22.9916 10.7521 23.0779 10.578C23.1652 10.3748 23.1932 10.2007 23.107 10.0267V9.99746C23.107 9.93907 23.107 9.90987 23.1361 9.8818C23.1652 9.8526 23.1944 9.8234 23.2235 9.79421C23.2526 9.76501 23.2526 9.73582 23.2817 9.73582L23.3109 9.70662C23.34 9.67743 23.3691 9.64823 23.4262 9.61904C23.5416 9.56065 23.629 9.50338 23.6872 9.3574C23.7164 9.24174 23.8026 9.21254 23.9191 9.18334C24.0636 9.18334 24.151 9.15415 24.2372 9.06768C24.2664 9.03849 24.2955 9.03849 24.2955 9.03849C24.3246 9.03849 24.3246 9.06769 24.3537 9.09688C24.3537 9.09688 24.3829 9.12607 24.3829 9.15527V9.18447C24.412 9.24286 24.4411 9.27205 24.4982 9.30012C24.5565 9.32932 24.5856 9.30012 24.6427 9.27093C24.6719 9.24173 24.701 9.24173 24.701 9.18334C24.701 9.15415 24.701 9.12495 24.6719 9.09575C24.6427 9.06656 24.6136 9.03736 24.5845 9.00816L24.5554 8.97897C24.4109 8.80492 24.4109 8.77572 24.5845 8.63088C24.8365 8.66457 24.8946 8.57699 24.9517 8.51972Z" fill="#FE6300"/>
</svg>
