<svg width="28" height="28" viewBox="0 0 28 28" fill="none" xmlns="http://www.w3.org/2000/svg">
<g clip-path="url(#clip0_20008065_184)">
<path d="M26.8333 11.6083C26.8333 9.67867 25.263 8.10833 23.3333 8.10833H22.8165C23.6122 6.14017 24.5 3.74733 24.5 2.85833C24.5 1.24717 23.1945 0 21.5833 0C19.9722 0 18.6667 1.24717 18.6667 2.85833C18.6667 3.74733 19.5545 6.14017 20.3502 8.10833H19.8333C17.9037 8.10833 16.3333 9.67867 16.3333 11.6083C15.6882 11.6083 15.1667 12.1298 15.1667 12.775C15.1667 13.4202 15.6882 13.9417 16.3333 13.9417H26.8333C27.4785 13.9417 28 13.4202 28 12.775C28 12.1298 27.4785 11.6083 26.8333 11.6083ZM27.9907 24.696C27.9743 24.878 27.9557 25.0168 27.9358 25.0833C27.4342 26.7703 25.8708 28 24.0217 28H13.1133C13.6733 27.1647 14 26.1613 14 25.0833C14 23.4722 15.3055 22.1667 16.9167 22.1667H25.6643C27.0293 22.1667 28.1132 23.3368 27.9895 24.696H27.9907ZM3.5 1.75V5.83333H2.91667C1.3055 5.83333 0 4.52783 0 2.91667V1.75C0 0.784 0.784 0 1.75 0C2.716 0 3.5 0.784 3.5 1.75ZM11.6667 25.0833C11.6667 26.7937 10.1955 28.1598 8.449 27.9848C6.93117 27.8332 5.83333 26.4425 5.83333 24.9165V1.75C5.83333 1.12467 5.691 0.530833 5.439 0H17.2083C16.6588 0.820167 16.3333 1.80133 16.3333 2.85833C16.3333 3.4265 16.4558 4.30967 17.2002 6.40383C15.7757 7.12717 14.6872 8.41867 14.2322 9.97733C13.3828 10.6167 12.8333 11.6317 12.8333 12.7738C12.8333 14.7035 14.4037 16.2738 16.3333 16.2738H23.3333V19.8322H16.9167C14.0175 19.8322 11.6667 22.1842 11.6667 25.0833Z" fill="#FFCF0D"/>
<path d="M11.6667 25.0833C11.6667 26.7937 10.1955 28.1598 8.449 27.9848C6.93117 27.8332 5.83333 26.4425 5.83333 24.9165V1.75C5.83333 1.12467 5.691 0.530833 5.439 0H17.2083C16.6588 0.820167 16.3333 1.80133 16.3333 2.85833C16.3333 3.4265 16.4558 4.30967 17.2002 6.40383C15.7757 7.12717 14.6872 8.41867 14.2322 9.97733C13.3828 10.6167 12.8333 11.6317 12.8333 12.7738C12.8333 14.7035 14.4037 16.2738 16.3333 16.2738H23.3333V19.8322H16.9167C14.0175 19.8322 11.6667 22.1842 11.6667 25.0833Z" fill="#CE8C00"/>
<path d="M27.9907 24.696C27.9743 24.878 27.9557 25.0168 27.9358 25.0833C27.4342 26.7703 25.8708 28 24.0217 28H13.1133C13.6733 27.1647 14 26.1613 14 25.0833C14 23.4722 15.3055 22.1667 16.9167 22.1667H25.6643C27.0293 22.1667 28.1132 23.3368 27.9895 24.696H27.9907Z" fill="#CE8C00"/>
<path d="M3.5 1.75V5.83333H2.91667C1.3055 5.83333 0 4.52783 0 2.91667V1.75C0 0.784 0.784 0 1.75 0C2.716 0 3.5 0.784 3.5 1.75Z" fill="#CE8C00"/>
</g>
<defs>
<clipPath id="clip0_20008065_184">
<rect width="28" height="28" fill="white"/>
</clipPath>
</defs>
</svg>
