<svg width="40" height="40" viewBox="0 0 40 40" fill="none" xmlns="http://www.w3.org/2000/svg">
<path d="M0 8C0 3.58172 3.58172 0 8 0H32C36.4183 0 40 3.58172 40 8V32C40 36.4183 36.4183 40 32 40H8C3.58172 40 0 36.4183 0 32V8Z" fill="white"/>
<g clip-path="url(#clip0_20008415_49016)">
<path d="M27.2193 18.1145L24.6333 15.5285C24.5075 15.407 24.3391 15.3398 24.1643 15.3413C23.9895 15.3429 23.8223 15.413 23.6987 15.5366C23.5751 15.6602 23.505 15.8274 23.5035 16.0022C23.502 16.177 23.5692 16.3454 23.6906 16.4711L26.2766 19.0571C26.3534 19.1355 26.4206 19.2228 26.4766 19.3171C26.4666 19.3171 26.4586 19.3118 26.4486 19.3118L15.9926 19.3331C15.8158 19.3331 15.6462 19.4034 15.5212 19.5284C15.3962 19.6534 15.3259 19.823 15.3259 19.9998C15.3259 20.1766 15.3962 20.3462 15.5212 20.4712C15.6462 20.5962 15.8158 20.6665 15.9926 20.6665L26.4446 20.6451C26.4633 20.6451 26.4786 20.6358 26.4966 20.6345C26.4375 20.7472 26.3625 20.8509 26.2739 20.9425L23.6879 23.5285C23.6243 23.5899 23.5735 23.6635 23.5385 23.7448C23.5036 23.8262 23.4852 23.9137 23.4844 24.0022C23.4837 24.0907 23.5005 24.1785 23.534 24.2604C23.5676 24.3424 23.6171 24.4168 23.6797 24.4794C23.7423 24.542 23.8167 24.5915 23.8986 24.625C23.9806 24.6585 24.0683 24.6754 24.1569 24.6746C24.2454 24.6739 24.3329 24.6555 24.4142 24.6205C24.4955 24.5856 24.5691 24.5348 24.6306 24.4711L27.2166 21.8851C27.7165 21.385 27.9974 20.7069 27.9974 19.9998C27.9974 19.2927 27.7165 18.6145 27.2166 18.1145H27.2193Z" fill="#D4362E"/>
<path d="M16.6667 26.6667H15.3333C14.8029 26.6667 14.2942 26.456 13.9191 26.0809C13.544 25.7058 13.3333 25.1971 13.3333 24.6667V15.3333C13.3333 14.8029 13.544 14.2942 13.9191 13.9191C14.2942 13.544 14.8029 13.3333 15.3333 13.3333H16.6667C16.8435 13.3333 17.013 13.2631 17.1381 13.1381C17.2631 13.013 17.3333 12.8435 17.3333 12.6667C17.3333 12.4899 17.2631 12.3203 17.1381 12.1953C17.013 12.0702 16.8435 12 16.6667 12H15.3333C14.4496 12.0011 13.6024 12.3526 12.9775 12.9775C12.3526 13.6024 12.0011 14.4496 12 15.3333L12 24.6667C12.0011 25.5504 12.3526 26.3976 12.9775 27.0225C13.6024 27.6474 14.4496 27.9989 15.3333 28H16.6667C16.8435 28 17.013 27.9298 17.1381 27.8047C17.2631 27.6797 17.3333 27.5101 17.3333 27.3333C17.3333 27.1565 17.2631 26.987 17.1381 26.8619C17.013 26.7369 16.8435 26.6667 16.6667 26.6667Z" fill="#D4362E"/>
</g>
<defs>
<clipPath id="clip0_20008415_49016">
<rect width="16" height="16" fill="white" transform="translate(12 12)"/>
</clipPath>
</defs>
</svg>
