<svg width="28" height="28" viewBox="0 0 28 28" fill="none" xmlns="http://www.w3.org/2000/svg">
<g clip-path="url(#clip0_20008087_601)">
<path d="M15.1667 0H5.83333C3.90367 0 2.33333 1.57033 2.33333 3.5H1.16667C0.522667 3.5 0 4.0215 0 4.66667C0 5.31183 0.522667 5.83333 1.16667 5.83333H2.33333V8.16667H1.16667C0.522667 8.16667 0 8.68817 0 9.33333C0 9.9785 0.522667 10.5 1.16667 10.5H2.33333V12.8333H1.16667C0.522667 12.8333 0 13.3548 0 14C0 14.6452 0.522667 15.1667 1.16667 15.1667H2.33333V17.5H1.16667C0.522667 17.5 0 18.0215 0 18.6667C0 19.3118 0.522667 19.8333 1.16667 19.8333H2.33333V22.1667H1.16667C0.522667 22.1667 0 22.6882 0 23.3333C0 23.9785 0.522667 24.5 1.16667 24.5H2.33333C2.33333 26.4297 3.90367 28 5.83333 28H15.1667C18.3832 28 21 25.3832 21 22.1667V5.83333C21 2.61683 18.3832 0 15.1667 0ZM15.1667 9.33333H8.16667C7.52267 9.33333 7 8.81183 7 8.16667C7 7.5215 7.52267 7 8.16667 7H15.1667C15.8107 7 16.3333 7.5215 16.3333 8.16667C16.3333 8.81183 15.8107 9.33333 15.1667 9.33333Z" fill="#0E6EB6"/>
<path d="M24.359 26.6922L25.6668 28L26.9747 26.691C27.6315 26.0353 28.0002 25.1452 28.0002 24.2165V2.33333C28.0002 1.04417 26.956 0 25.6668 0C24.3777 0 23.3335 1.04417 23.3335 2.33333V24.2177C23.3335 25.1452 23.7022 26.0353 24.359 26.6922Z" fill="#7EC3F7"/>
</g>
<defs>
<clipPath id="clip0_20008087_601">
<rect width="28" height="28" fill="white"/>
</clipPath>
</defs>
</svg>
