<svg width="28" height="28" viewBox="0 0 28 28" fill="none" xmlns="http://www.w3.org/2000/svg">
<g clip-path="url(#clip0_20008087_591)">
<path d="M13.2487 28H1.16674C1.01244 28 0.859679 27.9694 0.717289 27.91C0.5749 27.8506 0.445713 27.7635 0.337209 27.6538C0.228704 27.5441 0.143037 27.4139 0.0851672 27.2709C0.027297 27.1279 -0.00162665 26.9748 7.05912e-05 26.8205C-0.00530316 24.4001 0.722164 22.0347 2.08676 20.0356C3.45136 18.0365 5.38917 16.4973 7.64524 15.6205C8.54115 15.3022 9.48771 15.1503 10.4382 15.1725C10.2504 15.5493 10.0853 15.9369 9.94357 16.3333C9.53955 17.456 9.33311 18.6402 9.3334 19.8333C9.33379 21.4007 9.68575 22.9481 10.3634 24.3614C11.041 25.7748 12.027 27.0182 13.2487 28Z" fill="#FE0059"/>
<path d="M9.8864 12.8333C8.61731 12.8333 7.37671 12.457 6.3215 11.7519C5.26628 11.0469 4.44384 10.0447 3.95818 8.87222C3.47251 7.69973 3.34544 6.40955 3.59303 5.16484C3.84062 3.92013 4.45175 2.77679 5.34914 1.8794C6.24652 0.982014 7.38986 0.370886 8.63457 0.123297C9.87929 -0.124291 11.1695 0.00278026 12.342 0.488443C13.5145 0.974105 14.5166 1.79655 15.2217 2.85176C15.9267 3.90698 16.3031 5.14757 16.3031 6.41667C16.3012 8.11791 15.6246 9.74894 14.4216 10.9519C13.2187 12.1549 11.5876 12.8315 9.8864 12.8333Z" fill="#FE0059"/>
<path d="M19.8332 11.6665C18.218 11.6665 16.639 12.1455 15.296 13.0428C13.953 13.9402 12.9063 15.2157 12.2882 16.7079C11.67 18.2002 11.5083 19.8422 11.8234 21.4264C12.1385 23.0106 12.9163 24.4657 14.0585 25.6079C15.2006 26.75 16.6558 27.5278 18.2399 27.8429C19.8241 28.158 21.4662 27.9963 22.9584 27.3782C24.4507 26.7601 25.7261 25.7133 26.6235 24.3703C27.5209 23.0273 27.9998 21.4484 27.9998 19.8332C27.9974 17.668 27.1362 15.5922 25.6052 14.0612C24.0741 12.5302 21.9984 11.669 19.8332 11.6665ZM22.9913 22.9913C22.7726 23.2101 22.4759 23.3329 22.1665 23.3329C21.8572 23.3329 21.5605 23.2101 21.3417 22.9913L19.0083 20.658C18.7895 20.4393 18.6666 20.1426 18.6665 19.8332V16.3332C18.6665 16.0238 18.7894 15.727 19.0082 15.5082C19.227 15.2894 19.5238 15.1665 19.8332 15.1665C20.1426 15.1665 20.4393 15.2894 20.6581 15.5082C20.8769 15.727 20.9998 16.0238 20.9998 16.3332V19.3502L22.9913 21.3417C23.2101 21.5605 23.3329 21.8571 23.3329 22.1665C23.3329 22.4759 23.2101 22.7726 22.9913 22.9913Z" fill="#FF699D"/>
</g>
<defs>
<clipPath id="clip0_20008087_591">
<rect width="28" height="28" fill="white"/>
</clipPath>
</defs>
</svg>
