<svg width="20" height="20" viewBox="0 0 20 20" fill="none" xmlns="http://www.w3.org/2000/svg">
<g clip-path="url(#clip0_20008415_48472)">
<path d="M4.58333 9.16667C5.27333 9.16667 5.83333 9.72667 5.83333 10.4167C5.83333 11.1067 5.27333 11.6667 4.58333 11.6667C3.89333 11.6667 3.33333 11.1067 3.33333 10.4167C3.33333 9.72667 3.89333 9.16667 4.58333 9.16667ZM20 4.16667V9.16667C20 9.62667 19.6275 10 19.1667 10C18.7058 10 18.3333 9.62667 18.3333 9.16667V5.83333H1.66667V10.8333C1.66667 12.2117 2.78833 13.3333 4.16667 13.3333H10.8333C11.2942 13.3333 11.6667 13.7067 11.6667 14.1667C11.6667 14.6267 11.2942 15 10.8333 15H4.16667C1.86917 15 0 13.1308 0 10.8333V4.16667C0 1.86917 1.86917 0 4.16667 0H15.8333C18.1308 0 20 1.86917 20 4.16667ZM18.3333 4.16667C18.3333 2.78833 17.2117 1.66667 15.8333 1.66667H4.16667C2.78833 1.66667 1.66667 2.78833 1.66667 4.16667H18.3333ZM17.9167 12.9167C17.9167 11.7675 16.9825 10.8333 15.8333 10.8333C14.6842 10.8333 13.75 11.7675 13.75 12.9167C13.75 14.0658 14.6842 15 15.8333 15C16.9825 15 17.9167 14.0658 17.9167 12.9167ZM15.8333 15.8333C13.8892 15.8333 12.1875 17.115 11.695 18.9508C11.575 19.3958 11.8392 19.8525 12.2842 19.9717C12.7292 20.0908 13.185 19.8275 13.305 19.3825C13.6017 18.2742 14.6417 17.5 15.8333 17.5C17.025 17.5 18.065 18.2742 18.3617 19.3825C18.4617 19.7542 18.7975 20 19.1658 20C19.2375 20 19.31 19.9908 19.3825 19.9708C19.8275 19.8517 20.0917 19.395 19.9717 18.95C19.4792 17.1142 17.7775 15.8333 15.8333 15.8333Z" fill="white"/>
</g>
<defs>
<clipPath id="clip0_20008415_48472">
<rect width="20" height="20" fill="white"/>
</clipPath>
</defs>
</svg>
