<svg width="28" height="28" viewBox="0 0 28 28" fill="none" xmlns="http://www.w3.org/2000/svg">
<g clip-path="url(#clip0_20008065_70)">
<path d="M20.7783 22.1667H16.3333C14.4083 22.1667 12.8333 20.5917 12.8333 18.6667C12.8333 16.7417 14.4083 15.1667 16.3333 15.1667H20.7783C20.7783 14.2683 21.1167 13.37 21.805 12.6933C22.2367 12.2617 22.7617 11.9583 23.31 11.8067V11.6667H15.1667C13.2417 11.6667 11.6667 10.0917 11.6667 8.16667V0.0233333C11.48 0.0116667 11.2933 0 11.095 0H5.83333C2.61333 0 0 2.61333 0 5.83333V22.1667C0 25.3867 2.61333 28 5.83333 28H17.5C19.6117 28 21.4667 26.8683 22.4933 25.1767C22.2483 25.025 22.015 24.85 21.805 24.64C21.1283 23.9633 20.7783 23.065 20.7783 22.1667Z" fill="#00643C"/>
<path d="M22.7967 9.33329H15.1784C14.5367 9.33329 14.0117 8.80829 14.0117 8.16662V0.536621C15.0734 0.944954 16.0534 1.56329 16.8817 2.39162L20.9417 6.46329C21.7701 7.29162 22.3884 8.27162 22.7967 9.33329Z" fill="#08A650"/>
<path d="M26.9848 21.105L25.1065 22.9834C24.8731 23.2167 24.5815 23.3217 24.2781 23.3217C23.9748 23.3217 23.6831 23.205 23.4498 22.9834C22.9948 22.5284 22.9948 21.7934 23.4498 21.3384L24.9548 19.8334H16.3215C15.6798 19.8334 15.1548 19.3084 15.1548 18.6667C15.1548 18.025 15.6798 17.5 16.3215 17.5H24.9548L23.4498 15.995C22.9948 15.54 22.9948 14.805 23.4498 14.35C23.9048 13.895 24.6398 13.895 25.0948 14.35L26.9731 16.2284C28.3148 17.57 28.3148 19.7634 26.9731 21.1167L26.9848 21.105Z" fill="#08A650"/>
</g>
<defs>
<clipPath id="clip0_20008065_70">
<rect width="28" height="28" fill="white"/>
</clipPath>
</defs>
</svg>
