<svg width="72" height="50" viewBox="0 0 72 50" fill="none" xmlns="http://www.w3.org/2000/svg">
<path d="M61.2884 20.6936L61.2878 20.694H61.2886C60.9618 21.1879 60.8432 21.7825 60.7436 22.4024C60.6215 23.1572 60.4928 23.8817 60.2259 24.5919C59.9051 25.4434 59.3666 26.392 58.4291 27.1345C57.4625 24.521 56.0544 22.0929 54.2662 19.9558C55.3832 19.5093 56.4797 19.5163 57.3809 19.6649C58.1297 19.7889 58.8215 20.0397 59.5364 20.3113C60.1226 20.5352 60.6972 20.7299 61.2884 20.6936ZM50.4109 9.8165L50.4105 9.81704L50.4113 9.81686C50.3751 10.4078 50.5697 10.9821 50.7934 11.5686C51.065 12.2835 51.3158 12.9753 51.44 13.7239C51.5886 14.6261 51.5954 15.7238 51.1478 16.8417C49.0072 15.0563 46.5762 13.6515 43.9605 12.6882C44.7046 11.7431 45.6575 11.201 46.5127 10.879C47.223 10.6121 47.9476 10.4834 48.7026 10.3611C49.3221 10.2617 49.9169 10.1433 50.4108 9.81631M59.5741 31.4038C60.7564 31.5787 61.6971 32.1301 62.4001 32.7067C62.9863 33.1885 63.46 33.7517 63.9435 34.3446C64.3391 34.8312 64.7393 35.287 65.2691 35.5512H59.9314C59.93 34.1611 59.8106 32.7737 59.5741 31.4038ZM20.694 9.81621L20.6944 9.81658V9.81603C21.1883 10.1428 21.7831 10.2612 22.4027 10.361C23.1575 10.4831 23.8821 10.6118 24.5923 10.8785C25.4476 11.2006 26.4006 11.7428 27.1445 12.688C24.5286 13.6508 22.0975 15.0557 19.9572 16.8414C19.5096 15.7235 19.5162 14.6257 19.6652 13.7235C19.7891 12.9749 20.0399 12.2829 20.3116 11.5679C20.5353 10.9818 20.7302 10.4072 20.694 9.81621ZM9.81673 20.6936L9.81727 20.6938L9.81709 20.6932C10.408 20.7293 10.9825 20.5347 11.5688 20.311C12.2837 20.0393 12.9755 19.7885 13.724 19.6644C14.6256 19.5159 15.722 19.5092 16.8389 19.9555C15.0511 22.0927 13.6431 24.5208 12.6762 27.1341C11.7387 26.3914 11.2002 25.4432 10.8794 24.5916C10.6125 23.8813 10.4838 23.1567 10.3617 22.4018C10.2621 21.7822 10.1435 21.1874 9.81673 20.6936ZM5.83594 35.5515C6.36572 35.2874 6.76553 34.8317 7.1617 34.3449C7.64481 33.7522 8.11859 33.1891 8.70475 32.7074C9.4079 32.1306 10.3479 31.579 11.5305 31.4044C11.2942 32.7742 11.1748 34.1616 11.1735 35.5516L5.83594 35.5515ZM35.5525 5.83496V5.8355L35.5529 5.83496C35.817 6.36493 36.2729 6.76494 36.7596 7.16109C37.3524 7.6442 37.9157 8.11797 38.3973 8.70413C38.9777 9.41168 39.5327 10.3592 39.7037 11.5522C38.3325 11.3169 36.9438 11.1986 35.5526 11.1987C34.1374 11.1987 32.7509 11.3206 31.4014 11.5522C31.5724 10.3594 32.1274 9.41158 32.7077 8.70434C33.1896 8.11797 33.7527 7.6442 34.3454 7.16091C34.8322 6.76512 35.2881 6.36493 35.5525 5.83496Z" fill="#FAB60F"/>
<path d="M30.5959 35.5587L32.4302 35.5534C32.6712 34.0041 32.2 32.8111 30.6327 33.0959C29.3121 33.3358 27.8935 34.6478 27.0361 35.5534L29.4545 35.5428C29.724 35.3656 30.2514 35.1635 30.468 35.3139C30.5491 35.3703 30.5915 35.4503 30.5959 35.5587Z" fill="#D52736"/>
<path d="M38.8439 35.5528H41.1322C41.2412 32.8505 40.8058 30.0597 39.5495 27.6454C38.4068 25.4486 36.5178 23.9554 34.0725 23.5946C30.5027 23.0679 26.9007 24.5791 23.8553 26.7411C20.5397 29.0951 17.8027 32.2922 15.4111 35.553L18.4341 35.5486C21.1556 31.6912 27.4151 25.8353 32.0198 25.797C33.4873 25.7849 34.9792 26.1293 36.0823 27.1134C36.8816 27.8267 37.8505 29.2116 37.8031 30.3357C37.7749 31.0022 37.1834 31.2065 36.6163 31C36.1757 30.8397 35.8645 30.4369 35.5562 30.0135C34.5543 28.6379 32.9915 27.9648 31.2771 28.1993C29.2327 28.4789 26.6984 30.0664 25.0637 31.5103C23.6541 32.7555 22.3599 34.1183 21.1393 35.5533H24.3895C25.5807 34.1151 26.8384 32.8888 28.4556 31.8816C28.9673 31.5629 29.5974 31.2259 30.2597 30.9982C31.9305 30.4239 33.5932 30.5693 34.3317 32.6496C34.6218 33.4675 34.6645 34.185 34.5799 35.4997L34.5797 35.5533H36.7896L36.7953 35.4858C36.7969 34.7658 36.7812 34.2807 36.8461 33.5671C36.902 32.9522 37.0931 32.3149 37.6643 32.2391C38.8782 31.9848 38.82 34.6855 38.8438 35.5533" fill="#D52736"/>
<path d="M43.5396 35.5529H45.8469C45.9585 33.0456 45.7436 30.0753 44.9324 27.4817C44.776 26.9778 44.5921 26.4829 44.3816 25.9992C43.8904 24.8783 43.2296 23.8638 42.4417 22.9261C41.5659 21.8845 40.5224 20.9479 39.346 20.21C38.9973 19.9911 38.6372 19.7908 38.2674 19.6098V19.6094C37.8959 19.4277 37.5144 19.2672 37.1247 19.1285L37.1233 19.1279C32.6299 17.5325 28.0854 18.6672 24.2732 20.7406C23.5394 21.141 22.8254 21.5768 22.1338 22.0466C21.4673 22.499 20.8205 22.9797 20.1951 23.4875L20.194 23.4887C19.3021 24.2126 18.4586 24.994 17.6687 25.828C17.492 26.0149 17.3186 26.2048 17.1484 26.3977C16.695 26.9117 15.9962 27.6324 16.2036 28.3775C16.3679 28.9684 17.1303 28.7944 17.396 28.5908C17.8036 28.372 18.2514 28.0253 18.6346 27.7011C19.1534 27.2619 19.6434 26.7891 20.1571 26.3438C22.235 24.5427 24.4006 23.1536 26.5338 22.2135C26.9913 22.0116 27.4564 21.8274 27.9282 21.6614C28.3814 21.5017 28.8411 21.3612 29.3061 21.24L29.3083 21.2394C33.2776 20.2087 37.5911 20.8764 40.3528 24.1134C43.0133 27.2314 43.4989 31.4051 43.5396 35.5529ZM14.9099 32.0281C15.1578 31.7967 15.4104 31.4948 15.6737 31.1606C16.042 30.6934 16.079 30.241 15.9334 29.9144C15.8808 29.7954 15.8017 29.6901 15.702 29.6064C15.6055 29.5257 15.4914 29.4688 15.3689 29.4401C15.0686 29.3715 14.7096 29.4789 14.4049 29.8498C14.0602 30.269 13.5842 30.9863 13.487 31.6206C13.4685 31.7339 13.4648 31.8491 13.4762 31.9633C13.4881 32.0688 13.5163 32.1691 13.5637 32.2606L13.564 32.2616L13.5642 32.2614C13.6418 32.4104 13.7727 32.489 13.9474 32.4956C13.9839 32.4968 14.0231 32.4951 14.0651 32.4906C14.1061 32.486 14.1502 32.4781 14.1973 32.467L14.1975 32.4674L14.1997 32.4668C14.4347 32.4104 14.6697 32.2522 14.9099 32.0281Z" fill="#D52736"/>
<path d="M49.3102 35.5531L49.3267 35.5527H49.3349C49.5764 35.5658 49.9954 35.4547 50.2371 35.047C50.2887 34.9588 50.3293 34.8646 50.3579 34.7666C50.3926 34.647 50.4139 34.524 50.4214 34.3997L50.4232 34.3715C50.6067 27.9631 48.6438 22.6582 45.3115 19.0539C44.6703 18.3594 43.9698 17.722 43.218 17.149C42.4742 16.5823 41.6816 16.0826 40.8495 15.6559L40.8493 15.6561L40.8362 15.6495L40.8358 15.6492C38.0348 14.2178 34.8582 13.668 31.7403 13.9322C30.5246 14.0349 29.3224 14.2607 28.1523 14.6062L28.1441 14.6088C24.9376 15.5572 21.9536 17.4402 19.522 19.9105C18.8123 20.6309 18.1525 21.3987 17.5469 22.2085C19.2521 20.7372 21.0817 19.4466 22.9953 18.4213C23.4219 18.1924 23.8552 17.976 24.2945 17.7725C24.729 17.5712 25.1698 17.3835 25.6161 17.2098L25.6185 17.2087C27.3091 16.5517 28.9757 16.1327 30.6426 15.9454C32.3096 15.7581 33.9777 15.8026 35.6716 16.0719C36.8771 16.2637 38.0537 16.5793 39.1138 17.0209C39.3196 17.1066 39.5216 17.1975 39.7199 17.2937C39.9152 17.3883 40.1075 17.4891 40.2966 17.5957H40.297L40.2999 17.5972L40.2997 17.5974C44.0317 19.641 46.6244 23.8341 47.7664 28.5687C48.2149 30.4301 48.4353 32.3391 48.4229 34.2537V34.2541L48.4223 34.3093C48.4413 34.822 48.617 35.2509 48.9182 35.4441C48.9742 35.48 49.035 35.508 49.0996 35.5261H49.1C49.1659 35.5451 49.2359 35.5542 49.31 35.5532" fill="#D52736"/>
<path d="M42.6377 14.1963C51.6104 17.1599 58.0949 25.5979 58.1328 35.5544H53.6931C53.9869 26.8578 50.1915 19.0081 42.6377 14.1963Z" fill="#FAB60F"/>
<path d="M16.585 42.5367H14.7891L14.3445 44.1014H12.9131L14.8069 38.1091H16.6205L18.5676 44.1014H17.074L16.585 42.5367ZM14.9936 41.5231H16.3716C16.0102 40.3524 15.7761 39.5493 15.6693 39.1136H15.6514L15.3669 40.2517L14.9936 41.5231ZM23.1816 42.5367H21.3856L20.9411 44.1014H19.5097L21.4033 38.1091H23.2171L25.1642 44.1014H23.6706L23.1816 42.5367ZM21.5901 41.5231H22.9682C22.6066 40.3524 22.3724 39.5493 22.2658 39.1136H22.248L21.9635 40.2517L21.5901 41.5231ZM26.5329 44.0749V38.1891C27.1257 38.1002 27.7599 38.0557 28.4355 38.0557C29.7131 38.0554 30.6299 38.3226 31.186 38.8573C31.7416 39.3922 32.0187 40.0917 32.0187 40.9541C32.0187 41.9736 31.7031 42.7633 31.0703 43.3236C30.4376 43.8836 29.4611 44.1637 28.1423 44.1637C27.5318 44.1637 26.9953 44.1341 26.5329 44.0749ZM27.9111 39.1671V43.0702C27.9882 43.0879 28.1542 43.0967 28.409 43.0967C29.0935 43.0967 29.624 42.916 29.9989 42.5559C30.3738 42.1958 30.5606 41.6802 30.5606 41.0074C30.5608 40.3911 30.3899 39.9213 30.0478 39.5981C29.7052 39.2751 29.2123 39.1136 28.569 39.1136C28.2993 39.1136 28.08 39.1314 27.9111 39.1671ZM33.4939 38.1091H34.872V40.4117H37.228V38.1091H38.6061V44.1013H37.228V41.603H34.872V44.1013H33.4939V38.1091ZM43.6022 42.5367H41.8063L41.3618 44.1013H39.9303L41.8241 38.1091H43.6379L45.585 44.1013H44.0913L43.6022 42.5367ZM42.0108 41.523H43.3889C43.0273 40.3524 42.7932 39.5492 42.6865 39.1135H42.6687L42.3843 40.2516L42.0108 41.523ZM50.1988 42.5367H48.4027L47.9583 44.1013H46.5269L48.4205 38.1091H50.2343L52.1814 44.1013H50.6878L50.1988 42.5367ZM48.6072 41.523H49.9853C49.6237 40.3524 49.3896 39.5492 49.2829 39.1135H49.2652L48.9807 40.2516L48.6072 41.523ZM53.5501 44.1014V38.1891C54.054 38.1001 54.6734 38.0557 55.4084 38.0557C56.3152 38.0557 56.9671 38.2054 57.3642 38.5047C57.7615 38.804 57.9601 39.2322 57.9599 39.7895C57.9599 40.1214 57.8607 40.4207 57.6606 40.6889C57.4662 40.9532 57.1951 41.1513 56.8843 41.2564V41.2919C57.2577 41.4313 57.5274 41.7987 57.6932 42.3943C57.9986 43.4672 58.1646 44.0362 58.1911 44.1014H56.7865C56.6679 43.8793 56.5256 43.414 56.3596 42.7055C56.2766 42.35 56.164 42.1011 56.0218 41.9588C55.8796 41.8165 55.6514 41.7453 55.3372 41.7453H54.9104V44.1013L53.5501 44.1014ZM54.9104 39.1137V40.7586H55.4794C55.8232 40.7583 56.0944 40.6803 56.2929 40.5244C56.4915 40.3692 56.5908 40.1598 56.5908 39.8961C56.5908 39.6323 56.502 39.4279 56.3226 39.2842C56.1434 39.1404 55.8884 39.0694 55.5596 39.0694C55.2365 39.0694 55.0201 39.0842 54.9104 39.1137Z" fill="#D52736"/>
</svg>
