<svg width="45" height="45" viewBox="0 0 45 45" fill="none" xmlns="http://www.w3.org/2000/svg">
<path d="M44.9998 22.4999C44.9998 19.3199 43.3873 16.5168 40.9348 14.863C41.4992 11.9605 40.6573 8.83867 38.4092 6.58867C36.1611 4.34055 33.0392 3.49867 30.1348 4.06305C28.4811 1.61055 25.678 -0.00195312 22.498 -0.00195312C19.318 -0.00195312 16.5148 1.61055 14.8611 4.06305C11.9586 3.49867 8.83484 4.34055 6.58672 6.58867C4.33859 8.8368 3.49672 11.9587 4.06109 14.863C1.60859 16.5168 -0.00390625 19.3199 -0.00390625 22.4999C-0.00390625 25.6799 1.60859 28.483 4.06109 30.1368C3.49672 33.0393 4.33859 36.163 6.58672 38.4112C8.83484 40.6593 11.9567 41.5012 14.8611 40.9368C16.5148 43.3893 19.318 45.0018 22.498 45.0018C25.678 45.0018 28.4811 43.3893 30.1348 40.9368C33.0373 41.5012 36.1611 40.6593 38.4092 38.4112C40.6573 36.163 41.4992 33.0412 40.9348 30.1368C43.3873 28.483 44.9998 25.6799 44.9998 22.4999ZM22.3292 28.9105C21.6036 29.6362 20.6492 29.998 19.6911 29.998C18.733 29.998 17.7692 29.6324 17.0361 28.9012L11.8198 23.8462L14.4317 21.1518L19.6686 26.2274L30.5605 15.538L33.193 18.2099L22.3292 28.9105Z" fill="#3C9718"/>
</svg>
