<svg width="22" height="22" viewBox="0 0 22 22" fill="none" xmlns="http://www.w3.org/2000/svg">
<path d="M11 0.5C16.799 0.5 21.5 5.20101 21.5 11C21.5 16.799 16.799 21.5 11 21.5C5.20101 21.5 0.5 16.799 0.5 11C0.5 5.20101 5.20101 0.5 11 0.5Z" fill="white"/>
<path d="M11 0.5C16.799 0.5 21.5 5.20101 21.5 11C21.5 16.799 16.799 21.5 11 21.5C5.20101 21.5 0.5 16.799 0.5 11C0.5 5.20101 5.20101 0.5 11 0.5Z" stroke="#DDDDDD"/>
<path d="M14.4999 7.50087C14.3905 7.39151 14.2422 7.33008 14.0875 7.33008C13.9328 7.33008 13.7845 7.39151 13.6751 7.50087L10.9999 10.176L8.32473 7.50087C8.21534 7.39151 8.06699 7.33008 7.91231 7.33008C7.75763 7.33008 7.60928 7.39151 7.49989 7.50087C7.39054 7.61026 7.3291 7.75861 7.3291 7.91329C7.3291 8.06797 7.39054 8.21631 7.49989 8.3257L10.1751 11.0009L7.49989 13.676C7.39054 13.7854 7.3291 13.9338 7.3291 14.0885C7.3291 14.2431 7.39054 14.3915 7.49989 14.5009C7.60928 14.6102 7.75763 14.6717 7.91231 14.6717C8.06699 14.6717 8.21534 14.6102 8.32473 14.5009L10.9999 11.8257L13.6751 14.5009C13.7845 14.6102 13.9328 14.6717 14.0875 14.6717C14.2422 14.6717 14.3905 14.6102 14.4999 14.5009C14.6093 14.3915 14.6707 14.2431 14.6707 14.0885C14.6707 13.9338 14.6093 13.7854 14.4999 13.676L11.8247 11.0009L14.4999 8.3257C14.6093 8.21631 14.6707 8.06797 14.6707 7.91329C14.6707 7.75861 14.6093 7.61026 14.4999 7.50087Z" fill="#374957"/>
</svg>
