<svg width="17" height="17" viewBox="0 0 17 17" fill="none" xmlns="http://www.w3.org/2000/svg">
<path d="M7.97958 15.9801V12.9611C7.97958 12.711 8.18203 12.5085 8.43213 12.5085C8.68223 12.5085 8.88468 12.711 8.88468 12.9611V15.9801C8.88468 16.2302 8.68223 16.4326 8.43213 16.4326C8.18203 16.4326 7.97958 16.2302 7.97958 15.9801ZM4.94217 11.2821C5.11904 11.1054 5.4059 11.1053 5.58267 11.2821C5.75945 11.4588 5.7593 11.7457 5.58267 11.9226L3.39362 14.1116C3.21676 14.2884 2.92994 14.2885 2.75312 14.1116C2.57629 13.9348 2.57634 13.648 2.75312 13.4711L4.94217 11.2821ZM11.2816 11.2821C11.4584 11.1053 11.7452 11.1054 11.9221 11.2821L14.1111 13.4711C14.2879 13.648 14.288 13.9348 14.1111 14.1116C13.9343 14.2885 13.6475 14.2884 13.4706 14.1116L11.2816 11.9226C11.105 11.7457 11.1048 11.4588 11.2816 11.2821ZM3.90366 7.98006C4.15376 7.98006 4.35621 8.18252 4.35621 8.43262C4.35621 8.68272 4.15376 8.88517 3.90366 8.88517H0.884681C0.634581 8.88517 0.432129 8.68272 0.432129 8.43262C0.432129 8.18252 0.634581 7.98006 0.884681 7.98006H3.90366ZM15.9796 7.98006C16.2297 7.98006 16.4321 8.18252 16.4321 8.43262C16.4321 8.68272 16.2297 8.88517 15.9796 8.88517H12.9606C12.7105 8.88517 12.508 8.68272 12.508 8.43262C12.508 8.18252 12.7105 7.98006 12.9606 7.98006H15.9796ZM2.75312 2.7536C2.92994 2.57678 3.21676 2.57683 3.39362 2.7536L5.58267 4.94266C5.7593 5.11952 5.75945 5.40639 5.58267 5.58316C5.4059 5.75993 5.11904 5.75979 4.94217 5.58316L2.75312 3.39411C2.57634 3.21725 2.57629 2.93043 2.75312 2.7536ZM13.4706 2.7536C13.6475 2.57683 13.9343 2.57678 14.1111 2.7536C14.288 2.93043 14.2879 3.21725 14.1111 3.39411L11.9221 5.58316C11.7452 5.75979 11.4584 5.75993 11.2816 5.58316C11.1048 5.40639 11.105 5.11952 11.2816 4.94266L13.4706 2.7536ZM7.97958 3.90415V0.885169C7.97958 0.635069 8.18203 0.432617 8.43213 0.432617C8.68223 0.432617 8.88468 0.635069 8.88468 0.885169V3.90415C8.88468 4.15425 8.68223 4.3567 8.43213 4.3567C8.18203 4.3567 7.97958 4.15425 7.97958 3.90415Z" fill="#0000C9" stroke="#0000C9" stroke-width="0.864547" stroke-linecap="round" stroke-linejoin="round"/>
</svg>
