<svg width="12" height="12" viewBox="0 0 12 12" fill="none" xmlns="http://www.w3.org/2000/svg">
<g clip-path="url(#clip0_20008210_923)">
<path d="M9.20004 3.69042C9.1096 3.66462 9.02704 3.61662 8.95989 3.55077C8.89273 3.48493 8.84311 3.40334 8.81554 3.31342C8.66242 2.79444 8.40561 2.31193 8.06063 1.89507C7.71565 1.47821 7.28967 1.13568 6.80849 0.8882C6.32731 0.640722 5.80092 0.493443 5.26117 0.455276C4.72143 0.417109 4.17955 0.488847 3.66833 0.666149C3.15711 0.843451 2.68718 1.12263 2.28697 1.48679C1.88676 1.85096 1.5646 2.29253 1.33997 2.7848C1.11535 3.27706 0.992938 3.80979 0.980144 4.35073C0.967349 4.89167 1.06444 5.42959 1.26554 5.93192C1.31173 6.03764 1.32168 6.15566 1.29383 6.26762C1.26597 6.37957 1.20188 6.47918 1.11154 6.55092C0.713401 6.84642 0.402559 7.24405 0.211912 7.70175C0.0212651 8.15944 -0.0420954 8.66016 0.0285368 9.15092C0.138763 9.81436 0.483199 10.4163 0.999328 10.8475C1.51546 11.2787 2.16907 11.5105 2.84154 11.5009H5.50004C5.63265 11.5009 5.75982 11.4482 5.85359 11.3545C5.94736 11.2607 6.00004 11.1335 6.00004 11.0009C6.00004 10.8683 5.94736 10.7411 5.85359 10.6474C5.75982 10.5536 5.63265 10.5009 5.50004 10.5009H2.84154C2.40968 10.5114 1.98835 10.3668 1.65392 10.0934C1.31948 9.81995 1.09407 9.43575 1.01854 9.01042C0.970635 8.69779 1.00946 8.378 1.13077 8.08591C1.25209 7.79382 1.45124 7.54063 1.70654 7.35392C1.9747 7.1535 2.16868 6.86968 2.258 6.54703C2.34733 6.22439 2.32694 5.88122 2.20004 5.57142C1.94911 4.90877 1.93621 4.17953 2.16354 3.50842C2.34514 2.98271 2.67033 2.51836 3.10228 2.16797C3.53423 1.81759 4.05567 1.59517 4.60754 1.52592C4.73555 1.50944 4.86447 1.50109 4.99354 1.50092C5.64006 1.49879 6.26989 1.70614 6.78871 2.09192C7.30753 2.4777 7.68743 3.02116 7.87154 3.64092C7.9434 3.87711 8.07288 4.09171 8.24832 4.2654C8.42376 4.43909 8.63965 4.56642 8.87654 4.63592C9.45628 4.80738 9.96982 5.15186 10.3484 5.62323C10.727 6.0946 10.9525 6.67037 10.9948 7.27346C11.0371 7.87655 10.8942 8.47817 10.5851 8.99778C10.2761 9.5174 9.81567 9.93019 9.26554 10.1809C9.18412 10.2226 9.11606 10.2863 9.06911 10.3648C9.02217 10.4433 8.99823 10.5335 9.00004 10.6249C8.99906 10.7077 9.01889 10.7893 9.05769 10.8624C9.09649 10.9355 9.15303 10.9976 9.22211 11.0432C9.29119 11.0887 9.37061 11.1162 9.45306 11.123C9.53552 11.1299 9.61838 11.1159 9.69404 11.0824C11.761 10.0889 12.884 7.47542 11.134 4.95042C10.6522 4.32188 9.96968 3.87723 9.20004 3.69042Z" fill="#0000C9"/>
<path d="M9.3537 8.35324C9.44744 8.25948 9.5001 8.13232 9.5001 7.99974C9.5001 7.86716 9.44744 7.74001 9.3537 7.64624L8.5607 6.85324C8.27941 6.57204 7.89795 6.41406 7.5002 6.41406C7.10246 6.41406 6.72099 6.57204 6.4397 6.85324L5.6467 7.64624C5.55562 7.74054 5.50523 7.86684 5.50637 7.99794C5.50751 8.12904 5.56009 8.25445 5.65279 8.34715C5.7455 8.43986 5.8709 8.49244 6.002 8.49358C6.1331 8.49472 6.2594 8.44432 6.3537 8.35324L7.0002 7.70674V11.4997C7.0002 11.6323 7.05288 11.7595 7.14665 11.8533C7.24042 11.9471 7.3676 11.9997 7.5002 11.9997C7.63281 11.9997 7.75999 11.9471 7.85376 11.8533C7.94753 11.7595 8.0002 11.6323 8.0002 11.4997V7.70674L8.6467 8.35324C8.74047 8.44698 8.86762 8.49963 9.0002 8.49963C9.13279 8.49963 9.25994 8.44698 9.3537 8.35324Z" fill="#0000C9"/>
</g>
<defs>
<clipPath id="clip0_20008210_923">
<rect width="12" height="12" fill="white"/>
</clipPath>
</defs>
</svg>
