<svg width="30" height="30" viewBox="0 0 30 30" fill="none" xmlns="http://www.w3.org/2000/svg">
<path d="M15 0.5C23.0081 0.5 29.5 6.99187 29.5 15C29.5 23.0081 23.0081 29.5 15 29.5C6.99187 29.5 0.5 23.0081 0.5 15C0.5 6.99187 6.99187 0.5 15 0.5Z" fill="white"/>
<path d="M15 0.5C23.0081 0.5 29.5 6.99187 29.5 15C29.5 23.0081 23.0081 29.5 15 29.5C6.99187 29.5 0.5 23.0081 0.5 15C0.5 6.99187 6.99187 0.5 15 0.5Z" stroke="#DDDDDD"/>
<g clip-path="url(#clip0_20008106_872)">
<path d="M20.2498 10.3333H18.4415C18.3061 9.67499 17.9479 9.08345 17.4272 8.65842C16.9066 8.23339 16.2553 8.00085 15.5832 8H14.4165C13.7444 8.00085 13.0931 8.23339 12.5724 8.65842C12.0518 9.08345 11.6936 9.67499 11.5582 10.3333H9.74984C9.59513 10.3333 9.44675 10.3948 9.33736 10.5042C9.22796 10.6136 9.1665 10.762 9.1665 10.9167C9.1665 11.0714 9.22796 11.2197 9.33736 11.3291C9.44675 11.4385 9.59513 11.5 9.74984 11.5H10.3332V19.0833C10.3341 19.8566 10.6417 20.5979 11.1885 21.1447C11.7352 21.6915 12.4766 21.9991 13.2498 22H16.7498C17.5231 21.9991 18.2644 21.6915 18.8112 21.1447C19.358 20.5979 19.6656 19.8566 19.6665 19.0833V11.5H20.2498C20.4045 11.5 20.5529 11.4385 20.6623 11.3291C20.7717 11.2197 20.8332 11.0714 20.8332 10.9167C20.8332 10.762 20.7717 10.6136 20.6623 10.5042C20.5529 10.3948 20.4045 10.3333 20.2498 10.3333ZM14.4165 9.16667H15.5832C15.945 9.16711 16.2978 9.27947 16.5933 9.48834C16.8887 9.69721 17.1123 9.99237 17.2334 10.3333H12.7663C12.8873 9.99237 13.1109 9.69721 13.4064 9.48834C13.7018 9.27947 14.0547 9.16711 14.4165 9.16667ZM18.4998 19.0833C18.4998 19.5475 18.3155 19.9926 17.9873 20.3208C17.6591 20.649 17.214 20.8333 16.7498 20.8333H13.2498C12.7857 20.8333 12.3406 20.649 12.0124 20.3208C11.6842 19.9926 11.4998 19.5475 11.4998 19.0833V11.5H18.4998V19.0833Z" fill="#B7131A"/>
<path d="M13.8333 18.4987C13.988 18.4987 14.1364 18.4372 14.2458 18.3278C14.3552 18.2184 14.4167 18.0701 14.4167 17.9154V14.4154C14.4167 14.2607 14.3552 14.1123 14.2458 14.0029C14.1364 13.8935 13.988 13.832 13.8333 13.832C13.6786 13.832 13.5303 13.8935 13.4209 14.0029C13.3115 14.1123 13.25 14.2607 13.25 14.4154V17.9154C13.25 18.0701 13.3115 18.2184 13.4209 18.3278C13.5303 18.4372 13.6786 18.4987 13.8333 18.4987Z" fill="#B7131A"/>
<path d="M16.1663 18.4987C16.3211 18.4987 16.4694 18.4372 16.5788 18.3278C16.6882 18.2184 16.7497 18.0701 16.7497 17.9154V14.4154C16.7497 14.2607 16.6882 14.1123 16.5788 14.0029C16.4694 13.8935 16.3211 13.832 16.1663 13.832C16.0116 13.832 15.8633 13.8935 15.7539 14.0029C15.6445 14.1123 15.583 14.2607 15.583 14.4154V17.9154C15.583 18.0701 15.6445 18.2184 15.7539 18.3278C15.8633 18.4372 16.0116 18.4987 16.1663 18.4987Z" fill="#B7131A"/>
</g>
<defs>
<clipPath id="clip0_20008106_872">
<rect width="14" height="14" fill="white" transform="translate(8 8)"/>
</clipPath>
</defs>
</svg>
