<svg width="38" height="35" viewBox="0 0 38 35" fill="none" xmlns="http://www.w3.org/2000/svg">
<path d="M21.9469 12.6591V0H10.2262C9.62869 0.00178099 9.05615 0.239934 8.63364 0.662446C8.21113 1.08496 7.97297 1.6575 7.97119 2.25502V32.745C7.97297 33.3425 8.21113 33.915 8.63364 34.3376C9.05615 34.7601 9.62869 34.9982 10.2262 35H35.4635C36.061 34.9982 36.6335 34.7601 37.056 34.3376C37.4786 33.915 37.7167 33.3425 37.7185 32.745V12.6591H21.9469Z" fill="#6334FA"/>
<path d="M6.04074 30.308C4.68135 30.3 3.36389 29.8364 2.29905 28.9913C1.23422 28.1463 0.483518 26.9685 0.167002 25.6465C-0.149514 24.3244 -0.0135619 22.9344 0.553117 21.6987C1.1198 20.4631 2.08447 19.4531 3.29286 18.8304C3.33926 17.1242 3.93239 15.478 4.98489 14.1343C6.03739 12.7906 7.49361 11.8204 9.13904 11.3667C10.7845 10.913 12.5321 10.9997 14.1245 11.6141C15.7169 12.2285 17.0699 13.3381 17.9842 14.7794C18.6969 14.5006 19.4538 14.352 20.219 14.3406C21.5645 14.3372 22.8757 14.7646 23.9606 15.5604C25.0456 16.3562 25.8472 17.4785 26.2481 18.7628C27.2647 19.2672 28.1197 20.0462 28.7164 21.0115C29.313 21.9769 29.6274 23.09 29.6239 24.2248C29.6265 25.685 29.1031 27.0972 28.1497 28.2032C27.1963 29.3091 25.8765 30.0347 24.4319 30.2472V30.308H6.04074Z" fill="#6334FF"/>
<path d="M25.4788 19.3907C25.2858 18.5809 24.9096 17.8262 24.3792 17.1846C23.8487 16.543 23.1781 16.0317 22.419 15.6899C21.6599 15.3482 20.8326 15.1852 20.0006 15.2135C19.1686 15.2417 18.3542 15.4605 17.62 15.8529C16.9052 14.4228 15.7289 13.2758 14.2813 12.5972C12.8337 11.9187 11.1995 11.7484 9.64307 12.1139C8.08667 12.4793 6.69909 13.3592 5.70481 14.6112C4.71053 15.8631 4.16771 17.4139 4.16415 19.0126C4.16415 19.1274 4.16415 19.2489 4.16415 19.3637C3.02996 19.8025 2.0849 20.624 1.49257 21.6861C0.900251 22.7482 0.697958 23.984 0.920717 25.1796C1.14348 26.3751 1.77727 27.4551 2.71236 28.2326C3.64745 29.0101 4.82498 29.4362 6.04108 29.437H23.5546C24.7626 29.4313 25.9311 29.0062 26.8603 28.2343C27.7896 27.4625 28.4219 26.3918 28.6491 25.2054C28.8764 24.0189 28.6844 22.7904 28.1062 21.7298C27.5279 20.6692 26.5992 19.8424 25.4788 19.3907Z" fill="white"/>
<path opacity="0.6" d="M23.6895 11.2008H37.7192L23.6895 0V11.2008Z" fill="black"/>
<path d="M23.6895 11.2008H37.7192L23.6895 0V11.2008Z" fill="#6334FF"/>
<path d="M13.4067 22.1533C14.1189 22.1533 14.6963 21.576 14.6963 20.8638C14.6963 20.1516 14.1189 19.5742 13.4067 19.5742C12.6945 19.5742 12.1172 20.1516 12.1172 20.8638C12.1172 21.576 12.6945 22.1533 13.4067 22.1533Z" fill="#6334FA"/>
<path d="M13.7786 21.334H13.0292L12.1582 24.9326H14.6563L13.7786 21.334Z" fill="#6334FA"/>
</svg>
