<?xml version="1.0" encoding="UTF-8"?>
<svg version="1.1" xmlns="http://www.w3.org/2000/svg" width="512" height="512">
<path d="M0 0 C0.92425781 -0.02578125 1.84851563 -0.0515625 2.80078125 -0.078125 C10.29338324 0.77353747 14.77735577 5.91974014 19.8119812 11.01371765 C21.01411009 12.21200163 21.01411009 12.21200163 22.24052441 13.43449336 C24.92387818 16.11290611 27.59636946 18.80189973 30.26904297 21.4909668 C32.18960694 23.41404782 34.11243354 25.33486073 36.03517151 27.25576782 C40.17339564 31.39242037 44.30609981 35.53452181 48.4350853 39.68039513 C54.4048774 45.67458813 60.38295506 51.66046128 66.36307491 57.64434872 C76.06563793 67.3534745 85.76148519 77.0692782 95.453125 86.78930664 C104.86659759 96.23032431 114.28322188 105.66817999 123.70410156 115.10180664 C124.57543326 115.97432059 124.57543326 115.97432059 125.46436761 116.86446109 C128.37858604 119.78259468 131.29286653 122.70066628 134.20717788 125.61870706 C158.37691544 149.81953509 182.53576023 174.03121095 206.6875 198.25 C209.74178724 196.8853988 211.83986714 195.34495336 214.19549465 192.97972107 C214.87615409 192.30119363 215.55681353 191.62266619 216.25809902 190.92357731 C216.99788102 190.17592326 217.73766303 189.42826921 218.49986267 188.65795898 C219.2919617 187.86545211 220.08406073 187.07294523 220.90016276 186.256423 C223.5618241 183.59102144 226.21626485 180.91854187 228.87084961 178.24609375 C230.77418332 176.33728655 232.67791908 174.42888888 234.5821991 172.52102661 C238.68641065 168.40762883 242.78710588 164.29075259 246.88560295 160.17166138 C252.815285 154.21245765 258.75190386 148.26020253 264.69053442 142.30991781 C274.33044592 132.6509904 283.96698084 122.9887027 293.6003418 113.32324219 C294.1769475 112.74471855 294.75355321 112.1661949 295.34763182 111.57014024 C301.78136361 105.11485958 308.21428152 98.65876876 314.64630127 92.20178223 C316.97895376 89.86009801 319.31161389 87.51842138 321.64428711 85.17675781 C322.21988634 84.59893692 322.79548557 84.02111603 323.38852721 83.42578542 C332.9827315 73.79487297 342.58274658 64.16977567 352.18734556 54.54922962 C358.11238618 48.61384931 364.03233321 42.67347542 369.94584716 36.72661042 C373.99724004 32.65309899 378.05397837 28.58496358 382.1149854 24.52103686 C384.4586946 22.17527682 386.79900771 19.82629355 389.13447571 17.47232437 C391.66551988 14.92195076 394.20558545 12.38091824 396.74815369 9.84204102 C397.48570497 9.09438697 398.22325625 8.34673292 398.98315758 7.57642269 C400.00805836 6.55863153 400.00805836 6.55863153 401.05366421 5.52027893 C401.9315528 4.63905538 401.9315528 4.63905538 402.82717651 3.74002934 C408.14593396 -0.5200387 414.19336837 -0.3525483 420.6875 0.25 C426.64718239 2.2365608 429.94052499 6.17199641 433 11.5625 C434.70885863 18.24258375 434.202652 23.281894 430.6875 29.25 C428.03815618 32.33698123 425.16125186 35.18085925 422.27407837 38.04437256 C421.40524627 38.91788463 420.53641417 39.7913967 419.64125383 40.69137883 C417.23452283 43.10799403 414.82125436 45.51772051 412.40494156 47.92473245 C409.79825516 50.52462656 407.20022209 53.13314349 404.60105896 55.74055481 C399.51071719 60.8442336 394.41230148 65.93977217 389.310941 71.03243485 C385.16557271 75.17102763 381.0231423 79.31253971 376.88279343 83.45615387 C376.29349157 84.04591543 375.70418971 84.63567699 375.09703021 85.24331011 C373.89989576 86.44140374 372.70276804 87.63950409 371.50564699 88.83761111 C360.28134495 100.07046676 349.04786759 111.29411033 337.8112313 122.5146257 C328.16808908 132.14436129 318.5328445 141.78194032 308.90332031 151.42529297 C297.72135726 162.62330632 286.53454906 173.81644235 275.33995092 185.00182557 C274.14657369 186.19424715 272.95320273 187.386675 271.7598381 188.57910919 C271.17267114 189.16581333 270.58550418 189.75251747 269.98054428 190.35700051 C265.84131845 194.49363507 261.7055861 198.6337427 257.57118607 202.77519989 C252.53405645 207.82073843 247.49162668 212.86090676 242.44230177 217.89424196 C239.86578361 220.46286979 237.2917336 223.03384889 234.72411537 225.61137581 C231.94246619 228.40359712 229.14931989 231.18412941 226.35488892 233.96356201 C225.5427275 234.7824156 224.73056607 235.60126918 223.8937937 236.44493651 C223.1437253 237.18718168 222.3936569 237.92942684 221.62085915 238.69416428 C220.65558121 239.65871163 220.65558121 239.65871163 219.67080271 240.64274478 C216.01184766 243.60793742 212.39429917 244.5404891 207.75 244.5625 C206.93660156 244.57925781 206.12320313 244.59601563 205.28515625 244.61328125 C197.68391704 243.5502508 193.03437955 238.02031079 187.89312744 232.83657837 C187.01961537 231.96774627 186.1461033 231.09891417 185.24612117 230.20375383 C182.82950597 227.79702283 180.41977949 225.38375436 178.01276755 222.96744156 C175.41287344 220.36075516 172.80435651 217.76272209 170.19694519 215.16355896 C165.0932664 210.07321719 159.99772783 204.97480148 154.90506515 199.873441 C150.76647237 195.72807271 146.62496029 191.5856423 142.48134613 187.44529343 C141.89158457 186.85599157 141.30182301 186.26668971 140.69418989 185.65953021 C139.49609626 184.46239576 138.29799591 183.26526804 137.09988889 182.06814699 C125.86703324 170.84384495 114.64338967 159.61036759 103.4228743 148.3737313 C93.79313871 138.73058908 84.15555968 129.0953445 74.51220703 119.46582031 C63.31419368 108.28385726 52.12105765 97.09704906 40.93567443 85.90245092 C39.74325285 84.70907369 38.550825 83.51570273 37.35839081 82.3223381 C36.77168667 81.73517114 36.18498253 81.14800418 35.58049949 80.54304428 C31.44386493 76.40381845 27.3037573 72.2680861 23.16230011 68.13368607 C18.11676157 63.09655645 13.07659324 58.05412668 8.04325804 53.00480177 C5.47463021 50.42828361 2.90365111 47.8542336 0.32612419 45.28661537 C-2.46609712 42.50496619 -5.24662941 39.71181989 -8.02606201 36.91738892 C-8.8449156 36.1052275 -9.66376918 35.29306607 -10.50743651 34.4562937 C-11.24968168 33.7062253 -11.99192684 32.9561569 -12.75666428 32.18335915 C-13.39969584 31.53984052 -14.04272741 30.8963219 -14.70524478 30.23330271 C-18.102099 26.04169076 -18.76442628 21.82704328 -18.625 16.58984375 C-17.89599977 11.13145451 -15.37451508 6.90216525 -11.25 3.3125 C-7.37058459 0.58865513 -4.63746577 0.07697039 0 0 Z " fill="#000000" transform="translate(48.3125,133.75)"/>
</svg>
