<svg width="30" height="30" viewBox="0 0 30 30" fill="none" xmlns="http://www.w3.org/2000/svg">
<g clip-path="url(#clip0_20008106_932)">
<path d="M5.8125 3C5.8125 2.35353 6.06931 1.73355 6.52643 1.27643C6.98355 0.819307 7.60353 0.5625 8.25 0.5625H20.25C20.3407 0.5625 20.4285 0.5985 20.4923 0.663L28.587 8.75775C28.6511 8.82212 28.6872 8.90917 28.6875 9V27C28.6875 27.6465 28.4307 28.2665 27.9736 28.7236C27.5165 29.1807 26.8965 29.4375 26.25 29.4375H8.25C7.60353 29.4375 6.98355 29.1807 6.52643 28.7236C6.06931 28.2665 5.8125 27.6465 5.8125 27V3Z" fill="white" stroke="#D5D7DA" stroke-width="1.5"/>
<path d="M20.25 0.375V6C20.25 6.79565 20.5661 7.55871 21.1287 8.12132C21.6913 8.68393 22.4544 9 23.25 9H28.875" stroke="#D5D7DA" stroke-width="1.5"/>
<path d="M18.75 13.5H2.25C1.42157 13.5 0.75 14.1716 0.75 15V24C0.75 24.8284 1.42157 25.5 2.25 25.5H18.75C19.5784 25.5 20.25 24.8284 20.25 24V15C20.25 14.1716 19.5784 13.5 18.75 13.5Z" fill="#D92D20"/>
<path d="M3.62402 22.4997V17.0449H5.77652C6.18952 17.0449 6.54202 17.1239 6.83402 17.2819C7.12502 17.4389 7.34677 17.6564 7.49927 17.9344C7.65427 18.2119 7.73177 18.5317 7.73177 18.8937C7.73177 19.2557 7.65352 19.5752 7.49702 19.8522C7.34052 20.1297 7.11402 20.3454 6.81752 20.4994C6.52252 20.6539 6.16577 20.7312 5.74727 20.7312H4.37477V19.8072H5.56052C5.78252 19.8072 5.96552 19.7689 6.10952 19.6924C6.25452 19.6144 6.36277 19.5069 6.43427 19.3699C6.50677 19.2319 6.54302 19.0732 6.54302 18.8937C6.54302 18.7122 6.50677 18.5542 6.43427 18.4197C6.36264 18.282 6.24884 18.1708 6.10952 18.1024C5.96402 18.0259 5.77902 17.9877 5.55452 17.9877H4.77752V22.4997H3.62402ZM10.4138 22.4997H8.48027V17.0449H10.4303C10.9778 17.0449 11.45 17.1542 11.847 17.3727C12.2425 17.5892 12.547 17.9007 12.7605 18.3072C12.9755 18.7142 13.083 19.2009 13.083 19.7674C13.083 20.3354 12.9755 20.8237 12.7605 21.2322C12.5563 21.6314 12.2357 21.9591 11.841 22.1719C11.4435 22.3904 10.9678 22.4997 10.4138 22.4997ZM9.63377 21.5119H10.3658C10.7068 21.5119 10.9935 21.4514 11.226 21.3304C11.461 21.2084 11.6368 21.0194 11.7533 20.7634C11.8723 20.5054 11.9318 20.1734 11.9318 19.7674C11.9318 19.3639 11.8723 19.0344 11.7533 18.7789C11.6481 18.5361 11.4628 18.3367 11.2283 18.2142C10.9958 18.0942 10.7093 18.0339 10.3688 18.0334H9.63377V21.5119ZM13.9365 22.4997V17.0449H17.5485V17.9959H15.09V19.2957H17.3085V20.2467H15.09V22.4997H13.9365Z" fill="white"/>
</g>
<defs>
<clipPath id="clip0_20008106_932">
<rect width="30" height="30" fill="white"/>
</clipPath>
</defs>
</svg>
