<svg width="30" height="30" viewBox="0 0 30 30" fill="none" xmlns="http://www.w3.org/2000/svg">
<path d="M15 0.5C23.0081 0.5 29.5 6.99187 29.5 15C29.5 23.0081 23.0081 29.5 15 29.5C6.99187 29.5 0.5 23.0081 0.5 15C0.5 6.99187 6.99187 0.5 15 0.5Z" fill="white"/>
<path d="M15 0.5C23.0081 0.5 29.5 6.99187 29.5 15C29.5 23.0081 23.0081 29.5 15 29.5C6.99187 29.5 0.5 23.0081 0.5 15C0.5 6.99187 6.99187 0.5 15 0.5Z" stroke="#DDDDDD"/>
<path d="M21.8955 14.5222C21.3833 13.4022 19.3749 9.75 14.9999 9.75C10.6249 9.75 8.61651 13.4022 8.10434 14.5222C8.03559 14.6723 8 14.8355 8 15.0006C8 15.1657 8.03559 15.3288 8.10434 15.4789C8.61651 16.5977 10.6249 20.25 14.9999 20.25C19.3749 20.25 21.3833 16.5977 21.8955 15.4777C21.9641 15.3278 21.9996 15.1649 21.9996 15C21.9996 14.8351 21.9641 14.6722 21.8955 14.5222ZM14.9999 19.0833C11.3208 19.0833 9.60409 15.9532 9.16659 15.0064C9.60409 14.0468 11.3208 10.9167 14.9999 10.9167C18.6703 10.9167 20.3876 14.0334 20.8333 15C20.3876 15.9666 18.6703 19.0833 14.9999 19.0833Z" fill="#212121"/>
<path d="M14.9997 12.084C14.4228 12.084 13.8589 12.255 13.3793 12.5755C12.8996 12.896 12.5258 13.3515 12.305 13.8845C12.0843 14.4174 12.0265 15.0039 12.1391 15.5697C12.2516 16.1354 12.5294 16.6551 12.9373 17.063C13.3452 17.4709 13.8649 17.7487 14.4307 17.8613C14.9964 17.9738 15.5829 17.9161 16.1158 17.6953C16.6488 17.4745 17.1043 17.1007 17.4248 16.6211C17.7453 16.1414 17.9163 15.5775 17.9163 15.0007C17.9154 14.2274 17.6078 13.4861 17.061 12.9393C16.5143 12.3925 15.7729 12.0849 14.9997 12.084ZM14.9997 16.7507C14.6536 16.7507 14.3152 16.648 14.0274 16.4557C13.7396 16.2634 13.5153 15.9901 13.3829 15.6703C13.2504 15.3506 13.2158 14.9987 13.2833 14.6592C13.3508 14.3198 13.5175 14.008 13.7622 13.7632C14.007 13.5185 14.3188 13.3518 14.6583 13.2843C14.9977 13.2168 15.3496 13.2514 15.6694 13.3839C15.9891 13.5163 16.2625 13.7406 16.4547 14.0284C16.647 14.3162 16.7497 14.6545 16.7497 15.0007C16.7497 15.4648 16.5653 15.9099 16.2371 16.2381C15.9089 16.5663 15.4638 16.7507 14.9997 16.7507Z" fill="#212121"/>
</svg>
