<svg width="55" height="21" viewBox="0 0 55 21" fill="none" xmlns="http://www.w3.org/2000/svg">
<path fill-rule="evenodd" clip-rule="evenodd" d="M1.19967 10.5405L0.977539 10.3164C1.18027 10.1103 1.42198 9.94669 1.68858 9.83499C1.95518 9.72329 2.24135 9.66577 2.5304 9.66577C2.81946 9.66577 3.10563 9.72329 3.37223 9.83499C3.63883 9.94669 3.88054 10.1103 4.08327 10.3164L3.85706 10.5324C3.68369 10.3574 3.47737 10.2185 3.25001 10.1237C3.02266 10.0289 2.77877 9.98011 2.53244 9.98011C2.28611 9.98011 2.04223 10.0289 1.81487 10.1237C1.58751 10.2185 1.38119 10.3574 1.20782 10.5324M1.99037 11.2823L1.78658 11.0785C1.88555 10.9765 2.00402 10.8953 2.13494 10.8399C2.26586 10.7845 2.40658 10.756 2.54874 10.756C2.69091 10.756 2.83163 10.7845 2.96255 10.8399C3.09347 10.8953 3.21194 10.9765 3.31091 11.0785L3.10712 11.2823C2.95986 11.1371 2.76167 11.0552 2.55486 11.0541C2.45223 11.0533 2.35048 11.0731 2.25563 11.1123C2.16077 11.1515 2.07473 11.2093 2.00259 11.2823M2.55486 11.8285L2.15951 11.4413C2.26677 11.3396 2.40721 11.2803 2.55486 11.2742C2.70164 11.2788 2.84131 11.3384 2.94613 11.4413L2.55486 11.8285ZM2.55486 10.5324C2.72702 10.531 2.89763 10.5649 3.0561 10.6323C3.21456 10.6996 3.35748 10.7988 3.47598 10.9237L3.72256 10.6771C3.57054 10.5199 3.38846 10.3949 3.18716 10.3096C2.98585 10.2243 2.76943 10.1803 2.55078 10.1803C2.33213 10.1803 2.11571 10.2243 1.91441 10.3096C1.7131 10.3949 1.53102 10.5199 1.379 10.6771L1.62355 10.9257C1.74355 10.8004 1.88786 10.7009 2.04764 10.6333C2.20742 10.5656 2.37932 10.5313 2.55282 10.5324" fill="#0E6EB6"/>
<path fill-rule="evenodd" clip-rule="evenodd" d="M1.06318 12.0981H3.96715C1.88444 17.366 1.5217 20.4534 3.63498 20.3719C-1.0012 20.645 -0.400022 16.1413 1.06521 12.0981" fill="#0E6EB6"/>
<path fill-rule="evenodd" clip-rule="evenodd" d="M3.73291 4.01701C6.38215 -0.299188 10.678 -0.739367 13.7389 0.831828C17.134 2.57828 18.1815 6.61937 17.3358 10.1775C16.5919 13.4136 14.4603 16.3706 11.7051 18.2719C10.0186 19.4159 8.10243 20.1775 6.09074 20.5034C7.63307 20.0003 9.01329 19.0949 10.0891 17.8806C10.7567 17.1557 11.3349 16.3531 11.8111 15.4902C13.3741 13.383 14.0976 11.3187 14.1485 9.52129C14.2504 7.1105 13.2009 4.71804 10.9857 3.61148C9.05789 2.63126 6.46163 2.68221 3.73291 4.01905" fill="#F26329"/>
<path fill-rule="evenodd" clip-rule="evenodd" d="M1.7312 8.88557C3.89135 4.60605 8.34005 4.30648 10.9608 6.1589C11.9936 6.89182 12.7193 7.98042 12.9986 9.2157C13.3553 10.7889 13.0944 12.4192 12.5034 13.9741C11.9598 15.4208 11.1396 16.7477 10.0885 17.8807C8.59682 19.5294 6.46112 20.7867 4.17869 20.7623C3.26652 20.7671 2.37006 20.5248 1.58447 20.0612C2.66251 20.5809 4.33969 20.3975 5.36474 19.9879C7.06026 19.293 8.42156 17.8522 9.27136 16.2586C10.3209 14.3063 11.1482 11.1639 9.47514 9.36447C7.95692 7.69342 4.92863 7.12281 1.7312 8.88353" fill="#09A14A"/>
<path d="M52.4749 11.3366L52.9885 9.86319C52.9274 9.86319 52.8621 9.86319 52.8071 9.86319C52.6474 9.85675 52.4881 9.88327 52.3391 9.94113C52.19 9.99898 52.0545 10.0869 51.941 10.1994C51.7135 10.4238 51.5588 10.7114 51.4968 11.0248C51.4519 11.1669 51.457 11.32 51.511 11.4588C51.537 11.5101 51.5776 11.5526 51.6276 11.5809C51.6776 11.6091 51.7349 11.622 51.7922 11.6178C52.0434 11.602 52.2831 11.5071 52.477 11.3468M54.1073 9.20904L53.0313 12.2292H52.157L52.2569 11.9418C51.994 12.1517 51.6718 12.2736 51.3358 12.2903C51.2027 12.2961 51.0707 12.2641 50.9549 12.1981C50.8392 12.1322 50.7444 12.0348 50.6816 11.9174C50.5327 11.6219 50.5027 11.2805 50.5981 10.9636C50.7081 10.4268 51.0094 9.9481 51.4458 9.61661C51.9294 9.25106 52.5255 9.06583 53.1311 9.09288C53.4561 9.08944 53.7803 9.12433 54.0971 9.19681M50.5349 9.15809L49.4446 12.2292H48.5704L49.6647 9.15809H50.5349ZM49.9398 8.29811C49.9649 8.16942 50.0327 8.05295 50.1322 7.96753C50.2316 7.88211 50.357 7.83273 50.488 7.82736C50.5439 7.82585 50.5993 7.83741 50.6499 7.86111C50.7005 7.88482 50.7448 7.92002 50.7794 7.9639C50.8149 8.01101 50.8389 8.06575 50.8495 8.12377C50.8601 8.18179 50.8571 8.24149 50.8406 8.29811C50.8112 8.43174 50.7398 8.55245 50.6368 8.64251C50.5369 8.72513 50.4118 8.77115 50.2822 8.77293C50.2275 8.77439 50.1733 8.7634 50.1235 8.74081C50.0737 8.71822 50.0297 8.6846 49.9948 8.64251C49.9614 8.59243 49.9396 8.53557 49.9307 8.47602C49.9219 8.41648 49.9264 8.35572 49.9439 8.29811M47.2029 11.5057L47.7634 9.91006C47.6913 9.8984 47.6183 9.89294 47.5453 9.89376C47.2584 9.88775 46.9782 9.98137 46.7526 10.1587C46.5379 10.3229 46.3879 10.5573 46.3287 10.821C46.3027 10.91 46.2979 11.0039 46.3145 11.0952C46.3311 11.1865 46.3688 11.2726 46.4245 11.3468C46.4919 11.4182 46.5745 11.4736 46.6662 11.5089C46.7579 11.5442 46.8564 11.5584 46.9543 11.5505C47.0381 11.5458 47.1213 11.5336 47.2029 11.5139M49.4446 7.60727L47.8326 12.1945C47.4931 12.2575 47.1488 12.2923 46.8035 12.2984C46.2798 12.2984 45.8946 12.1639 45.646 11.8909C45.3974 11.6178 45.3281 11.2652 45.4279 10.8169C45.531 10.3337 45.799 9.90137 46.186 9.59419C46.5855 9.26053 47.0922 9.08249 47.6126 9.09288C47.753 9.09517 47.8932 9.10606 48.0324 9.12548L48.5683 7.59912L49.4446 7.60727ZM43.4777 9.15809L43.3452 9.50249C43.66 9.2598 44.0407 9.11775 44.4375 9.09492C44.5394 9.08534 44.6419 9.1036 44.7341 9.14775C44.8263 9.19189 44.9049 9.26027 44.9613 9.34557C45.0152 9.45267 45.0475 9.56937 45.0562 9.68897C45.065 9.80857 45.05 9.92872 45.0122 10.0425C44.993 10.1358 44.9679 10.2277 44.9368 10.3176L44.2664 12.2312H43.3962L44.0422 10.3971C44.0661 10.3457 44.0839 10.2917 44.0952 10.2361C44.1563 9.93248 44.0952 9.78372 43.9179 9.78372C43.7406 9.78372 43.4329 9.93656 43.0844 10.2565L42.3854 12.2353H41.5111L42.6034 9.15809H43.4777ZM42.2346 7.60727L40.6043 12.2373H39.6628L41.2931 7.60727H42.2346ZM38.6072 7.60727L36.9769 12.2373H36.1108L37.7411 7.60727H38.6072ZM34.7352 11.3447L35.2447 9.87134C35.1835 9.87134 35.1183 9.87134 35.0633 9.87134C34.9042 9.86497 34.7455 9.89155 34.5971 9.94941C34.4488 10.0073 34.314 10.0952 34.2013 10.2076C33.9757 10.4266 33.8197 10.7073 33.7529 11.0146C33.7057 11.1566 33.7122 11.3111 33.7713 11.4487C33.7963 11.4998 33.8361 11.5422 33.8855 11.5706C33.9349 11.5989 33.9916 11.6118 34.0484 11.6076C34.2998 11.5902 34.5397 11.4955 34.7352 11.3366M36.3655 9.19885L35.2956 12.2292H34.4254L34.5273 11.9418C34.2641 12.1498 33.9432 12.2715 33.6082 12.2903C33.4728 12.2984 33.3379 12.2679 33.2192 12.2022C33.1004 12.1365 33.0029 12.0384 32.9378 11.9194C32.792 11.623 32.7622 11.2829 32.8542 10.9657C32.9636 10.4285 33.265 9.94962 33.702 9.61865C34.1871 9.25296 34.7845 9.06776 35.3914 9.09492C35.7156 9.09179 36.0392 9.12667 36.3553 9.19885M32.5689 8.5019L32.3121 9.15809H32.9541L32.6912 9.83059H32.0452L31.6621 10.8332C31.6285 10.9089 31.6039 10.9882 31.5887 11.0696C31.5255 11.3447 31.5887 11.4772 31.766 11.4772C31.956 11.4498 32.1392 11.3869 32.306 11.2917L32.1287 12.1069C31.8836 12.2328 31.6135 12.3024 31.338 12.3107C31.2205 12.319 31.1028 12.2974 30.9959 12.2478C30.8889 12.1983 30.7963 12.1225 30.7267 12.0274C30.6639 11.9156 30.6242 11.7924 30.6098 11.665C30.5955 11.5376 30.6068 11.4086 30.6431 11.2856C30.6696 11.198 30.6961 11.1083 30.7267 11.0187L31.1934 9.84281H30.6024L30.8591 9.17032H31.4542L31.7008 8.52024L32.5689 8.5019ZM30.4393 9.15809L29.3511 12.2292H28.4809L29.5651 9.15809H30.4393ZM29.8382 8.29811C29.8683 8.16767 29.9398 8.05045 30.0419 7.9639C30.1404 7.87936 30.2648 7.83116 30.3945 7.82736C30.4507 7.82553 30.5065 7.83693 30.5575 7.86065C30.6085 7.88436 30.6532 7.91973 30.688 7.9639C30.7209 8.01227 30.7433 8.06699 30.7538 8.12454C30.7644 8.1821 30.7628 8.24122 30.7491 8.29811C30.7165 8.43045 30.6456 8.55025 30.5453 8.64251C30.4452 8.72333 30.3214 8.76914 30.1928 8.77293C30.1379 8.77566 30.0832 8.76525 30.0333 8.74257C29.9833 8.71988 29.9394 8.68557 29.9054 8.64251C29.8703 8.59324 29.8466 8.53677 29.836 8.4772C29.8254 8.41763 29.8283 8.35645 29.8443 8.29811M27.0014 12.9098C27.03 12.7672 26.9138 12.6612 26.657 12.6062L26.2922 12.5185C26.1723 12.5258 26.0548 12.5555 25.9458 12.6062C25.8803 12.6239 25.8207 12.6587 25.7731 12.7071C25.7255 12.7554 25.6915 12.8155 25.6748 12.8813C25.6299 13.0973 25.8215 13.2012 26.2535 13.2012C26.4347 13.2088 26.6158 13.186 26.7895 13.134C26.8401 13.1177 26.8856 13.0885 26.9213 13.0491C26.9571 13.0098 26.9819 12.9617 26.9933 12.9098M26.9566 10.8719C27.2725 10.8719 27.4763 10.6478 27.568 10.2076C27.5842 10.1547 27.5895 10.0991 27.5836 10.0441C27.5776 9.98905 27.5605 9.93583 27.5333 9.88765C27.5011 9.84689 27.4593 9.81476 27.4117 9.79413C27.364 9.7735 27.312 9.76502 27.2602 9.76945C26.9423 9.76945 26.7324 9.99158 26.6265 10.446C26.5674 10.7252 26.6713 10.8719 26.9484 10.8719M29.0658 9.15809L28.8335 9.83059H28.3668C28.3988 9.99342 28.3988 10.1609 28.3668 10.3238C28.2958 10.641 28.1164 10.9235 27.8594 11.1226C27.5839 11.3392 27.2418 11.4537 26.8914 11.4466C26.7549 11.4429 26.6184 11.4524 26.4838 11.4751C26.4472 11.4787 26.4128 11.4942 26.3859 11.5192C26.359 11.5443 26.3412 11.5775 26.335 11.6137C26.3249 11.6504 26.335 11.683 26.3921 11.7238C26.5922 11.7831 26.7966 11.8267 27.0035 11.8542C27.3642 11.9174 27.6148 12.0193 27.733 12.1843C27.7981 12.2704 27.8423 12.3705 27.8621 12.4766C27.8819 12.5827 27.8768 12.6919 27.8472 12.7957C27.7025 13.46 27.1237 13.7983 26.1129 13.7983C25.7676 13.8241 25.4219 13.7536 25.1144 13.5945C25.0173 13.5406 24.9411 13.4557 24.8978 13.3534C24.8546 13.2511 24.8469 13.1372 24.8759 13.03C24.9432 12.7366 25.2326 12.4982 25.7502 12.3433C25.6445 12.295 25.5588 12.2115 25.5079 12.107C25.457 12.0026 25.4439 11.8837 25.471 11.7706C25.5342 11.4853 25.7726 11.2958 26.1863 11.2041C26.0466 11.1083 25.9409 10.9707 25.8842 10.8111C25.8274 10.6515 25.8226 10.4781 25.8704 10.3156C25.9509 9.98755 26.1451 9.6987 26.4186 9.50045C26.7065 9.26976 27.0667 9.14847 27.4355 9.15809H29.0658ZM25.6014 9.15809L24.5132 12.2373H23.643L24.717 9.15809H25.6014ZM24.99 8.29811C25.0205 8.16778 25.0919 8.05064 25.1938 7.9639C25.2914 7.88064 25.4141 7.83256 25.5423 7.82736C25.5984 7.82646 25.6539 7.83828 25.7047 7.86193C25.7555 7.88558 25.8003 7.92044 25.8358 7.9639C25.8701 8.01159 25.8929 8.06658 25.9024 8.12456C25.912 8.18253 25.908 8.24193 25.8908 8.29811C25.8587 8.43064 25.7877 8.55056 25.687 8.64251C25.5865 8.72542 25.4606 8.77145 25.3304 8.77293C25.276 8.77485 25.2218 8.76406 25.1723 8.74142C25.1228 8.71878 25.0792 8.68492 25.0451 8.64251C25.0122 8.59218 24.9899 8.53573 24.9794 8.47655C24.9688 8.41737 24.9704 8.35667 24.9839 8.29811M21.1466 8.37759L20.0706 11.4629H20.9469C21.165 11.4667 21.3816 11.4271 21.5842 11.3462C21.7868 11.2654 21.9713 11.145 22.1268 10.9922C22.4584 10.6846 22.6845 10.2803 22.7728 9.8367C22.8253 9.65828 22.8374 9.4704 22.8081 9.28674C22.7788 9.10308 22.709 8.92825 22.6037 8.77497C22.4816 8.63256 22.3274 8.5213 22.1537 8.45041C21.98 8.37953 21.792 8.35108 21.6051 8.3674L21.1466 8.37759ZM20.4884 7.60727H21.9516C22.6893 7.60727 23.2069 7.81106 23.5065 8.23494C23.806 8.65881 23.8794 9.19885 23.7367 9.86523C23.6019 10.5203 23.2622 11.1155 22.7667 11.5648C22.3319 11.9936 21.7471 12.2363 21.1364 12.2414H18.8662L20.4884 7.60727Z" fill="black"/>
<path fill-rule="evenodd" clip-rule="evenodd" d="M19.2331 15.394H19.7364C19.9016 15.3994 20.0636 15.3475 20.195 15.2473C20.2492 15.1999 20.2919 15.1407 20.3198 15.0744C20.3477 15.008 20.3601 14.9361 20.3559 14.8642C20.36 14.7914 20.3476 14.7186 20.3197 14.6512C20.2918 14.5839 20.2492 14.5236 20.195 14.4749C20.0645 14.3735 19.9013 14.3234 19.7364 14.3343H19.2331V15.394ZM19.2331 15.6732V16.8511H18.9355V14.049H19.6712C19.9314 14.0354 20.189 14.1069 20.4049 14.2528C20.4949 14.3263 20.5663 14.4199 20.6134 14.5261C20.6605 14.6323 20.6819 14.7481 20.6759 14.8642C20.6804 14.9776 20.6583 15.0906 20.6112 15.1939C20.5641 15.2973 20.4935 15.3882 20.4049 15.4592C20.1918 15.6121 19.9332 15.6883 19.6712 15.6752L19.2331 15.6732Z" fill="black"/>
<path fill-rule="evenodd" clip-rule="evenodd" d="M21.8743 16.5802C21.9655 16.5824 22.0562 16.5654 22.1404 16.5303C22.2247 16.4951 22.3006 16.4427 22.3634 16.3764C22.4297 16.3078 22.4819 16.2268 22.5168 16.1379C22.5518 16.0491 22.5689 15.9543 22.5671 15.8588C22.5699 15.7636 22.5533 15.6687 22.5182 15.5801C22.4832 15.4915 22.4305 15.4109 22.3634 15.3432C22.3024 15.2736 22.2272 15.2178 22.1428 15.1799C22.0584 15.1419 21.9668 15.1225 21.8743 15.1232C21.7806 15.1211 21.6877 15.1398 21.602 15.1778C21.5164 15.2159 21.4403 15.2723 21.3791 15.3432C21.3122 15.4111 21.2597 15.4917 21.2247 15.5803C21.1897 15.6689 21.1729 15.7636 21.1753 15.8588C21.1722 16.0515 21.2454 16.2376 21.3791 16.3764C21.4422 16.444 21.519 16.4971 21.6045 16.5323C21.6899 16.5674 21.7819 16.5838 21.8743 16.5802ZM21.8743 16.8574C21.7431 16.8628 21.6122 16.8404 21.4903 16.7915C21.3685 16.7427 21.2583 16.6686 21.1671 16.5741C20.9873 16.3749 20.8877 16.116 20.8877 15.8476C20.8877 15.5792 20.9873 15.3203 21.1671 15.1211C21.3557 14.9363 21.6092 14.8328 21.8733 14.8328C22.1373 14.8328 22.3908 14.9363 22.5794 15.1211C22.7571 15.3214 22.8553 15.5798 22.8553 15.8476C22.8553 16.1154 22.7571 16.3739 22.5794 16.5741C22.4887 16.6682 22.3793 16.7421 22.2581 16.7909C22.1369 16.8397 22.0068 16.8624 21.8763 16.8574" fill="black"/>
<path fill-rule="evenodd" clip-rule="evenodd" d="M24.028 16.35L24.5782 14.7971H24.7596L25.32 16.3479L25.9069 14.8256H26.18L25.3934 16.8533H25.214L24.6638 15.3331L24.1075 16.8533H23.9302L23.1436 14.8256H23.4452L24.028 16.35Z" fill="black"/>
<path fill-rule="evenodd" clip-rule="evenodd" d="M27.8428 15.6023C27.8249 15.4956 27.78 15.3953 27.7124 15.3108C27.6603 15.2475 27.5941 15.1974 27.519 15.1645C27.4439 15.1315 27.3622 15.1167 27.2803 15.1213C27.2018 15.1241 27.1247 15.1437 27.0544 15.1789C26.984 15.214 26.9221 15.2639 26.8728 15.3251C26.8103 15.4094 26.7627 15.5039 26.7321 15.6043L27.8428 15.6023ZM26.6914 15.8427C26.6908 15.9377 26.7095 16.0318 26.7462 16.1194C26.783 16.2069 26.8371 16.2861 26.9054 16.3522C26.9715 16.4221 27.0515 16.4775 27.1403 16.5147C27.2291 16.5519 27.3247 16.5701 27.4209 16.5682C27.5391 16.5685 27.6565 16.5478 27.7674 16.5071C27.8851 16.46 27.995 16.3954 28.0934 16.3155L28.1587 16.2605V16.5743H28.1383C28.037 16.6618 27.9211 16.7308 27.7959 16.7781C27.6094 16.8444 27.4084 16.8593 27.2141 16.8213C27.0198 16.7833 26.8392 16.6938 26.6914 16.5621C26.5972 16.4673 26.5234 16.3542 26.4747 16.2298C26.426 16.1053 26.4033 15.9722 26.4081 15.8386C26.3973 15.5737 26.4844 15.314 26.6527 15.1091C26.7293 15.0171 26.8257 14.9436 26.9348 14.8942C27.0438 14.8448 27.1627 14.8207 27.2824 14.8238C27.4038 14.817 27.5252 14.8374 27.6377 14.8836C27.7501 14.9298 27.8509 15.0006 27.9325 15.0907C28.0851 15.288 28.1644 15.5323 28.1566 15.7816V15.8223L26.6914 15.8427Z" fill="black"/>
<path fill-rule="evenodd" clip-rule="evenodd" d="M29.0655 15.1219C29.104 15.0502 29.1565 14.9869 29.2199 14.9358C29.2832 14.8846 29.3561 14.8466 29.4343 14.8241C29.5125 14.8015 29.5944 14.7947 29.6753 14.8042C29.7561 14.8137 29.8343 14.8393 29.9051 14.8794C29.9092 14.8796 29.9132 14.8811 29.9165 14.8836C29.9198 14.8862 29.9222 14.8897 29.9234 14.8936V15.2115C29.9051 15.2013 29.9234 15.2115 29.899 15.2115C29.4384 14.9548 29.1572 15.3236 29.0655 15.5743V16.85H28.7822V14.8121H29.0655V15.1219Z" fill="black"/>
<path fill-rule="evenodd" clip-rule="evenodd" d="M31.9934 14.3432H31.0947V14.0864H33.1937V14.3432H32.295V16.8233H31.9934V14.3432Z" fill="black"/>
<path fill-rule="evenodd" clip-rule="evenodd" d="M36.8875 14.3854V15.28H38.0246V15.5449H36.8875V16.5455H38.2365V16.8125H36.5879V14.1184H38.1836V14.3854H36.8875Z" fill="black"/>
<path fill-rule="evenodd" clip-rule="evenodd" d="M39.0509 15.0837C39.1188 14.9992 39.2047 14.931 39.3024 14.8841C39.4001 14.8372 39.5071 14.8128 39.6154 14.8127C39.7143 14.809 39.8129 14.8263 39.9046 14.8635C39.9963 14.9008 40.079 14.9571 40.1473 15.0287C40.1921 15.077 40.231 15.1303 40.2635 15.1876L40.3042 15.1204C40.3739 15.0261 40.4644 14.9491 40.5687 14.8954C40.6729 14.8417 40.7881 14.8127 40.9054 14.8106C41.0043 14.8067 41.103 14.8239 41.1947 14.8611C41.2864 14.8984 41.3691 14.9548 41.4373 15.0266C41.5066 15.1003 41.5603 15.1872 41.5953 15.2821C41.6303 15.3769 41.6459 15.4779 41.6411 15.5789V16.7853H41.3456V15.5911C41.3522 15.4574 41.3061 15.3264 41.2172 15.2263C41.1748 15.1788 41.1221 15.1416 41.0631 15.1176C41.0041 15.0936 40.9404 15.0834 40.8769 15.0878C40.7931 15.0918 40.7112 15.1143 40.6372 15.1538C40.5632 15.1932 40.4989 15.2487 40.4489 15.316C40.4111 15.3538 40.3783 15.3963 40.3511 15.4424V16.7853H40.0556V15.5911C40.0593 15.5249 40.0499 15.4585 40.0278 15.3959C40.0058 15.3333 39.9716 15.2757 39.9272 15.2263C39.8843 15.1794 39.8316 15.1426 39.7727 15.1187C39.7138 15.0947 39.6503 15.0841 39.5869 15.0878C39.5026 15.092 39.4202 15.1146 39.3456 15.1541C39.271 15.1935 39.2059 15.2488 39.1549 15.316C39.1189 15.3559 39.0856 15.3981 39.055 15.4424V16.7853H38.7656V14.8493H39.0509V15.0837Z" fill="black"/>
<path d="M42.2734 14.852H42.5689V15.0965C42.6308 14.9926 42.7287 14.915 42.844 14.8785C43.0188 14.8084 43.2101 14.7904 43.3948 14.8265C43.5796 14.8627 43.75 14.9515 43.8854 15.0823C44.0562 15.2885 44.1505 15.5474 44.1523 15.8151C44.1542 16.0828 44.0635 16.343 43.8956 16.5516C43.541 16.9388 43.0213 16.8511 42.5975 16.627L42.5689 16.6086V17.5522H42.2734V14.852ZM43.4636 15.2045C43.219 15.0456 42.8624 15.0823 42.575 15.4674V16.2561C42.8746 16.5781 43.2618 16.6086 43.5186 16.4211C43.6086 16.3446 43.6799 16.2486 43.727 16.1403C43.7742 16.032 43.796 15.9143 43.7906 15.7963C43.7853 15.6783 43.7531 15.5631 43.6964 15.4595C43.6397 15.3558 43.5601 15.2665 43.4636 15.1984" fill="black"/>
<path d="M23.8489 12.6936H18.2651V13.0156H23.8489V12.6936Z" fill="black"/>
<path d="M53.7489 12.6936H28.3447V13.0156H53.7489V12.6936Z" fill="black"/>
<path fill-rule="evenodd" clip-rule="evenodd" d="M33.9971 16.5278C34.0885 16.5309 34.1794 16.5143 34.2638 16.4791C34.3482 16.444 34.424 16.3911 34.4862 16.3241C34.6191 16.1856 34.6923 16.0004 34.69 15.8085C34.6915 15.6155 34.6185 15.4294 34.4862 15.2888C34.4252 15.2203 34.3495 15.1665 34.2649 15.1312C34.1802 15.0959 34.0887 15.0801 33.9971 15.085C33.9051 15.0815 33.8134 15.0979 33.7283 15.1331C33.6432 15.1682 33.5666 15.2214 33.5039 15.2888C33.37 15.4283 33.2967 15.6151 33.3002 15.8085C33.2981 15.9037 33.3151 15.9983 33.3501 16.0868C33.3851 16.1753 33.4374 16.256 33.5039 16.3241C33.5674 16.3905 33.6441 16.4429 33.729 16.478C33.8139 16.5131 33.9053 16.5301 33.9971 16.5278ZM33.9971 16.807C33.8661 16.8113 33.7355 16.7883 33.6138 16.7396C33.4921 16.6908 33.3818 16.6173 33.29 16.5238C33.1974 16.428 33.1251 16.3146 33.0771 16.1903C33.0292 16.0661 33.0066 15.9334 33.0108 15.8003C33.0047 15.6658 33.0263 15.5314 33.0743 15.4055C33.1223 15.2796 33.1958 15.165 33.29 15.0687C33.3812 14.974 33.4912 14.8995 33.613 14.85C33.7349 14.8005 33.8657 14.7771 33.9971 14.7814C34.128 14.7765 34.2584 14.7997 34.3796 14.8492C34.5009 14.8988 34.6102 14.9736 34.7002 15.0687C34.7937 15.164 34.867 15.2772 34.9157 15.4015C34.9644 15.5258 34.9874 15.6587 34.9834 15.7922C34.9866 15.9255 34.9632 16.0582 34.9146 16.1824C34.8659 16.3066 34.7931 16.4199 34.7002 16.5156C34.6088 16.6087 34.4992 16.6819 34.3782 16.7306C34.2572 16.7793 34.1275 16.8026 33.9971 16.7989" fill="black"/>
<path fill-rule="evenodd" clip-rule="evenodd" d="M45.5011 16.5276C45.5923 16.5297 45.683 16.5126 45.7672 16.4775C45.8515 16.4424 45.9274 16.3901 45.9902 16.3239C46.1235 16.1856 46.1968 16.0003 46.194 15.8083C46.1959 15.6152 46.1228 15.4289 45.9902 15.2886C45.9273 15.2217 45.8514 15.1684 45.7671 15.1319C45.6828 15.0954 45.5919 15.0766 45.5001 15.0766C45.4083 15.0766 45.3174 15.0954 45.2331 15.1319C45.1488 15.1684 45.0729 15.2217 45.01 15.2886C44.9431 15.3573 44.8906 15.4386 44.8556 15.5279C44.8206 15.6171 44.8038 15.7125 44.8062 15.8083C44.8035 15.9035 44.8201 15.9984 44.8551 16.087C44.8902 16.1756 44.9428 16.2562 45.01 16.3239C45.0728 16.3901 45.1487 16.4424 45.233 16.4775C45.3172 16.5126 45.4079 16.5297 45.4991 16.5276M45.4991 16.8068C45.3679 16.812 45.2371 16.7894 45.1153 16.7406C44.9934 16.6918 44.8833 16.6179 44.7919 16.5236C44.6989 16.4281 44.6262 16.3148 44.5783 16.1904C44.5303 16.0661 44.508 15.9333 44.5127 15.8001C44.5065 15.6652 44.5285 15.5305 44.5773 15.4045C44.6261 15.2785 44.7006 15.1641 44.796 15.0685C44.8867 14.9732 44.9967 14.8983 45.1186 14.8487C45.2406 14.7992 45.3716 14.7762 45.5032 14.7812C45.6346 14.7771 45.7654 14.8005 45.8872 14.85C46.0089 14.8995 46.119 14.9739 46.2103 15.0685C46.3016 15.165 46.3729 15.2786 46.4202 15.4028C46.4674 15.5269 46.4896 15.6592 46.4854 15.792C46.4924 16.0599 46.3936 16.3198 46.2103 16.5154C46.1184 16.6089 46.0081 16.6823 45.8864 16.7311C45.7647 16.7798 45.6342 16.8028 45.5032 16.7987" fill="black"/>
<path fill-rule="evenodd" clip-rule="evenodd" d="M47.6568 16.374L48.2091 14.813H48.3945L48.9468 16.3699L49.5337 14.8456H49.8149L49.0283 16.8692H48.849L48.2947 15.353L47.7424 16.8692H47.561L46.7744 14.8456H47.0719L47.6568 16.374Z" fill="black"/>
<path fill-rule="evenodd" clip-rule="evenodd" d="M51.4823 15.6035C51.4654 15.4966 51.4204 15.396 51.3518 15.3121C51.3002 15.2488 51.2343 15.1987 51.1596 15.1657C51.0849 15.1328 51.0034 15.118 50.9218 15.1226C50.843 15.1238 50.7654 15.1428 50.6948 15.178C50.6243 15.2133 50.5626 15.264 50.5143 15.3264C50.4493 15.4092 50.4015 15.5041 50.3737 15.6056L51.4823 15.6035ZM50.3329 15.844C50.3321 15.939 50.3506 16.0332 50.3874 16.1208C50.4242 16.2084 50.4785 16.2875 50.5469 16.3535C50.6126 16.4229 50.6919 16.4779 50.78 16.5151C50.868 16.5523 50.9628 16.5708 51.0584 16.5695C51.1765 16.5693 51.2938 16.5486 51.4048 16.5083C51.5224 16.4635 51.6313 16.3987 51.7268 16.3168L51.7981 16.2618V16.5756H51.7839C51.6802 16.663 51.5624 16.7319 51.4354 16.7794C51.2482 16.846 51.0465 16.8611 50.8515 16.8231C50.6565 16.7851 50.4753 16.6954 50.3268 16.5634C50.2336 16.4679 50.1607 16.3547 50.1123 16.2303C50.064 16.106 50.0413 15.9732 50.0456 15.8399C50.0366 15.5756 50.1226 15.3167 50.2881 15.1104C50.3691 15.022 50.4673 14.9511 50.5768 14.9021C50.6862 14.8531 50.8045 14.827 50.9244 14.8255C51.0443 14.824 51.1633 14.847 51.2739 14.8932C51.3846 14.9394 51.4846 15.0077 51.5679 15.0941C51.7222 15.2907 51.8029 15.5351 51.7961 15.7849V15.8257L50.3329 15.844Z" fill="black"/>
<path fill-rule="evenodd" clip-rule="evenodd" d="M52.7052 15.1011C52.7443 15.0308 52.7969 14.9688 52.86 14.9188C52.9231 14.8688 52.9954 14.8318 53.0729 14.8098C53.1503 14.7879 53.2313 14.7814 53.3113 14.7908C53.3912 14.8003 53.4685 14.8254 53.5387 14.8647C53.5387 14.8647 53.553 14.8647 53.5611 14.8749V15.2051C53.5367 15.1786 53.5611 15.2051 53.5367 15.1908C53.0741 14.932 52.7949 15.3049 52.7032 15.5495V16.8252H52.4199V14.7955H52.7052V15.1011Z" fill="black"/>
</svg>
