<svg width="11" height="6" viewBox="0 0 11 6" fill="none" xmlns="http://www.w3.org/2000/svg">
<path d="M10.2831 0.221849C10.2134 0.151552 10.1304 0.0957565 10.039 0.05768C9.94763 0.0196035 9.8496 0 9.75059 0C9.65159 0 9.55356 0.0196035 9.46216 0.05768C9.37077 0.0957565 9.28782 0.151552 9.21809 0.221849L5.78309 3.65685C5.71337 3.72714 5.63042 3.78294 5.53903 3.82102C5.44763 3.85909 5.3496 3.8787 5.25059 3.8787C5.15159 3.8787 5.05356 3.85909 4.96216 3.82102C4.87077 3.78294 4.78782 3.72714 4.71809 3.65685L1.28309 0.221849C1.21337 0.151552 1.13042 0.0957565 1.03903 0.05768C0.947633 0.0196035 0.849603 0 0.750594 0C0.651585 0 0.553556 0.0196035 0.462162 0.05768C0.370767 0.0957565 0.287817 0.151552 0.218094 0.221849C0.0784061 0.362371 0 0.552459 0 0.750599C0 0.948738 0.0784061 1.13883 0.218094 1.27935L3.66059 4.72185C4.08247 5.1432 4.65434 5.37987 5.25059 5.37987C5.84685 5.37987 6.41872 5.1432 6.84059 4.72185L10.2831 1.27935C10.4228 1.13883 10.5012 0.948738 10.5012 0.750599C10.5012 0.552459 10.4228 0.362371 10.2831 0.221849Z" fill="#212121"/>
</svg>
