<svg width="26" height="24" viewBox="0 0 26 24" fill="none" xmlns="http://www.w3.org/2000/svg">
<path d="M20.5833 0H5.41667C3.98061 0.00172018 2.60385 0.572955 1.5884 1.5884C0.572955 2.60385 0.00172018 3.98061 0 5.41667L0 18.4167C0.00172018 19.8527 0.572955 21.2295 1.5884 22.2449C2.60385 23.2604 3.98061 23.8316 5.41667 23.8333H20.5833C22.0194 23.8316 23.3961 23.2604 24.4116 22.2449C25.427 21.2295 25.9983 19.8527 26 18.4167V5.41667C25.9983 3.98061 25.427 2.60385 24.4116 1.5884C23.3961 0.572955 22.0194 0.00172018 20.5833 0ZM5.41667 2.16667H20.5833C21.232 2.16794 21.8655 2.36331 22.4022 2.72762C22.9389 3.09193 23.3543 3.60853 23.595 4.21092L15.2988 12.5082C14.6883 13.1163 13.8617 13.4577 13 13.4577C12.1383 13.4577 11.3117 13.1163 10.7012 12.5082L2.405 4.21092C2.64566 3.60853 3.06108 3.09193 3.5978 2.72762C4.13452 2.36331 4.76798 2.16794 5.41667 2.16667ZM20.5833 21.6667H5.41667C4.55471 21.6667 3.72806 21.3243 3.11857 20.7148C2.50908 20.1053 2.16667 19.2786 2.16667 18.4167V7.04167L9.16933 14.04C10.1862 15.0543 11.5638 15.6239 13 15.6239C14.4362 15.6239 15.8138 15.0543 16.8307 14.04L23.8333 7.04167V18.4167C23.8333 19.2786 23.4909 20.1053 22.8814 20.7148C22.2719 21.3243 21.4453 21.6667 20.5833 21.6667Z" fill="#212121"/>
</svg>
