<svg width="26" height="26" viewBox="0 0 26 26" fill="none" xmlns="http://www.w3.org/2000/svg">
<path d="M20.5833 1.08325H5.41667C3.98061 1.08497 2.60385 1.65621 1.5884 2.67166C0.572955 3.68711 0.00172018 5.06386 0 6.49992L0 19.4999C0.00172018 20.936 0.572955 22.3127 1.5884 23.3282C2.60385 24.3436 3.98061 24.9149 5.41667 24.9166H20.5833C22.0194 24.9149 23.3961 24.3436 24.4116 23.3282C25.427 22.3127 25.9983 20.936 26 19.4999V6.49992C25.9983 5.06386 25.427 3.68711 24.4116 2.67166C23.3961 1.65621 22.0194 1.08497 20.5833 1.08325ZM5.41667 3.24992H20.5833C21.232 3.25119 21.8655 3.44656 22.4022 3.81087C22.9389 4.17519 23.3543 4.69178 23.595 5.29417L15.2988 13.5914C14.6883 14.1995 13.8617 14.5409 13 14.5409C12.1383 14.5409 11.3117 14.1995 10.7012 13.5914L2.405 5.29417C2.64566 4.69178 3.06108 4.17519 3.5978 3.81087C4.13452 3.44656 4.76798 3.25119 5.41667 3.24992ZM20.5833 22.7499H5.41667C4.55471 22.7499 3.72806 22.4075 3.11857 21.798C2.50908 21.1885 2.16667 20.3619 2.16667 19.4999V8.12492L9.16933 15.1233C10.1862 16.1375 11.5638 16.7071 13 16.7071C14.4362 16.7071 15.8138 16.1375 16.8307 15.1233L23.8333 8.12492V19.4999C23.8333 20.3619 23.4909 21.1885 22.8814 21.798C22.2719 22.4075 21.4453 22.7499 20.5833 22.7499Z" fill="white"/>
</svg>
