<svg width="16" height="16" viewBox="0 0 16 16" fill="none" xmlns="http://www.w3.org/2000/svg">
<g clip-path="url(#clip0_20008038_107)">
<path d="M14.1033 13.1611C15.3277 11.7203 15.9999 9.89119 15.9999 8.00045C15.9999 6.1097 15.3277 4.28055 14.1033 2.83978L14.6766 2.26645C14.8016 2.14135 14.8718 1.97172 14.8718 1.79488C14.8717 1.61803 14.8014 1.44845 14.6763 1.32345C14.5512 1.19844 14.3816 1.12825 14.2047 1.12831C14.0279 1.12837 13.8583 1.19869 13.7333 1.32378L13.16 1.89711C11.7192 0.672731 9.89004 0.000488281 7.99929 0.000488281C6.10855 0.000488281 4.27939 0.672731 2.83862 1.89711L2.26529 1.32378C2.13947 1.20243 1.97102 1.13535 1.79622 1.13699C1.62142 1.13863 1.45426 1.20886 1.33074 1.33255C1.20723 1.45625 1.13723 1.62351 1.13584 1.79831C1.13444 1.97311 1.20176 2.14146 1.32329 2.26711L1.89662 2.84045C0.672243 4.28121 0 6.11037 0 8.00111C0 9.89186 0.672243 11.721 1.89662 13.1618L1.32329 13.7351C1.25966 13.7967 1.20893 13.8703 1.17405 13.9516C1.13917 14.033 1.12084 14.1205 1.12013 14.209C1.11943 14.2975 1.13636 14.3853 1.16994 14.4672C1.20351 14.5491 1.25307 14.6235 1.31571 14.686C1.37835 14.7486 1.45281 14.798 1.53477 14.8315C1.61672 14.865 1.70452 14.8818 1.79304 14.8809C1.88156 14.8801 1.96902 14.8617 2.05033 14.8267C2.13164 14.7917 2.20517 14.7408 2.26662 14.6771L2.83996 14.1038C4.28072 15.3282 6.10988 16.0004 8.00063 16.0004C9.89137 16.0004 11.7205 15.3282 13.1613 14.1038L13.7346 14.6771C13.8604 14.7985 14.0289 14.8655 14.2037 14.8639C14.3785 14.8623 14.5457 14.792 14.6692 14.6683C14.7927 14.5446 14.8627 14.3774 14.8641 14.2026C14.8655 14.0278 14.7982 13.8594 14.6766 13.7338L14.1033 13.1611ZM14.6666 8.00045C14.6679 9.53809 14.1348 11.0284 13.1586 12.2164L10.778 9.83578C11.1401 9.29217 11.3333 8.65361 11.3333 8.00045C11.3333 7.34729 11.1401 6.70872 10.778 6.16511L13.1586 3.78445C14.1348 4.97249 14.6679 6.4628 14.6666 8.00045ZM5.99996 8.00045C5.99996 7.60488 6.11726 7.2182 6.33702 6.88931C6.55678 6.56041 6.86914 6.30406 7.23459 6.15269C7.60004 6.00131 8.00218 5.96171 8.39014 6.03888C8.7781 6.11605 9.13447 6.30653 9.41417 6.58623C9.69388 6.86594 9.88436 7.2223 9.96153 7.61027C10.0387 7.99823 9.99909 8.40036 9.84772 8.76581C9.69634 9.13127 9.44 9.44362 9.1111 9.66339C8.7822 9.88315 8.39552 10.0004 7.99996 10.0004C7.46953 10.0004 6.96082 9.78973 6.58574 9.41466C6.21067 9.03959 5.99996 8.53088 5.99996 8.00045ZM7.99996 1.33378C9.53761 1.33255 11.0279 1.86561 12.216 2.84178L9.83529 5.22245C9.29169 4.86035 8.65312 4.66715 7.99996 4.66715C7.3468 4.66715 6.70823 4.86035 6.16462 5.22245L3.78396 2.84178C4.97201 1.86561 6.46231 1.33255 7.99996 1.33378ZM1.33329 8.00045C1.33206 6.4628 1.86512 4.97249 2.84129 3.78445L5.22196 6.16511C4.85987 6.70872 4.66666 7.34729 4.66666 8.00045C4.66666 8.65361 4.85987 9.29217 5.22196 9.83578L2.84129 12.2164C1.86512 11.0284 1.33206 9.53809 1.33329 8.00045ZM7.99996 14.6671C6.46231 14.6683 4.97201 14.1353 3.78396 13.1591L6.16462 10.7784C6.70823 11.1405 7.3468 11.3337 7.99996 11.3337C8.65312 11.3337 9.29169 11.1405 9.83529 10.7784L12.216 13.1591C11.0279 14.1353 9.53761 14.6683 7.99996 14.6671Z" fill="#0000C9"/>
</g>
<defs>
<clipPath id="clip0_20008038_107">
<rect width="16" height="16" fill="white"/>
</clipPath>
</defs>
</svg>
