<svg width="18" height="18" viewBox="0 0 18 18" fill="none" xmlns="http://www.w3.org/2000/svg">
<path d="M9 0C7.21997 0 5.47991 0.527841 3.99987 1.51677C2.51983 2.50571 1.36628 3.91131 0.685088 5.55585C0.00389957 7.20038 -0.17433 9.00998 0.172936 10.7558C0.520203 12.5016 1.37737 14.1053 2.63604 15.364C3.89471 16.6226 5.49836 17.4798 7.24419 17.8271C8.99002 18.1743 10.7996 17.9961 12.4442 17.3149C14.0887 16.6337 15.4943 15.4802 16.4832 14.0001C17.4722 12.5201 18 10.78 18 9C17.9975 6.61382 17.0485 4.3261 15.3612 2.63882C13.6739 0.95154 11.3862 0.00251984 9 0ZM9 16.6154C7.49382 16.6154 6.02146 16.1687 4.76912 15.332C3.51678 14.4952 2.5407 13.3058 1.96431 11.9143C1.38792 10.5227 1.23711 8.99155 1.53095 7.51431C1.82479 6.03707 2.55008 4.68014 3.61511 3.61511C4.68014 2.55008 6.03708 1.82478 7.51431 1.53094C8.99155 1.2371 10.5228 1.38791 11.9143 1.9643C13.3058 2.54069 14.4952 3.51677 15.332 4.76912C16.1688 6.02146 16.6154 7.49382 16.6154 9C16.6131 11.019 15.81 12.9547 14.3824 14.3824C12.9547 15.81 11.019 16.6131 9 16.6154ZM7.61539 4.84615C7.61539 4.5723 7.69659 4.3046 7.84874 4.0769C8.00088 3.8492 8.21713 3.67173 8.47013 3.56694C8.72314 3.46214 9.00154 3.43472 9.27013 3.48814C9.53872 3.54157 9.78543 3.67344 9.97907 3.86708C10.1727 4.06072 10.3046 4.30744 10.358 4.57603C10.4114 4.84462 10.384 5.12302 10.2792 5.37602C10.1744 5.62903 9.99695 5.84527 9.76925 5.99742C9.54156 6.14956 9.27385 6.23077 9 6.23077C8.63278 6.23077 8.2806 6.08489 8.02093 5.82522C7.76127 5.56556 7.61539 5.21338 7.61539 4.84615ZM13.8462 7.61538C13.8462 7.79899 13.7732 7.97509 13.6434 8.10492C13.5135 8.23475 13.3375 8.30769 13.1538 8.30769H9.69231V9.48288L12.3456 13.4637C12.4475 13.6165 12.4845 13.8036 12.4485 13.9837C12.4124 14.1639 12.3063 14.3223 12.1535 14.4242C12.0006 14.5261 11.8135 14.5631 11.6334 14.5271C11.4532 14.4911 11.2948 14.385 11.1929 14.2321L9 10.9437L6.80712 14.2321C6.75666 14.3078 6.69179 14.3728 6.61621 14.4234C6.54063 14.474 6.45582 14.5093 6.36662 14.5271C6.18648 14.5631 5.9994 14.5261 5.84654 14.4242C5.69368 14.3223 5.58757 14.1639 5.55154 13.9837C5.51551 13.8036 5.55252 13.6165 5.65443 13.4637L8.30769 9.48288V8.30769H4.84616C4.66255 8.30769 4.48645 8.23475 4.35662 8.10492C4.22679 7.97509 4.15385 7.79899 4.15385 7.61538C4.15385 7.43177 4.22679 7.25568 4.35662 7.12585C4.48645 6.99602 4.66255 6.92308 4.84616 6.92308H13.1538C13.3375 6.92308 13.5135 6.99602 13.6434 7.12585C13.7732 7.25568 13.8462 7.43177 13.8462 7.61538Z" fill="#0000C9"/>
</svg>
