<svg width="18" height="26" viewBox="0 0 18 26" fill="none" xmlns="http://www.w3.org/2000/svg">
<path d="M11.9654 8.00783e-05C11.9362 -0.00100326 5.39717 -0.00100326 5.36792 8.00783e-05C2.40392 0.0260801 0 2.44625 0 5.41567V20.5823C0 23.5691 2.42992 25.999 5.41667 25.999H11.9167C14.9034 25.999 17.3333 23.5691 17.3333 20.5823V5.41675C17.3333 2.44625 14.9294 0.0271634 11.9654 8.00783e-05ZM15.1667 20.5823C15.1667 22.3742 13.7085 23.8323 11.9167 23.8323H5.41667C3.62483 23.8323 2.16667 22.3742 2.16667 20.5823V5.41675C2.16667 3.84266 3.29117 2.5275 4.77858 2.22958L5.53042 3.73433C5.7135 4.10158 6.08942 4.33341 6.5 4.33341H10.8333C11.2439 4.33341 11.6187 4.10158 11.8029 3.73433L12.5547 2.22958C14.0422 2.52641 15.1667 3.84266 15.1667 5.41675V20.5823ZM9.75 21.6657H7.58333C6.98533 21.6657 6.5 21.1803 6.5 20.5823C6.5 19.9843 6.98533 19.499 7.58333 19.499H9.75C10.348 19.499 10.8333 19.9843 10.8333 20.5823C10.8333 21.1803 10.348 21.6657 9.75 21.6657Z" fill="white"/>
</svg>
