<svg width="24" height="24" viewBox="0 0 24 24" fill="none" xmlns="http://www.w3.org/2000/svg">
<g clip-path="url(#clip0_20008048_903)">
<path d="M21 4H8C6.343 4 5 5.343 5 7V10C5 11.657 6.343 13 8 13H21C22.657 13 24 11.657 24 10V7C24 5.343 22.657 4 21 4ZM10.87 9.234C11.182 9.546 11.182 10.053 10.87 10.366C10.714 10.522 10.51 10.6 10.305 10.6C10.1 10.6 9.896 10.522 9.74 10.366L9.006 9.632L8.272 10.366C8.116 10.522 7.912 10.6 7.707 10.6C7.502 10.6 7.298 10.522 7.142 10.366C6.83 10.054 6.83 9.547 7.142 9.234L7.876 8.5L7.142 7.766C6.83 7.454 6.83 6.947 7.142 6.634C7.454 6.322 7.96 6.322 8.273 6.634L9.007 7.368L9.741 6.634C10.053 6.322 10.559 6.322 10.872 6.634C11.184 6.946 11.184 7.453 10.872 7.766L10.138 8.5L10.872 9.234H10.87ZM16.365 9.234C16.677 9.546 16.677 10.053 16.365 10.366C16.209 10.522 16.005 10.6 15.8 10.6C15.595 10.6 15.391 10.522 15.235 10.366L14.501 9.632L13.767 10.366C13.611 10.522 13.407 10.6 13.202 10.6C12.997 10.6 12.793 10.522 12.637 10.366C12.325 10.054 12.325 9.547 12.637 9.234L13.371 8.5L12.637 7.766C12.325 7.454 12.325 6.947 12.637 6.634C12.949 6.322 13.455 6.322 13.768 6.634L14.502 7.368L15.236 6.634C15.548 6.322 16.054 6.322 16.367 6.634C16.679 6.946 16.679 7.453 16.367 7.766L15.633 8.5L16.367 9.234H16.365ZM21.896 9.234C22.208 9.546 22.208 10.053 21.896 10.365C21.74 10.521 21.536 10.599 21.331 10.599C21.126 10.599 20.922 10.521 20.766 10.365L20.031 9.63L19.296 10.365C19.14 10.521 18.936 10.599 18.731 10.599C18.526 10.599 18.322 10.521 18.166 10.365C17.854 10.053 17.854 9.546 18.166 9.234L18.9 8.5L18.166 7.766C17.854 7.454 17.854 6.947 18.166 6.635C18.478 6.323 18.984 6.322 19.297 6.635L20.032 7.37L20.767 6.635C21.079 6.323 21.585 6.323 21.898 6.635C22.211 6.947 22.21 7.454 21.898 7.766L21.164 8.5L21.898 9.234H21.896ZM15 15C14.447 15 14 15.448 14 16H2V5C2 3.346 3.346 2 5 2H12C12.553 2 13 1.552 13 1C13 0.448 12.553 0 12 0H5C2.243 0 0 2.243 0 5V19C0 21.757 2.243 24 5 24H11C13.757 24 16 21.757 16 19V16C16 15.448 15.553 15 15 15ZM11 22H5C3.346 22 2 20.654 2 19V18H14V19C14 20.654 12.654 22 11 22ZM9.75 20C9.75 20.552 9.303 21 8.75 21H7.25C6.697 21 6.25 20.552 6.25 20C6.25 19.448 6.697 19 7.25 19H8.75C9.303 19 9.75 19.448 9.75 20Z" fill="#0000C9"/>
</g>
<defs>
<clipPath id="clip0_20008048_903">
<rect width="24" height="24" fill="white"/>
</clipPath>
</defs>
</svg>
