<svg width="17" height="17" viewBox="0 0 17 17" fill="none" xmlns="http://www.w3.org/2000/svg">
<path d="M7.97958 15.9798V12.9608C7.97958 12.7107 8.18203 12.5083 8.43213 12.5083C8.68223 12.5083 8.88468 12.7107 8.88468 12.9608V15.9798C8.88468 16.2299 8.68223 16.4324 8.43213 16.4324C8.18203 16.4324 7.97958 16.2299 7.97958 15.9798ZM4.94217 11.2818C5.11904 11.1052 5.4059 11.1051 5.58267 11.2818C5.75945 11.4586 5.7593 11.7455 5.58267 11.9223L3.39362 14.1114C3.21676 14.2882 2.92994 14.2882 2.75312 14.1114C2.57629 13.9346 2.57634 13.6477 2.75312 13.4709L4.94217 11.2818ZM11.2816 11.2818C11.4584 11.1051 11.7452 11.1052 11.9221 11.2818L14.1111 13.4709C14.2879 13.6477 14.288 13.9346 14.1111 14.1114C13.9343 14.2882 13.6475 14.2882 13.4706 14.1114L11.2816 11.9223C11.105 11.7455 11.1048 11.4586 11.2816 11.2818ZM3.90366 7.97982C4.15376 7.97982 4.35621 8.18227 4.35621 8.43237C4.35621 8.68247 4.15376 8.88492 3.90366 8.88492H0.884681C0.634581 8.88492 0.432129 8.68247 0.432129 8.43237C0.432129 8.18227 0.634581 7.97982 0.884681 7.97982H3.90366ZM15.9796 7.97982C16.2297 7.97982 16.4321 8.18227 16.4321 8.43237C16.4321 8.68247 16.2297 8.88492 15.9796 8.88492H12.9606C12.7105 8.88492 12.508 8.68247 12.508 8.43237C12.508 8.18227 12.7105 7.97982 12.9606 7.97982H15.9796ZM2.75312 2.75336C2.92994 2.57654 3.21676 2.57659 3.39362 2.75336L5.58267 4.94242C5.7593 5.11928 5.75945 5.40614 5.58267 5.58292C5.4059 5.75969 5.11904 5.75954 4.94217 5.58292L2.75312 3.39386C2.57634 3.21701 2.57629 2.93018 2.75312 2.75336ZM13.4706 2.75336C13.6475 2.57659 13.9343 2.57654 14.1111 2.75336C14.288 2.93018 14.2879 3.21701 14.1111 3.39386L11.9221 5.58292C11.7452 5.75954 11.4584 5.75969 11.2816 5.58292C11.1048 5.40614 11.105 5.11928 11.2816 4.94242L13.4706 2.75336ZM7.97958 3.9039V0.884925C7.97958 0.634825 8.18203 0.432373 8.43213 0.432373C8.68223 0.432373 8.88468 0.634825 8.88468 0.884925V3.9039C8.88468 4.154 8.68223 4.35646 8.43213 4.35646C8.18203 4.35646 7.97958 4.154 7.97958 3.9039Z" fill="#613AF5" stroke="#613AF5" stroke-width="0.864547" stroke-linecap="round" stroke-linejoin="round"/>
</svg>
