<svg width="64" height="28" viewBox="0 0 64 28" fill="none" xmlns="http://www.w3.org/2000/svg">
<g clip-path="url(#clip0_20008038_179)">
<path d="M18.0967 10.6316H23.3372V11.5582H18.0967V10.6316Z" fill="#F89521"/>
<path d="M18.0967 12.4844H23.3372V11.5581H18.0967V12.4844Z" fill="white"/>
<path d="M18.0967 12.4844H23.3372V13.411H18.0967V12.4844Z" fill="#08A650"/>
<mask id="mask0_20008038_179" style="mask-type:luminance" maskUnits="userSpaceOnUse" x="0" y="-1" width="64" height="29">
<path d="M0.0834961 27.9999H63.9169V-0.000167847H0.0834961V27.9999Z" fill="white"/>
</mask>
<g mask="url(#mask0_20008038_179)">
<path d="M9.90389 4.70332C12.3484 4.70332 14.5627 5.71264 16.1643 7.34393C17.7671 8.97573 18.7585 11.229 18.7585 13.7182C18.7585 16.2077 17.7671 18.4616 16.1643 20.0927C14.5627 21.7238 12.3484 22.7328 9.90389 22.7328C7.45891 22.7328 5.24557 21.7238 3.64296 20.0927C2.04068 18.4616 1.04932 16.2077 1.04932 13.7182C1.04932 11.229 2.04068 8.97573 3.64296 7.34393C5.24557 5.71264 7.45891 4.70332 9.90389 4.70332ZM15.5745 7.94482C14.1238 6.46767 12.1186 5.55345 9.90389 5.55345C7.68918 5.55345 5.68403 6.46767 4.23282 7.94482C2.78229 9.42196 1.88467 11.4636 1.88467 13.7182C1.88467 15.9727 2.78229 18.0145 4.23282 19.4918C5.68403 20.9686 7.68918 21.883 9.90389 21.883C12.1186 21.883 14.1238 20.9686 15.5745 19.4918C17.0255 18.0145 17.9229 15.9727 17.9229 13.7182C17.9229 11.4636 17.0255 9.42196 15.5745 7.94482ZM31.4297 4.70332C33.874 4.70332 36.0878 5.71264 37.6899 7.34393C39.2927 8.97573 40.2839 11.229 40.2839 13.7182C40.2839 16.2077 39.2927 18.4616 37.6899 20.0927C36.0878 21.7238 33.874 22.7328 31.4297 22.7328C28.9847 22.7328 26.7708 21.7238 25.1687 20.0927C23.5665 18.4616 22.5751 16.2077 22.5751 13.7182C22.5751 11.229 23.5665 8.97573 25.1687 7.34393C26.7708 5.71264 28.9847 4.70332 31.4297 4.70332ZM37.1001 7.94482C35.6495 6.46767 33.6441 5.55345 31.4297 5.55345C29.215 5.55345 27.2098 6.46767 25.7589 7.94482C24.3079 9.42196 23.4101 11.4636 23.4101 13.7182C23.4101 15.9727 24.3079 18.0145 25.7589 19.4918C27.2098 20.9686 29.215 21.883 31.4297 21.883C33.6441 21.883 35.6495 20.9686 37.1001 19.4918C38.5511 18.0145 39.4487 15.9727 39.4487 13.7182C39.4487 11.4636 38.5511 9.42196 37.1001 7.94482Z" fill="#010101"/>
<path d="M0.674582 13.2305C0.465872 13.3282 0.217816 13.2358 0.121673 13.0231C0.0257013 12.8106 0.116883 12.5581 0.325593 12.4602L25.5816 0.62161C25.5974 0.613946 25.6133 0.608198 25.6295 0.602625C27.4754 -0.141433 29.2174 -0.158676 30.5576 0.343458C31.3553 0.642509 32.016 1.1274 32.479 1.75424C32.9455 2.38631 33.2088 3.15928 33.2079 4.02996C33.207 5.3082 32.6319 6.79405 31.2856 8.33773C31.1335 8.51294 30.871 8.52896 30.6988 8.37448C30.5265 8.21964 30.5108 7.95176 30.663 7.7769C31.8629 6.4006 32.3753 5.11226 32.3767 4.02996C32.3773 3.35121 32.1741 2.75015 31.8133 2.2623C31.4491 1.76853 30.9188 1.38361 30.2706 1.14046C29.1085 0.704688 27.5782 0.727505 25.9352 1.38935L25.9305 1.39214L0.674582 13.2305ZM38.6352 13.3009C38.426 13.3974 38.1798 13.3044 38.0843 13.0917C37.9889 12.8787 38.0811 12.6276 38.29 12.5302L56.2925 4.11844C56.3033 4.11339 56.3149 4.10886 56.3259 4.1045C58.1769 3.35574 59.9234 3.33659 61.267 3.84064C62.0638 4.13969 62.7245 4.62406 63.1874 5.2509C63.655 5.88314 63.9178 6.65593 63.9171 7.52661C63.9162 8.8052 63.3409 10.2907 61.9949 11.8347C61.8426 12.0098 61.5797 12.0261 61.4076 11.8711C61.2357 11.7166 61.2199 11.4488 61.3717 11.2737C62.5723 9.89743 63.0851 8.60961 63.0858 7.52661C63.0858 6.84787 62.8833 6.24733 62.5223 5.75913C62.1579 5.26535 61.6276 4.88026 60.9796 4.63712C59.8149 4.20012 58.2795 4.22486 56.6324 4.89123L38.6352 13.3009Z" fill="#010101"/>
</g>
<mask id="mask1_20008038_179" style="mask-type:luminance" maskUnits="userSpaceOnUse" x="-3" y="-3" width="70" height="34">
<path d="M-2.0625 30.5393H66.0626V-2.53955H-2.0625V30.5393Z" fill="white"/>
</mask>
<g mask="url(#mask1_20008038_179)">
<path d="M4.37081 25.3375H4.34669V25.3622H4.02507V26.2646C4.02507 26.3142 4.01925 26.3581 4.00762 26.3962C3.99684 26.4342 3.97306 26.4814 3.93748 26.5377C3.9279 26.5504 3.91319 26.5723 3.89368 26.6021C3.88376 26.6153 3.86563 26.6335 3.84014 26.6563C3.81362 26.68 3.77787 26.6948 3.73271 26.7014L3.46994 26.4333L3.55257 26.4285L3.59619 26.4036L3.61586 26.3891L3.64033 26.3692L3.66479 26.3395L3.68412 26.2747L3.69404 26.235V25.3622H2.92456V26.6436L4.21445 27.4467L4.26303 27.4963L4.29793 27.5459C4.31093 27.5625 4.3188 27.5856 4.32205 27.6154L4.33163 27.674C4.33163 27.7569 4.3058 27.827 4.25379 27.8863C4.23429 27.9155 4.2035 27.9408 4.16124 27.9606C4.13866 27.9772 4.09949 27.9904 4.04457 28L3.8155 27.7427L3.89368 27.6976L3.9279 27.6832L3.99616 27.6233C4.00215 27.6203 4.00882 27.6053 4.01515 27.5789L3.99103 27.5592L3.96194 27.5343L3.9279 27.4996L2.60739 26.7059V25.3622H2.42725V25.0799H4.37081V25.3375ZM6.87891 25.3375H6.85428V25.3622H5.80252V26.0864L5.91936 26.0169C5.96812 25.9868 6.01499 25.9657 6.06084 25.9524L6.19222 25.9275C6.27673 25.9275 6.34824 25.9458 6.40658 25.9822C6.5395 26.0421 6.63684 26.1653 6.69877 26.3539C6.72135 26.4333 6.73247 26.5161 6.73247 26.6021C6.73247 26.7477 6.71348 26.871 6.67448 26.974C6.65823 27.0104 6.63684 27.0579 6.61101 27.1182C6.52 27.3192 6.4177 27.4449 6.30411 27.4946L6.06529 27.2364C6.11729 27.2364 6.15886 27.2208 6.18983 27.1894C6.22045 27.1579 6.26715 27.0964 6.32874 27.0037C6.38365 26.921 6.43087 26.8271 6.4697 26.7212C6.50546 26.6253 6.52325 26.5359 6.52325 26.4532L6.50871 26.359C6.48288 26.2895 6.44764 26.2477 6.40384 26.2323C6.36022 26.2182 6.31882 26.2106 6.27998 26.2106C6.24423 26.2106 6.19855 26.2191 6.14313 26.2374C6.08821 26.2555 6.02834 26.291 5.9635 26.344L5.89028 26.4036L5.80252 26.473V27.7569L5.5004 27.5294V26.7212L5.43728 26.7609L5.3632 26.7956L5.17742 26.875L5.04039 26.8949C4.96888 26.8949 4.8895 26.875 4.80071 26.835C4.67019 26.7763 4.56292 26.6592 4.47773 26.4847C4.4519 26.4053 4.43872 26.325 4.43872 26.2423C4.43872 26.1245 4.47311 26.0219 4.5412 25.9371C4.56703 25.904 4.59457 25.8739 4.62417 25.8478C4.73434 25.772 4.83322 25.7262 4.92098 25.7097C4.96631 25.6997 5.00669 25.6964 5.04278 25.6997H5.12062L5.21796 25.7142L5.35961 26.0265H5.26227L5.18888 26.0115H5.13533C5.05424 26.0115 4.99249 26.0202 4.95023 26.0364C4.8919 26.043 4.8221 26.0749 4.74084 26.1315C4.72134 26.1439 4.70183 26.1653 4.68233 26.1956C4.66266 26.2482 4.65308 26.2964 4.65308 26.3395C4.65308 26.4553 4.69037 26.5326 4.76582 26.5723L4.85358 26.6021L4.97145 26.612C4.99437 26.6153 5.04159 26.6051 5.11361 26.5822C5.15313 26.569 5.23267 26.5326 5.35362 26.473C5.35362 26.473 5.36834 26.4631 5.39776 26.4433L5.5004 26.3738V25.3622H4.32718V25.0799H6.87891V25.3375ZM11.1309 25.3375H11.1063V25.3622H10.0545V26.0864L10.1712 26.0169C10.22 25.9868 10.2668 25.9657 10.3127 25.9524L10.4437 25.9275C10.5281 25.9275 10.6003 25.9458 10.6583 25.9822C10.7915 26.0421 10.8889 26.1653 10.9503 26.3539C10.9734 26.4333 10.9845 26.5161 10.9845 26.6021C10.9845 26.7477 10.9653 26.871 10.9262 26.974C10.9099 27.0104 10.8889 27.0579 10.8627 27.1182C10.7719 27.3192 10.6697 27.4449 10.556 27.4946L10.3173 27.2364C10.3693 27.2364 10.4109 27.2208 10.4412 27.1894C10.4721 27.1579 10.5185 27.0964 10.5801 27.0037C10.6355 26.921 10.6824 26.8271 10.7217 26.7212C10.7575 26.6253 10.7753 26.5359 10.7753 26.4532L10.7602 26.359C10.7344 26.2895 10.6995 26.2477 10.6559 26.2323C10.6117 26.2182 10.5705 26.2106 10.5315 26.2106C10.4963 26.2106 10.4502 26.2191 10.395 26.2374C10.3402 26.2555 10.2798 26.291 10.2148 26.344L10.1418 26.4036L10.0545 26.473V27.7569L9.75243 27.5294V26.7212L9.68913 26.7609L9.61505 26.7956L9.4291 26.875L9.29207 26.8949C9.22073 26.8949 9.14135 26.875 9.05274 26.835C8.9217 26.7763 8.81495 26.6592 8.72958 26.4847C8.70375 26.4053 8.6904 26.325 8.6904 26.2423C8.6904 26.1245 8.72462 26.0219 8.79288 25.9371C8.81905 25.904 8.84642 25.8739 8.87568 25.8478C8.98619 25.772 9.08524 25.7262 9.17266 25.7097C9.21834 25.6997 9.25871 25.6964 9.29446 25.6997H9.37264L9.46998 25.7142L9.61095 26.0265H9.51361L9.44056 26.0115H9.38736C9.3061 26.0115 9.244 26.0202 9.20208 26.0364C9.14358 26.043 9.07395 26.0749 8.99286 26.1315C8.97336 26.1439 8.95386 26.1653 8.93418 26.1956C8.91468 26.2482 8.90476 26.2964 8.90476 26.3395C8.90476 26.4553 8.94205 26.5326 9.01784 26.5723L9.1056 26.6021L9.22295 26.612C9.24571 26.6153 9.29361 26.6051 9.36512 26.5822C9.40515 26.569 9.48453 26.5326 9.60565 26.473C9.60565 26.473 9.62002 26.4631 9.64927 26.4433L9.75243 26.3738V25.3622H8.57852V25.0799H11.1309V25.3375ZM12.996 25.3375H12.9715V25.3622H12.3775V26.0021H11.7148C11.6823 26.0021 11.6438 26.0115 11.5985 26.0319C11.566 26.0421 11.5347 26.0669 11.5056 26.1059C11.4798 26.1291 11.4587 26.1653 11.4421 26.2149L11.423 26.3494C11.423 26.4913 11.4683 26.6087 11.5593 26.7014C11.65 26.7935 11.7636 26.8404 11.9001 26.8404L12.0169 26.8254L12.1001 26.7956L12.0648 26.7303L12.044 26.6171L12.0585 26.5227C12.0676 26.4962 12.085 26.4664 12.1114 26.4333C12.1242 26.4168 12.1533 26.3969 12.1986 26.3738L12.3101 26.3539C12.3522 26.3539 12.3847 26.3638 12.4075 26.3837C12.4424 26.4036 12.4682 26.4285 12.4845 26.4582L12.538 26.5575L12.5575 26.6617C12.5575 26.7742 12.5252 26.871 12.4602 26.9541L12.4212 27.0037L12.3775 27.0384L12.7572 27.589L12.4698 27.6733L12.241 27.0826L12.1338 27.1128L12.0169 27.1224C11.9324 27.1293 11.8334 27.1058 11.7199 27.0529C11.5672 26.9863 11.4409 26.871 11.3402 26.7047C11.249 26.5558 11.2036 26.3894 11.2036 26.2067C11.2036 26.0571 11.2329 25.9404 11.2905 25.8544C11.3102 25.8102 11.3472 25.7753 11.4024 25.7494C11.4409 25.7224 11.491 25.7097 11.5528 25.7097H12.0756V25.3622H11.0432V25.0799H12.996V25.3375ZM14.983 25.3375H14.9585V25.3622H14.6273V27.7569L14.3355 27.5243V26.5128H13.5805V26.7108C13.5805 26.7907 13.5497 26.8332 13.4885 26.8404C13.3953 26.8404 13.2888 26.7751 13.1694 26.6451C13.1316 26.6051 13.0892 26.545 13.0447 26.4643C13.0155 26.4185 13.0008 26.3746 13.0008 26.3349C13.0008 26.2679 13.0329 26.2299 13.0984 26.22H13.2786V25.3622H12.8401V25.0799H14.983V25.3375ZM14.3594 26.2452H14.3355V25.3622H13.5805V26.22H14.3594V26.2452ZM18.4364 26.3341H18.4118L18.4364 26.3548L18.3487 26.4011L18.2666 26.4326L18.168 26.4532H18.091C17.9167 26.4631 17.7711 26.3969 17.6551 26.2548C17.6457 26.2943 17.6327 26.3259 17.6165 26.3494C17.5612 26.4615 17.4954 26.5467 17.4172 26.6063L17.3062 26.6707L17.3159 26.6902L17.3997 26.8094L17.5075 26.9581L17.6909 27.1972L17.7838 27.3059L17.9196 27.4449C17.9458 27.478 17.9831 27.5062 18.032 27.5294L17.7982 27.6682L17.6374 27.4897L17.5156 27.3308L17.3941 27.1572L17.0969 26.6761L17.0092 26.5227L16.9067 26.3193L16.8627 26.1559L16.8679 26.1059L16.9019 26.0611L16.9505 26.0319L16.9996 26.0219L17.3498 26.0169V25.3622H16.7023V25.0799H18.168V25.3622H17.6668V26.1261L17.8077 26.1808L17.9638 26.2001C18.0969 26.2001 18.2122 26.1688 18.3093 26.1059C18.3391 26.0897 18.3808 26.055 18.4364 26.0021V26.3341ZM20.1112 25.3375H20.0871V25.3622H19.707V27.7569L19.4056 27.5294V26.8552L19.3809 26.8696L19.254 26.9342L19.0643 27.014L18.9134 27.033C18.7218 27.033 18.5579 26.9574 18.4214 26.8055C18.3956 26.7754 18.3709 26.7373 18.3487 26.6911L18.2753 26.5575C18.2462 26.4615 18.2312 26.3623 18.2312 26.2597C18.2312 26.0256 18.3487 25.8619 18.5824 25.7692C18.6535 25.7394 18.79 25.713 18.9916 25.6898C19.0432 25.6832 19.0985 25.6795 19.1568 25.6795L19.3423 25.9822H19.177C19.0935 25.976 19.0159 25.9838 18.945 26.0066C18.7805 26.0223 18.6479 26.0881 18.5478 26.2026C18.5059 26.2618 18.4845 26.3283 18.4845 26.4036C18.4845 26.5112 18.5141 26.6012 18.5719 26.6719C18.5877 26.6918 18.6217 26.7171 18.6737 26.746C18.7285 26.7622 18.7865 26.7709 18.8484 26.7709C18.9127 26.7709 18.9734 26.7592 19.0294 26.7353C19.0862 26.7129 19.1556 26.6716 19.2354 26.612C19.3007 26.5657 19.3423 26.5277 19.3614 26.498C19.3842 26.4781 19.3989 26.4582 19.4056 26.4387V25.3622H18.1003V25.0799H20.1112V25.3375ZM21.5385 25.3375H21.514V25.3622H20.0045V25.0799H21.5385V25.3375ZM21.7914 26.7754H21.7672L21.7867 26.7907C21.7768 26.8094 21.751 26.8313 21.7086 26.8536L21.5676 26.9318C21.5223 26.9541 21.4473 26.9872 21.3433 27.0288C21.2786 27.0489 21.2171 27.0579 21.1584 27.0579C20.9798 27.0579 20.8178 27.0083 20.6717 26.9106C20.4994 26.7956 20.4134 26.6563 20.4134 26.4953L20.4229 26.4069C20.4329 26.3307 20.4654 26.2588 20.5206 26.1893C20.5531 26.1409 20.5935 26.1029 20.6421 26.077H20.1942L20.0676 25.7642H21.4554L21.5821 26.077H21.0951C21.0857 26.077 21.0595 26.0881 21.0174 26.1125C20.9654 26.1423 20.9199 26.1766 20.8809 26.2134L20.7885 26.2994L20.7203 26.3804L20.6813 26.4715C20.6746 26.4854 20.6717 26.5119 20.6717 26.5525C20.6717 26.593 20.6796 26.6352 20.6958 26.68C20.7086 26.6998 20.7348 26.7216 20.7736 26.7453L20.8809 26.7754H21.0658C21.1666 26.782 21.2819 26.7477 21.4116 26.6707C21.4603 26.6436 21.5012 26.6171 21.5335 26.5906L21.6795 26.4697C21.7056 26.4499 21.7426 26.3995 21.7914 26.3193V26.7754ZM23.7156 25.3375H23.6911V25.3622H23.2041V25.7043C23.298 25.784 23.3806 25.895 23.4523 26.0364C23.4846 26.0993 23.5093 26.1662 23.5255 26.2374C23.5418 26.3085 23.5496 26.3788 23.5496 26.4483C23.5496 26.7059 23.4735 26.9271 23.3214 27.1128C23.1524 27.3176 22.936 27.4202 22.6732 27.4202C22.3713 27.4202 22.1238 27.3465 21.9308 27.1993C21.7375 27.0529 21.641 26.8536 21.641 26.6021C21.641 26.5558 21.647 26.5128 21.66 26.473C21.7056 26.3837 21.7672 26.3142 21.8451 26.2646L21.9474 26.2106L21.66 25.9474V25.3622H21.4608V25.0799H23.7156V25.3375ZM23.3259 26.3093C23.3259 26.1742 23.303 26.077 23.2576 26.0169C23.2123 25.957 23.1504 25.9275 23.0727 25.9275C23.0333 25.9275 23.0027 25.9342 22.9801 25.9474C22.9444 25.9545 22.9119 26.0021 22.883 26.0913L22.8679 26.1851C22.8679 26.2581 22.883 26.3292 22.9119 26.3987C22.954 26.4751 23.0043 26.5344 23.0631 26.5774C23.0727 26.5906 23.0987 26.6105 23.1408 26.6364L23.248 26.7059L23.2576 26.6617L23.2672 26.6418L23.2771 26.6171L23.3112 26.4781C23.3214 26.4387 23.3259 26.3821 23.3259 26.3093ZM23.1553 26.8498C23.123 26.8432 23.0888 26.8284 23.053 26.8055C22.8842 26.7096 22.7559 26.5822 22.6683 26.4234C22.6229 26.344 22.6004 26.2646 22.6004 26.1851C22.6004 26.0731 22.6308 25.976 22.6927 25.8929C22.7285 25.8399 22.7639 25.8035 22.7997 25.784L22.9266 25.7097V25.3622H21.9624V25.8978L22.1263 26.1261H22.1455L22.2132 26.1008L22.2859 26.081L22.3583 26.0669L22.5273 26.359C22.4597 26.359 22.4016 26.3692 22.3535 26.3891C22.3309 26.3921 22.2763 26.4119 22.1888 26.4483C22.0375 26.5112 21.9558 26.6 21.9428 26.7162C21.9428 26.7956 21.954 26.8585 21.9768 26.9045C22.0285 27.0104 22.1299 27.0914 22.2823 27.1476C22.3566 27.1675 22.4378 27.177 22.5247 27.177C22.6503 27.177 22.7884 27.119 22.9369 27.0037L23.058 26.9099L23.1553 26.8205V26.8498ZM25.7709 25.3375H25.7462V25.3622H25.3716V27.7522L25.0695 27.5492V26.0864H24.27C24.2439 26.0864 24.2114 26.0942 24.1724 26.1108L24.1003 26.1808C24.0776 26.2134 24.0613 26.2468 24.0514 26.2795L24.0367 26.4036C24.0367 26.5161 24.0596 26.6319 24.1049 26.751C24.1602 26.8924 24.2363 27.0203 24.334 27.1323L24.4555 27.2716C24.488 27.3077 24.558 27.3739 24.6654 27.4698L24.4507 27.574C24.3958 27.5574 24.3455 27.5144 24.3 27.4449L24.0854 27.1163C23.9785 26.9508 23.899 26.7968 23.8466 26.6563C23.795 26.5152 23.7688 26.3921 23.7688 26.2862C23.7688 26.1766 23.7868 26.0873 23.8225 26.0178C23.8319 25.9908 23.8487 25.9648 23.8713 25.9387L23.9291 25.8631L23.9973 25.8086L24.0605 25.7741L24.1233 25.7642H25.0695V25.3622H23.6374V25.0799H25.7709V25.3375ZM26.6083 25.3375H26.584V25.3622H26.2038V27.7569L25.9022 27.5294V25.3622H25.6049V25.0799H26.6083V25.3375ZM30.8309 25.3375H30.8064V25.3622H29.7545V26.0864L29.8713 26.0169C29.9201 25.9868 29.9669 25.9657 30.0128 25.9524L30.1442 25.9275C30.2287 25.9275 30.3002 25.9458 30.3585 25.9822C30.4916 26.0421 30.5888 26.1653 30.6507 26.3539C30.6733 26.4333 30.6846 26.5161 30.6846 26.6021C30.6846 26.7477 30.6654 26.871 30.6263 26.974C30.6102 27.0104 30.5888 27.0579 30.5631 27.1182C30.4721 27.3192 30.3696 27.4449 30.2562 27.4946L30.0174 27.2364C30.0692 27.2364 30.111 27.2208 30.1418 27.1894C30.1724 27.1579 30.2188 27.0964 30.2807 27.0037C30.3356 26.921 30.3825 26.8271 30.4217 26.7212C30.4574 26.6253 30.4754 26.5359 30.4754 26.4532L30.4607 26.359C30.4345 26.2895 30.3996 26.2477 30.3558 26.2323C30.3118 26.2182 30.2708 26.2106 30.2316 26.2106C30.1962 26.2106 30.1505 26.2191 30.0951 26.2374C30.0402 26.2555 29.9803 26.291 29.9153 26.344L29.8422 26.4036L29.7545 26.473V27.7569L29.4525 27.5294V26.7212L29.3892 26.7609L29.3152 26.7956L29.1297 26.875L28.992 26.8949C28.921 26.8949 28.8416 26.875 28.7528 26.835C28.6221 26.7763 28.5149 26.6592 28.4297 26.4847C28.4038 26.4053 28.3905 26.325 28.3905 26.2423C28.3905 26.1245 28.4249 26.0219 28.4928 25.9371C28.519 25.904 28.5463 25.8739 28.5756 25.8478C28.6863 25.772 28.7853 25.7262 28.8731 25.7097C28.9183 25.6997 28.9586 25.6964 28.9949 25.6997H29.0727L29.1699 25.7142L29.3116 26.0265H29.2142L29.1405 26.0115H29.0873C29.0062 26.0115 28.9441 26.0202 28.9024 26.0364C28.8435 26.043 28.774 26.0749 28.693 26.1315C28.6733 26.1439 28.6538 26.1653 28.6343 26.1956C28.6146 26.2482 28.6052 26.2964 28.6052 26.3395C28.6052 26.4553 28.6423 26.5326 28.7178 26.5723L28.8055 26.6021L28.9234 26.612C28.9463 26.6153 28.9937 26.6051 29.0652 26.5822C29.1052 26.569 29.1846 26.5326 29.3056 26.473C29.3056 26.473 29.3203 26.4631 29.3494 26.4433L29.4525 26.3738V25.3622H28.2791V25.0799H30.8309V25.3375ZM31.6537 25.3375H31.6296V25.3622H31.3032V27.7569L31.0011 27.5294V25.3622H30.7479V25.0799H31.0794C31.0726 25.0435 31.058 24.9954 31.0353 24.9355C31.0127 24.8762 30.9641 24.789 30.8892 24.6733C30.7332 24.4318 30.5725 24.3109 30.4071 24.3109C30.3681 24.3109 30.3276 24.3192 30.2851 24.3358C30.2237 24.3759 30.1784 24.4351 30.1488 24.5145C30.136 24.5542 30.1264 24.6105 30.1197 24.6831L30.1342 24.8122L30.1733 24.9313C30.1832 24.9544 30.2058 24.986 30.2415 25.0248C30.2673 25.0546 30.3127 25.091 30.378 25.1344H30.1733C30.1474 25.1248 30.1212 25.103 30.0951 25.0699L29.9977 24.9355C29.9491 24.8693 29.9117 24.7998 29.8859 24.7282C29.86 24.6566 29.8474 24.5913 29.8474 24.5317C29.8474 24.4649 29.8585 24.4002 29.8814 24.3379C29.8975 24.2936 29.9279 24.2407 29.9736 24.1778C30.0157 24.1318 30.0677 24.0947 30.1296 24.0686C30.1912 24.0418 30.2545 24.0286 30.3193 24.0286C30.5563 24.0286 30.7806 24.1965 30.9915 24.5317C31.0435 24.6145 31.1101 24.7312 31.1913 24.8825C31.2298 24.9553 31.2527 25.0206 31.2596 25.0799H31.6537V25.3375ZM36.2323 25.3375H36.2079V25.3573H35.8813V27.7569L35.5795 27.5243V26.5028L35.5645 26.5119L35.5018 26.5401C35.4926 26.5425 35.4663 26.5512 35.4243 26.5674H35.3374C35.2468 26.5741 35.1551 26.5483 35.0612 26.4905C35.0357 26.4772 34.9929 26.4516 34.9358 26.4126L34.8478 26.3506L34.7366 26.2588L34.7707 26.225L34.8389 26.3395L34.9072 26.4433L35.0097 26.6469L35.0434 26.7805C35.0434 26.9325 34.9982 27.0645 34.9072 27.177C34.8357 27.2629 34.7351 27.3242 34.6054 27.3606C34.5628 27.3739 34.5108 27.3805 34.4494 27.3805C34.2516 27.3805 34.0712 27.2849 33.9088 27.0931C33.821 26.9872 33.7093 26.8022 33.5725 26.5377C33.5143 26.4285 33.4717 26.3109 33.4461 26.1851C33.4331 26.1261 33.4265 26.0749 33.4265 26.0319L33.5968 25.942C33.5968 26.1141 33.6573 26.3175 33.7771 26.5525C33.8621 26.7212 33.9552 26.844 34.0575 26.9219C34.1594 26.9992 34.2703 27.0384 34.3905 27.0384C34.5079 27.0384 34.6001 26.9999 34.6684 26.9247C34.7106 26.875 34.7416 26.8106 34.7614 26.7312C34.7642 26.7108 34.7659 26.6815 34.7659 26.6418C34.7659 26.5591 34.7544 26.4872 34.7317 26.426C34.7091 26.3647 34.6737 26.3126 34.6246 26.2696L34.5079 26.3193L34.3719 26.3395L34.2446 26.3142L34.0599 26.0364H34.1671C34.3882 26.0364 34.5449 25.9798 34.6396 25.8659C34.6781 25.8189 34.6976 25.7683 34.6976 25.7142C34.6976 25.6543 34.6911 25.6038 34.6781 25.564C34.6651 25.5235 34.6396 25.4864 34.6001 25.4533C34.5611 25.4028 34.4816 25.3705 34.3616 25.3573L34.2597 25.3681L34.1526 25.4045C34.0486 25.4392 33.9786 25.4864 33.9428 25.5459L33.7723 25.258L33.8601 25.2039L33.9233 25.1692C33.9819 25.1361 34.04 25.1124 34.0989 25.0997L34.2159 25.0745H34.2889C34.3734 25.0745 34.4393 25.0926 34.4884 25.129C34.6473 25.2021 34.7772 25.3375 34.8779 25.536C34.9202 25.6187 34.9414 25.7043 34.9414 25.7936V25.9073C34.9382 25.938 34.9219 25.9868 34.8926 26.0566L34.8194 26.1409L34.7756 26.1808L34.8478 26.235L34.9453 26.2747L35.042 26.3044L35.1534 26.3093H35.2115L35.2642 26.2994L35.3135 26.2895L35.3715 26.2696L35.4823 26.2299L35.5795 26.1695V25.3573H35.0766L34.9219 25.0745H36.2323V25.3375ZM37.1284 25.3375H37.1036V25.3622H36.7238V27.7569L36.4215 27.5294V25.3622H36.1251V25.0799H37.1284V25.3375ZM36.6896 25.0546C36.6961 25.0682 36.6961 25.076 36.6896 25.0799C36.6863 25.0865 36.6689 25.0901 36.6361 25.0901L36.6751 25.129L36.5166 25.1307L36.4484 25.0269L35.9767 24.4251C35.9545 24.3987 35.9317 24.3804 35.909 24.3706L35.8065 24.3508H35.3402L35.1705 23.9834H35.7253C35.7708 23.9834 35.805 23.9876 35.8277 23.9937L35.9252 24.0037L35.9545 24.0087C35.9767 24.0124 35.9918 24.0174 35.998 24.0235L36.1641 24.2572L36.3526 24.5401L36.42 24.6343L36.4788 24.7294L36.5459 24.8287L36.6092 24.933L36.6896 25.0546ZM38.9055 25.3375H38.8816V25.3622H38.2092L38.2435 25.5409L38.2624 25.7286C38.2624 26.0629 38.1341 26.3722 37.8782 26.6599C37.9107 26.7423 37.9559 26.8238 38.0123 26.9027L38.1894 27.1624L38.4039 27.4052C38.4493 27.4582 38.5339 27.5261 38.6573 27.6083L38.4137 27.7522L38.2479 27.5492L38.1117 27.3606L37.9559 27.1323L37.8392 26.9541L37.6149 26.607L37.5078 26.4135L37.4396 26.2696L37.4156 26.1357C37.4156 26.0603 37.4541 26.0219 37.5321 26.0219L37.9217 26.0169V25.3622H37.0353V25.0799H38.9055V25.3375Z" fill="#010101"/>
<path d="M7.6241 14.2292H7.59297L7.6241 14.256L7.51136 14.3152L7.40581 14.3558L7.27973 14.3823H7.18068C6.9564 14.395 6.76942 14.3102 6.6199 14.1275C6.60759 14.178 6.59082 14.2189 6.57012 14.2482C6.49895 14.3929 6.41462 14.5027 6.31437 14.5791L6.17135 14.6618L6.18418 14.6875L6.29127 14.84L6.43035 15.0314L6.66626 15.3383L6.78499 15.4791L6.96068 15.6576C6.99387 15.6999 7.04177 15.7363 7.10455 15.7661L6.80398 15.9443L6.59715 15.7147L6.44079 15.5104L6.28443 15.288L5.90208 14.6693L5.78934 14.4717L5.65779 14.2102L5.60185 13.9998L5.60801 13.9359L5.6518 13.879L5.71458 13.8403L5.77685 13.8276L6.2278 13.8213V12.9799H5.39502V12.6164H7.27973V12.9799H6.63462V13.9615L6.81629 14.0317L7.01679 14.0571C7.18787 14.0571 7.33636 14.0169 7.46141 13.9359C7.49905 13.9148 7.55294 13.8702 7.6241 13.8021V14.2292ZM9.77843 12.948H9.74678V12.9799H9.25853V16.0596L8.87037 15.7661V14.8984L8.83906 14.9182L8.6762 15.001L8.43191 15.1027L8.23808 15.1283C7.99157 15.1283 7.78046 15.0307 7.60546 14.8351C7.57175 14.797 7.54062 14.7482 7.51136 14.6883L7.41727 14.5162C7.37998 14.3929 7.36133 14.2656 7.36133 14.1338C7.36133 13.8318 7.51136 13.6217 7.81211 13.5027C7.90364 13.4641 8.07933 13.4305 8.33799 13.4007C8.40488 13.3921 8.47553 13.388 8.5508 13.388L8.78894 13.7767H8.57698C8.46937 13.7684 8.36913 13.7788 8.27846 13.8086C8.06667 13.829 7.89662 13.9126 7.76815 14.0604C7.71409 14.1357 7.68689 14.2217 7.68689 14.3186C7.68689 14.4567 7.72435 14.5725 7.79825 14.6639C7.8193 14.689 7.86343 14.7214 7.92981 14.7585C7.99978 14.7801 8.07505 14.7909 8.15443 14.7909C8.23689 14.7909 8.31507 14.7751 8.38692 14.7458C8.46031 14.716 8.54875 14.6625 8.65208 14.5864C8.73556 14.527 8.78894 14.4781 8.81426 14.4393C8.84334 14.414 8.86164 14.3889 8.87037 14.3631V12.9799H7.1918V12.6164H9.77843V12.948ZM11.6132 12.948H11.5815V12.9799H9.64037V12.6164H11.6132V12.948ZM11.9387 14.797H11.9071L11.9321 14.816C11.9197 14.84 11.8864 14.8682 11.832 14.8966L11.6507 14.9977C11.592 15.0266 11.4958 15.0687 11.3624 15.1229C11.2787 15.1473 11.1997 15.1605 11.1244 15.1605C10.8948 15.1605 10.6865 15.0964 10.4985 14.9703C10.2771 14.8223 10.1666 14.6436 10.1666 14.4368L10.1789 14.3231C10.1914 14.225 10.233 14.1324 10.3041 14.0435C10.3457 13.9805 10.3981 13.9319 10.461 13.8979H9.88483L9.7218 13.4963H11.5066L11.6693 13.8979H11.043C11.0303 13.8979 10.997 13.9126 10.9426 13.9436C10.876 13.9829 10.8175 14.0266 10.7676 14.0745L10.6485 14.185L10.5611 14.2891L10.5108 14.4055C10.5024 14.4236 10.4985 14.4575 10.4985 14.5096C10.4985 14.5617 10.5087 14.6164 10.5294 14.6739C10.5462 14.6989 10.5799 14.7275 10.6299 14.7569L10.7676 14.797H11.0054C11.1347 14.8054 11.2828 14.7603 11.4502 14.6618C11.5129 14.6267 11.5649 14.5924 11.6065 14.5587L11.7944 14.4037C11.8277 14.3781 11.8761 14.3135 11.9387 14.2102V14.797ZM14.4123 12.948H14.3806V12.9799H13.7545V13.4197C13.8756 13.5217 13.982 13.664 14.0739 13.8467C14.1155 13.9275 14.1468 14.0139 14.1675 14.1049C14.1889 14.1965 14.1991 14.2867 14.1991 14.376C14.1991 14.7073 14.1011 14.9923 13.9047 15.23C13.6874 15.4935 13.4101 15.6257 13.0719 15.6257C12.6838 15.6257 12.3651 15.5311 12.117 15.3416C11.8686 15.1527 11.7442 14.8966 11.7442 14.5737C11.7442 14.5142 11.7526 14.4591 11.7692 14.4079C11.8277 14.2933 11.9071 14.2036 12.0075 14.1399L12.1389 14.0702L11.7692 13.732V12.9799H11.5129V12.6164H14.4123V12.948ZM13.911 14.1979C13.911 14.0233 13.8816 13.8979 13.8233 13.8213C13.7649 13.7445 13.6856 13.7065 13.5851 13.7065C13.5352 13.7065 13.4953 13.7149 13.4661 13.732C13.4204 13.7403 13.3785 13.8021 13.341 13.9169L13.3224 14.0381C13.3224 14.1317 13.341 14.2229 13.3785 14.3128C13.4331 14.41 13.4979 14.4865 13.5728 14.5418C13.5851 14.5587 13.6188 14.584 13.6729 14.618L13.8106 14.7073L13.8233 14.6502L13.8359 14.6246L13.8481 14.5924L13.8922 14.414C13.9047 14.3631 13.911 14.2909 13.911 14.1979ZM13.6916 14.8921C13.6502 14.8834 13.6058 14.8644 13.5602 14.8351C13.3431 14.7118 13.1783 14.5476 13.0656 14.3442C13.0069 14.2424 12.9778 14.1399 12.9778 14.0381C12.9778 13.8936 13.0179 13.7684 13.0969 13.6619C13.1426 13.5938 13.1888 13.5472 13.2351 13.5217L13.3975 13.4261V12.9799H12.1575V13.6684L12.3686 13.9615H12.3936L12.4802 13.9296L12.5739 13.9042L12.6672 13.885L12.8843 14.2614C12.7974 14.2614 12.7221 14.274 12.6608 14.2996C12.6314 14.3041 12.5616 14.3294 12.4489 14.376C12.2547 14.4567 12.1493 14.5716 12.1326 14.7205C12.1326 14.8223 12.1473 14.9029 12.1764 14.9625C12.2432 15.0985 12.3734 15.2027 12.5686 15.2751C12.6648 15.3004 12.7691 15.3132 12.881 15.3132C13.0428 15.3132 13.2201 15.2392 13.411 15.0903L13.5665 14.9687L13.6916 14.8541V14.8921Z" fill="#010101"/>
<path d="M28.798 12.948H28.7667V12.9797H28.3846L28.1777 12.6164H28.798V12.948ZM29.1236 14.4401H29.0923V14.4716H28.2468V14.8289C28.2468 14.8583 28.2426 14.8818 28.2344 14.8992L28.2096 14.9496L28.1464 14.9886L28.0905 15.0009C28.0361 15.0009 27.9778 14.9773 27.915 14.9306L27.7896 14.8339C27.5851 14.6799 27.4495 14.5129 27.3824 14.3333C27.3658 14.2987 27.3554 14.256 27.3513 14.2052L27.3638 14.1588L27.4011 14.1146L27.4515 14.0892L27.5018 14.0829H27.8773V13.7628L27.5829 13.745C27.4495 13.7365 27.3138 13.6767 27.1761 13.5663C27.0468 13.4689 26.9819 13.3218 26.9819 13.1267C26.9819 13.0373 26.9922 12.9626 27.0132 12.9032C27.0926 12.7291 27.2324 12.6333 27.4329 12.6164H27.5082C27.6543 12.6164 27.8209 12.6738 28.0091 12.7878C28.092 12.8374 28.1528 12.8992 28.1906 12.9703C28.2282 13.0427 28.2468 13.1267 28.2468 13.2232V14.0829H29.1236V14.4401ZM27.8773 13.5409V13.0563L27.8583 12.999L27.8145 12.948C27.7856 12.9267 27.7607 12.914 27.7396 12.9097L27.6582 12.8971C27.5289 12.8971 27.4308 12.9247 27.3638 12.9797C27.3138 13.0224 27.2888 13.0924 27.2888 13.1901C27.2888 13.2371 27.3054 13.2807 27.3388 13.3211C27.372 13.3611 27.4182 13.4007 27.4765 13.4386L27.6459 13.509L27.8145 13.5344L27.8583 13.528L27.8773 13.5409ZM29.9249 12.948H29.8936V12.9797H29.4054V16.0592L29.0172 15.7661V12.9797H28.635V12.6164H29.9249V12.948ZM31.0018 12.948H30.9708V12.9797H30.4821V16.0592L30.0941 15.7661V12.9797H29.7123V12.6164H31.0018V12.948ZM33.2564 12.948H33.2247V12.9797H32.3612L32.4048 13.2091L32.4298 13.4505C32.4298 13.8795 32.265 14.278 31.9352 14.6477C31.9781 14.754 32.0353 14.8583 32.1073 14.9604L32.3357 15.2946L32.6113 15.6064C32.6698 15.6741 32.7782 15.7615 32.9366 15.8678L32.6239 16.0529L32.4109 15.7917L32.2358 15.5489L32.0353 15.2558L31.8849 15.0265L31.597 14.58L31.4593 14.3314L31.3715 14.1465L31.3404 13.974C31.3404 13.8767 31.3903 13.8274 31.4904 13.8274L31.9913 13.8209V12.9797H30.8516V12.6164H33.2564V12.948ZM35.7614 12.948H35.7298V12.9797H35.2477V16.0529L34.8597 15.7917V13.9106H33.8315C33.7982 13.9106 33.7559 13.9214 33.7056 13.9427L33.6134 14.0315C33.5838 14.0744 33.5635 14.1167 33.5505 14.1588L33.5318 14.3185C33.5318 14.4633 33.5611 14.6117 33.6196 14.7648C33.6902 14.9476 33.7886 15.1117 33.9136 15.2558L34.0704 15.4343C34.1123 15.4815 34.2021 15.5658 34.3398 15.6891L34.0638 15.8236C33.9932 15.8016 33.929 15.7469 33.8697 15.6576L33.5944 15.2342C33.4571 15.0224 33.3542 14.8243 33.288 14.6435C33.2206 14.4624 33.1873 14.3037 33.1873 14.1681C33.1873 14.0266 33.2105 13.9119 33.2564 13.8225C33.2685 13.7882 33.2897 13.7546 33.319 13.7203L33.3929 13.6233L33.4807 13.5534L33.5623 13.509L33.6427 13.4965H34.8597V12.9797H33.0184V12.6164H35.7614V12.948Z" fill="#010101"/>
</g>
</g>
<defs>
<clipPath id="clip0_20008038_179">
<rect width="64" height="28" fill="white"/>
</clipPath>
</defs>
</svg>
