<svg width="24" height="24" viewBox="0 0 24 24" fill="none" xmlns="http://www.w3.org/2000/svg">
<path d="M9.414 15.4146L6.71 18.1416C6.321 18.5336 5.688 18.5366 5.296 18.1476C4.903 17.7586 4.901 17.1256 5.29 16.7336L7.008 15.0006H1C0.447 15.0006 0 14.5526 0 14.0006C0 13.4486 0.447 13.0006 1 13.0006H7.005L5.29 11.2676C4.901 10.8756 4.903 10.2426 5.296 9.85357C5.689 9.46457 6.321 9.46657 6.71 9.85957L9.417 12.5896C9.792 12.9636 10 13.4656 10 14.0006C10 14.5356 9.792 15.0376 9.414 15.4156V15.4146ZM17.5 10.9996C16.672 10.9996 16 11.6716 16 12.4996C16 13.3276 16.672 13.9996 17.5 13.9996C18.328 13.9996 19 13.3276 19 12.4996C19 11.6716 18.328 10.9996 17.5 10.9996ZM24 5.62057V20.9996C24 22.6536 22.654 23.9996 21 23.9996H11C9.346 23.9996 8 22.6536 8 20.9996V19.9996C8 19.4476 8.447 18.9996 9 18.9996C9.553 18.9996 10 19.4476 10 19.9996V20.9996C10 21.5506 10.448 21.9996 11 21.9996H12V4.00057C10.897 4.00057 10 4.89757 10 6.00057V8.00057C10 8.55257 9.553 9.00057 9 9.00057C8.447 9.00057 8 8.55257 8 8.00057V6.00057C8 3.79457 9.794 2.00057 12 2.00057H12.561C12.798 1.59357 13.089 1.21557 13.464 0.908571C14.395 0.146571 15.602 -0.159429 16.784 0.0795712L19.98 0.719571C22.309 1.18457 24 3.24657 24 5.62157V5.62057ZM22 5.62057C22 4.19557 20.985 2.95857 19.588 2.67957L16.392 2.03957C15.804 1.92057 15.197 2.07257 14.733 2.45457C14.267 2.83657 14.001 3.39957 14.001 4.00157V22.0006H21.001C21.553 22.0006 22.001 21.5516 22.001 21.0006L22 5.62057Z" fill="#0000C9"/>
</svg>
