<svg width="18" height="18" viewBox="0 0 18 18" fill="none" xmlns="http://www.w3.org/2000/svg">
<g clip-path="url(#clip0_20008173_8228)">
<path fill-rule="evenodd" clip-rule="evenodd" d="M15.3475 2.616C13.663 0.93 11.4235 0.00075 9.03772 0C4.12147 0 0.120219 4.0005 0.117969 8.919C0.117219 10.491 0.528219 12.0255 1.30897 13.3785L0.0429688 18L4.77097 16.7595C6.07372 17.4705 7.54072 17.8448 9.03322 17.8455H9.03697C13.9525 17.8455 17.9545 13.8442 17.9567 8.92575C17.9582 6.543 17.0312 4.30125 15.3475 2.616ZM9.03772 16.3387H9.03472C7.70422 16.3387 6.39997 15.981 5.26147 15.3053L4.99072 15.1448L2.18497 15.8805L2.93422 13.1445L2.75797 12.864C2.01547 11.6835 1.62397 10.3193 1.62472 8.919C1.62622 4.8315 4.95247 1.506 9.04147 1.506C11.0215 1.506 12.883 2.2785 14.2825 3.6795C15.682 5.08125 16.4522 6.9435 16.4515 8.92425C16.4492 13.0133 13.1237 16.3387 9.03772 16.3387ZM13.1042 10.7865C12.8815 10.6748 11.7857 10.1355 11.581 10.0612C11.377 9.987 11.2285 9.9495 11.0792 10.1722C10.93 10.395 10.504 10.8975 10.3735 11.0468C10.2437 11.1953 10.1132 11.214 9.89047 11.1023C9.66772 10.9905 8.94922 10.7557 8.09797 9.996C7.43572 9.405 6.98797 8.67525 6.85822 8.45175C6.72847 8.22825 6.84472 8.10825 6.95572 7.99725C7.05622 7.8975 7.17847 7.737 7.29022 7.6065C7.40272 7.4775 7.43947 7.3845 7.51447 7.23525C7.58872 7.08675 7.55197 6.95625 7.49572 6.8445C7.43947 6.7335 6.99397 5.63625 6.80872 5.19C6.62797 4.755 6.44422 4.81425 6.30697 4.8075C6.17722 4.80075 6.02872 4.8 5.87947 4.8C5.73097 4.8 5.48947 4.8555 5.28547 5.079C5.08147 5.3025 4.50547 5.84175 4.50547 6.93825C4.50547 8.0355 5.30422 9.09525 5.41522 9.24375C5.52622 9.39225 6.98647 11.6438 9.22222 12.609C9.75397 12.8385 10.1695 12.9757 10.4927 13.0785C11.0267 13.248 11.5127 13.224 11.8967 13.167C12.325 13.1032 13.2152 12.6277 13.4012 12.1073C13.5872 11.5868 13.5872 11.1397 13.531 11.0475C13.4755 10.9537 13.327 10.8982 13.1042 10.7865Z" fill="white"/>
</g>
<defs>
<clipPath id="clip0_20008173_8228">
<rect width="18" height="18" fill="white"/>
</clipPath>
</defs>
</svg>
