<svg width="26" height="26" viewBox="0 0 26 26" fill="none" xmlns="http://www.w3.org/2000/svg">
<path d="M12.9336 2.09619C15.8011 2.09766 18.4917 3.21046 20.5156 5.23193C22.5395 7.25344 23.6523 9.93981 23.6514 12.7974C23.6487 18.6926 18.8408 23.4916 12.9336 23.4917H12.9287C11.1351 23.491 9.37279 23.0416 7.80762 22.1899L7.7373 22.1519L7.66113 22.1714L2.20801 23.5981L3.66602 18.2876L3.6875 18.2075L3.64648 18.1353C2.70717 16.5099 2.21359 14.6659 2.21582 12.7896C2.21822 7.07814 6.7296 2.39697 12.3828 2.10986L12.9336 2.09619Z" fill="white" stroke="#ECECEC" stroke-width="0.4"/>
<path d="M12.937 3.73611C7.93141 3.73611 3.86068 7.79757 3.8589 12.7897C3.85643 14.4944 4.33739 16.165 5.24618 17.6083L5.46208 17.9509L4.54519 21.2918L7.97979 20.393L8.31143 20.589C9.70436 21.4141 11.3015 21.8504 12.9302 21.8513H12.9336C17.9353 21.8513 22.006 17.7894 22.008 12.797C22.0117 11.607 21.779 10.4282 21.3232 9.32865C20.8674 8.22911 20.1976 7.23074 19.3526 6.39132C18.5122 5.54732 17.5125 4.87806 16.4113 4.42229C15.31 3.96652 14.1292 3.73329 12.937 3.73611Z" fill="url(#paint0_linear_20008166_669)"/>
<path fill-rule="evenodd" clip-rule="evenodd" d="M10.2048 8.23505C10.0003 7.7817 9.78518 7.77252 9.59094 7.76467L9.06802 7.7583C8.8861 7.7583 8.59051 7.82643 8.34062 8.09894C8.09073 8.37145 7.38574 9.03007 7.38574 10.3697C7.38574 11.7093 8.36332 13.0037 8.49954 13.1856C8.63576 13.3675 10.3867 16.2041 13.1597 17.2955C15.464 18.2025 15.9329 18.0221 16.4333 17.9768C16.9336 17.9314 18.0473 17.3181 18.2745 16.6823C18.5017 16.0465 18.5018 15.5018 18.4337 15.3879C18.3656 15.274 18.1837 15.2063 17.9106 15.0701C17.6376 14.9338 16.2966 14.2752 16.0466 14.1842C15.7965 14.0933 15.6148 14.0481 15.4327 14.3207C15.2506 14.5932 14.7284 15.2062 14.5692 15.3879C14.41 15.5696 14.2511 15.5924 13.978 15.4563C13.705 15.3202 12.8265 15.0326 11.7843 14.105C10.9733 13.3833 10.4259 12.492 10.2666 12.2196C10.1072 11.9473 10.2496 11.7998 10.3865 11.6641C10.5089 11.5421 10.6592 11.3461 10.7959 11.1872C10.9325 11.0283 10.9775 10.9147 11.0683 10.7333C11.1591 10.5518 11.1138 10.3925 11.0456 10.2564C10.9773 10.1203 10.4473 8.77356 10.2048 8.23505Z" fill="white"/>
<defs>
<linearGradient id="paint0_linear_20008166_669" x1="12.7487" y1="4.82319" x2="12.8403" y2="20.3038" gradientUnits="userSpaceOnUse">
<stop stop-color="#57D163"/>
<stop offset="1" stop-color="#23B33A"/>
</linearGradient>
</defs>
</svg>
