<svg width="18" height="18" viewBox="0 0 18 18" fill="none" xmlns="http://www.w3.org/2000/svg">
<path d="M17.6235 4.63942C17.4165 3.86017 16.8067 3.24592 16.032 3.03742C14.6287 2.65942 9 2.65942 9 2.65942C9 2.65942 3.37125 2.65942 1.96725 3.03742C1.19325 3.24592 0.5835 3.85942 0.3765 4.63942C0 6.05242 0 8.99992 0 8.99992C0 8.99992 0 11.9474 0.3765 13.3604C0.5835 14.1397 1.19325 14.7539 1.968 14.9624C3.37125 15.3404 9 15.3404 9 15.3404C9 15.3404 14.6288 15.3404 16.0328 14.9624C16.8068 14.7539 17.4165 14.1404 17.6243 13.3604C18 11.9474 18 8.99992 18 8.99992C18 8.99992 18 6.05242 17.6235 4.63942ZM7.1595 11.6767V6.32317L11.8635 8.99992L7.1595 11.6767Z" fill="black"/>
</svg>
