<svg width="20" height="20" viewBox="0 0 20 20" fill="none" xmlns="http://www.w3.org/2000/svg">
<g clip-path="url(#clip0_20008627_6024)">
<path d="M19.3279 11.7372L17.5288 13.5347V14.9697C17.5288 16.348 16.4071 17.4697 15.0288 17.4697H13.5946L11.7963 19.2672C11.3254 19.7388 10.6971 19.9997 10.0288 19.9997C9.36042 19.9997 8.73292 19.7397 8.26125 19.2672L6.46375 17.4697H5.02875C3.65042 17.4697 2.52875 16.348 2.52875 14.9697V13.5347L0.73125 11.7372C-0.24375 10.763 -0.24375 9.17633 0.73125 8.20133L2.52875 6.40383V4.96966C2.52875 3.59133 3.65042 2.46966 5.02875 2.46966H6.46375L8.26125 0.671328C9.20625 -0.274505 10.8538 -0.272005 11.7971 0.671328L13.5946 2.46883H15.0288C15.4896 2.46883 15.8621 2.84216 15.8621 3.30216C15.8621 3.76216 15.4896 4.1355 15.0288 4.1355H13.2496C13.0279 4.1355 12.8163 4.048 12.6604 3.89133L10.6179 1.84883C10.3038 1.5355 9.75625 1.53383 9.43958 1.84883L7.39792 3.89133C7.24125 4.048 7.03042 4.1355 6.80875 4.1355H5.02875C4.56875 4.1355 4.19542 4.50966 4.19542 4.96883V6.74799C4.19542 6.96883 4.10792 7.18133 3.95125 7.33716L1.90958 9.37883C1.58458 9.70383 1.58458 10.2322 1.90958 10.558L3.95125 12.5997C4.10792 12.7563 4.19542 12.9672 4.19542 13.1888V14.9688C4.19542 15.4288 4.56875 15.8022 5.02875 15.8022H6.80875C7.03042 15.8022 7.24208 15.8897 7.39792 16.0463L9.43958 18.088C9.75542 18.403 10.3038 18.403 10.6171 18.088L12.6604 16.0463C12.8171 15.8897 13.0279 15.8022 13.2496 15.8022H15.0288C15.4888 15.8022 15.8621 15.4288 15.8621 14.9688V13.1888C15.8621 12.9672 15.9496 12.7555 16.1063 12.5997L18.1488 10.558C18.4738 10.233 18.4738 9.70383 18.1488 9.37883C17.8238 9.05299 17.8238 8.52549 18.1488 8.20049C18.4746 7.87549 19.0021 7.87466 19.3279 8.20049C20.3013 9.17466 20.3013 10.7605 19.3279 11.7355V11.7372ZM8.93292 11.3847L6.41792 8.89466C6.08958 8.56966 5.56375 8.57383 5.23875 8.90049C4.91458 9.22716 4.91792 9.75466 5.24458 10.0788L7.76042 12.5697C8.27208 13.0763 8.94542 13.3305 9.61792 13.3305C10.2904 13.3305 10.9654 13.0747 11.4779 12.5655L18.9196 5.173C19.2463 4.84883 19.2479 4.32133 18.9229 3.99466C18.5979 3.668 18.0713 3.6655 17.7446 3.9905L10.3029 11.3838C9.92542 11.7597 9.31125 11.7597 8.93292 11.3847Z" fill="#107400"/>
</g>
<defs>
<clipPath id="clip0_20008627_6024">
<rect width="20" height="20" fill="white"/>
</clipPath>
</defs>
</svg>
