<svg width="146" height="146" viewBox="0 0 146 146" fill="none" xmlns="http://www.w3.org/2000/svg">
<path d="M123.722 72.9997C123.722 77.3281 118.404 80.8957 117.339 84.886C116.24 89.0116 119.022 94.7604 116.933 98.3702C114.811 102.039 108.429 102.479 105.453 105.455C102.477 108.431 102.037 114.813 98.3683 116.935C94.7584 119.023 89.0097 116.242 84.8841 117.341C80.8938 118.406 77.3262 123.724 72.9977 123.724C68.6692 123.724 65.1016 118.406 61.1113 117.341C56.9857 116.242 51.237 119.023 47.6271 116.935C43.9581 114.813 43.5185 108.431 40.5426 105.455C37.5668 102.479 31.184 102.039 29.062 98.3702C26.9739 94.7604 29.7553 89.0116 28.6562 84.886C27.591 80.8957 22.2734 77.3281 22.2734 72.9997C22.2734 68.6712 27.591 65.1036 28.6562 61.1133C29.7553 56.9877 26.9739 51.2389 29.062 47.6291C31.184 43.96 37.5668 43.5204 40.5426 40.5446C43.5185 37.5688 43.9581 31.186 47.6271 29.064C51.237 26.9758 56.9857 29.7572 61.1113 28.6582C65.1016 27.593 68.6692 22.2754 72.9977 22.2754C77.3262 22.2754 80.8938 27.593 84.8841 28.6582C89.0097 29.7572 94.7584 26.9758 98.3683 29.064C102.037 31.186 102.477 37.5688 105.453 40.5446C108.429 43.5204 114.811 43.96 116.933 47.6291C119.022 51.2389 116.24 56.9877 117.339 61.1133C118.404 65.1036 123.722 68.6712 123.722 72.9997Z" fill="#1DA867"/>
<path d="M87.6548 57.8834L68.3458 77.1925L58.3362 67.1913C56.1635 65.0186 52.6381 65.0186 50.4655 67.1913C48.2928 69.364 48.2928 72.8894 50.4655 75.062L64.5076 89.1042C66.6211 91.2177 70.0535 91.2177 72.167 89.1042L95.5171 65.7541C97.6897 63.5814 97.6897 60.0561 95.5171 57.8834C93.3444 55.7107 89.8275 55.7107 87.6548 57.8834Z" fill="#FFFCEE"/>
<path d="M135 73C135 78.2907 128.5 82.6513 127.198 87.5287C125.855 92.5713 129.255 99.598 126.702 104.01C124.109 108.495 116.307 109.032 112.67 112.67C109.032 116.307 108.495 124.109 104.01 126.702C99.598 129.255 92.5713 125.855 87.5287 127.198C82.6513 128.5 78.2907 135 73 135C67.7093 135 63.3487 128.5 58.4713 127.198C53.4287 125.855 46.402 129.255 41.9897 126.702C37.505 124.109 36.9677 116.307 33.3303 112.67C29.693 109.032 21.8913 108.495 19.2977 104.01C16.7453 99.598 20.145 92.5713 18.8017 87.5287C17.4997 82.6513 11 78.2907 11 73C11 67.7093 17.4997 63.3487 18.8017 58.4713C20.145 53.4287 16.7453 46.402 19.2977 41.9897C21.8913 37.505 29.693 36.9677 33.3303 33.3303C36.9677 29.693 37.505 21.8913 41.9897 19.2977C46.402 16.7453 53.4287 20.145 58.4713 18.8017C63.3487 17.4997 67.7093 11 73 11C78.2907 11 82.6513 17.4997 87.5287 18.8017C92.5713 20.145 99.598 16.7453 104.01 19.2977C108.495 21.8913 109.032 29.693 112.67 33.3303C116.307 36.9677 124.109 37.505 126.702 41.9897C129.255 46.402 125.855 53.4287 127.198 58.4713C128.5 63.3487 135 67.7093 135 73Z" fill="#1DA867" fill-opacity="0.11"/>
<path d="M146 73C146 79.2293 138.347 84.3637 136.814 90.1063C135.232 96.0437 139.235 104.317 136.23 109.512C133.176 114.793 123.991 115.425 119.708 119.708C115.425 123.991 114.793 133.176 109.512 136.23C104.317 139.235 96.0437 135.232 90.1063 136.814C84.3637 138.347 79.2293 146 73 146C66.7707 146 61.6363 138.347 55.8937 136.814C49.9563 135.232 41.683 139.235 36.4878 136.23C31.2075 133.176 30.5748 123.991 26.2922 119.708C22.0095 115.425 12.8237 114.793 9.76983 109.512C6.76467 104.317 10.7675 96.0437 9.18583 90.1063C7.65283 84.3637 0 79.2293 0 73C0 66.7707 7.65283 61.6363 9.18583 55.8937C10.7675 49.9563 6.76467 41.683 9.76983 36.4878C12.8237 31.2075 22.0095 30.5748 26.2922 26.2922C30.5748 22.0095 31.2075 12.8237 36.4878 9.76983C41.683 6.76467 49.9563 10.7675 55.8937 9.18583C61.6363 7.65283 66.7707 0 73 0C79.2293 0 84.3637 7.65283 90.1063 9.18583C96.0437 10.7675 104.317 6.76467 109.512 9.76983C114.793 12.8237 115.425 22.0095 119.708 26.2922C123.991 30.5748 133.176 31.2075 136.23 36.4878C139.235 41.683 135.232 49.9563 136.814 55.8937C138.347 61.6363 146 66.7707 146 73Z" fill="#1DA867" fill-opacity="0.11"/>
<path d="M124 73C124 77.352 118.654 80.939 117.582 84.951C116.478 89.099 119.274 94.879 117.175 98.5085C115.041 102.198 108.624 102.64 105.632 105.632C102.64 108.624 102.198 115.041 98.5085 117.175C94.879 119.274 89.099 116.478 84.951 117.582C80.939 118.654 77.352 124 73 124C68.648 124 65.061 118.654 61.049 117.582C56.901 116.478 51.121 119.274 47.4915 117.175C43.8025 115.041 43.3605 108.624 40.3685 105.632C37.3765 102.64 30.959 102.198 28.8255 98.5085C26.726 94.879 29.5225 89.099 28.4175 84.951C27.3465 80.939 22 77.352 22 73C22 68.648 27.3465 65.061 28.4175 61.049C29.5225 56.901 26.726 51.121 28.8255 47.4915C30.959 43.8025 37.3765 43.3605 40.3685 40.3685C43.3605 37.3765 43.8025 30.959 47.4915 28.8255C51.121 26.726 56.901 29.5225 61.049 28.4175C65.061 27.3465 68.648 22 73 22C77.352 22 80.939 27.3465 84.951 28.4175C89.099 29.5225 94.879 26.726 98.5085 28.8255C102.198 30.959 102.64 37.3765 105.632 40.3685C108.624 43.3605 115.041 43.8025 117.175 47.4915C119.274 51.121 116.478 56.901 117.582 61.049C118.654 65.061 124 68.648 124 73Z" fill="#1DA867"/>
<path d="M87.5693 57.6562L68.3844 77.2818L58.4391 67.1167C56.2804 64.9084 52.7778 64.9084 50.619 67.1167C48.4603 69.325 48.4603 72.9082 50.619 75.1165L64.5709 89.3889C66.6708 91.537 70.0811 91.537 72.181 89.3889L95.381 65.656C97.5397 63.4477 97.5397 59.8645 95.381 57.6562C93.2222 55.4479 89.728 55.4479 87.5693 57.6562Z" fill="#FFFCEE"/>
</svg>
